<?xml version="1.0" encoding="utf-8"?>
<!-- Generator: Adobe Illustrator 28.2.0, SVG Export Plug-In . SVG Version: 6.00 Build 0)  -->
<svg version="1.1" id="Шар_1" xmlns="http://www.w3.org/2000/svg" xmlns:xlink="http://www.w3.org/1999/xlink" x="0px" y="0px"
	 viewBox="0 0 1080 1080" style="enable-background:new 0 0 1080 1080;" xml:space="preserve">
<style type="text/css">
	.st0{display:none;}
	.st1{display:inline;fill:#00A43C;}
	.st2{fill:#FFFFFF;}
	.st3{fill:#261A13;}
	.st4{fill:#EAA028;}
	.st5{fill:#F9E7C4;}
	.st6{fill:#FABDAD;}
	.st7{fill:#5E3C19;}
	.st8{fill:#FCF1D7;}
	.st9{fill:#FEF4DB;}
	.st10{fill:#3C240C;}
	.st11{fill:#D17F70;}
	.st12{fill:#39221D;}
	.st13{fill:#936841;}
	.st14{fill:#452A10;}
	.st15{fill:#FBBEAD;}
	.st16{fill:#FC9C86;}
</style>
<g class="st0">
	<path class="st1" d="M749.3,40.3c28.4,7,52.9,20.1,70.8,44.1c28.4,38.2,29.9,89.4,3.7,129c-25.9,39.2-73.6,58.3-119.1,47.7
		c-46.1-10.7-80.5-49.1-86.1-96.2c-6.7-55.8,28.2-107.1,82.7-121.8c3.1-0.8,6.1-1.9,9.2-2.9C723.5,40.3,736.4,40.3,749.3,40.3z"/>
	<path class="st1" d="M625.3,460.2C609,482,594.4,504.3,581,527.4c-10.7,18.5-20,37.7-28.4,57.3c-6.3,14.6-15.4,26.1-31.4,30.6
		c-5.7,1.6-7.5,6.8-10,11.2C471,697,430.9,767.5,390.7,838c-22.4,39.3-44.7,78.7-67.3,117.9c-3.2,5.5-3.9,9.8-0.9,16
		c9,18.5,4.8,38.5-9.7,51.3c-14.7,12.9-35.9,14.8-52.3,4.6c-16.6-10.4-23.9-29.6-18-49.9c1.9-6.6-0.2-9.2-5.5-12.1
		c-14-7.5-27.7-15.3-41.5-23.2c-17.7-10.1-20.2-18.8-10.2-36.5c31.3-55.5,62.7-110.8,94.1-166.2c13.5-23.9,27-47.8,40.5-71.8
		c9.7-17.2,19.5-19.9,36.6-10.3c20,11.2,40.1,22.3,59.9,33.8c5.8,3.4,8.9,2.9,12.2-3c14.7-26.6,29.6-53.1,44.5-79.5
		c2.3-4,2.7-7.5-0.1-11.7c-9.9-14.8-9.4-30.3-2.7-46.2C494.7,493.3,528,440.8,566,391c24-31.4,49.6-61.3,77.5-89.2
		c42.7-42.7,100.5-46.4,148.4-9.2c24.2,18.8,46.8,39.8,70.8,58.9c36.2,28.6,74.5,53.7,119.9,65.7c10.9,2.9,22.3,3.9,33.2,6.8
		c20.3,5.4,34.5,26.6,32,46.3c-3,23.2-21.1,39.8-43.9,39.9c-12.6,0-25.1-2.5-37.4-4.6c-45.8-8-88.6-23.5-126.3-51.4
		c-1.7-1.3-3.7-3.9-5.7-1.9c-1.2,1.2-1.1,4.3-0.9,6.4c2.1,24.8,4.6,49.5,6.5,74.3c1.7,21.9,4.7,43.7,5.1,65.7
		c0.3,15.4-3.5,29.5-12,42.2c-3.9,5.8-3.4,10.3,0,15.9c57.3,94.4,105.6,193.4,150.7,294c16.2,36.1,0.8,71.8-35.4,81.8
		c-25.9,7.1-52.3-5.4-64.9-31.6c-12.5-25.9-23.9-52.3-36.2-78.3c-30.4-63.8-62.1-126.7-98-187.4c-5.4-9.2-6-9.2-11.3,0.3
		c-36.4,65.6-70,132.6-104.8,199c-12,22.9-24,45.8-36.7,68.3c-14.5,25.7-41,36.9-66.3,29.2c-33.4-10.2-50-47.2-33.7-78.9
		c17.1-33.3,36.1-65.7,54.2-98.6c34.4-62.6,68.7-125.2,103.3-187.7c3.9-7,4.7-12.1-0.8-18.9c-10.2-12.8-13.4-28.5-14.8-44.4
		c-4.1-47-8-93.9-12.1-140.9C626.4,462.1,626,461.6,625.3,460.2z M296.7,991.9c-0.2-7.8-6.8-14.1-14.5-13.8
		c-7.8,0.3-13.7,6.9-13.4,14.9c0.3,7.5,6.3,13,14,13C290.9,1006,296.9,999.8,296.7,991.9z"/>
</g>
<g>
	<rect x="987" y="-3597" class="st2" width="1920" height="1080"/>
	<g>
		<path class="st3" d="M1549.6-3101.7c-0.2-11.9-0.6-23.7-0.4-35.6c0.3-23.7,5.4-46.5,12.4-69c1.9-2.2,2.9-4.7,2.8-7.6
			c4.2-7.9,8.4-15.7,12.6-23.6c5.5-7.1,10.6-14.5,16.5-21.3c39.1-44.6,86.3-78.5,139.5-104.4c3-1.5,7.4-1.5,8.1-6.1
			c4,2.2,6.7-0.6,9.7-2.6c44.6-18.8,91.9-28.2,138.8-38.8c1.4-0.2,2.7-0.4,4.1-0.6c7.4,0.2,14.6-0.4,21.8-2.3
			c40.1-3.7,80.2-4.6,120,2.5c40.1,7.2,80.6,13.6,114.7,39c9.3,9.2,18.7,18.3,26,32.9c0.5-9.9,0.1-16.4-3.7-22.2
			c1.9-5.5,3.9-4.4,5.7,0c3,7.1,3,14.7,3.1,23.1c7.4-0.6,12.9-7.3,20.4-4.8c-1.3,5.7-7,3.5-9.9,7.2c2.8,2.3,6.4,2.4,9.6,2.4
			c43.3-0.3,70.8,25.2,93.1,58c13.3,19.6,19.7,42.4,25.8,65.1c0.3,1.1,0.6,2.2,0.9,3.3c1,5.9,2,11.8,3,17.6
			c1.9,29.8,4.6,59.7-5.4,88.8c-1.5,4.4,0.7,4.7,4,5.1c24.7,3.1,42.1,17,55,37.6c16.2,37.6,8.7,71.6-15.3,103.1
			c-1.3,1.3-2.6,2.5-3.9,3.8c-4,3.1-8,6.2-12.1,9.2c-17.8,8.2-35.7,11.6-53.9-0.5c-4.2,14.7-8,28.5-13.3,41.8
			c-16.4,41.5-40.9,77.8-70.1,111.1c-18.6,18.5-38.3,35.6-59.6,50.9c-23.1,14.2-46.9,27.1-72.7,36.2c-43,15.3-87.4,19.2-132.6,15.8
			c-4.7-0.6-9.3-1.1-14-1.7c-2.8-0.4-5.6-0.7-8.4-1.1c-17.4-3.4-34.2-9.7-52-11.4c-0.8-3.6-3.8-3.7-6.6-4c-4-2.6-8.4-3.9-12.9-4.8
			c-14.8-7.4-30-14.2-44.5-22.2c-43.3-23.9-79.2-56.4-109.7-95.2c-2.4-3.5-4.7-6.9-7.1-10.4c-2.2-3.6-4.3-7.3-6.5-10.9
			c-5.3-8.5-4.4,0.1-5.9,2.2c-17,24.8-41.2,31.1-69.2,18.5c-27.1-12.2-59.2-52.6-51.7-92.4c6.7-27.4,22.8-47.7,47.6-60.7
			c-6.1-7.8-11.9-14.6-17-22c-16.8-24.4-26.1-52-33.2-80.4c-1.2-6.2-0.2-12.9-4-18.5C1549.4-3101.6,1549.6-3101.7,1549.6-3101.7z
			 M1613.4-2983C1613.4-2983,1613.4-2983,1613.4-2983c7.6,7,16.5,13.1,22.3,21.4c6.4,9.2,11,10,17.1,1c6.3-9.2,9.8-4.1,12.9,2.3
			c1.2,2.5,1.3,5.5,1.9,8.3c0.6,2.5-1.4,6.7,2.6,7.1c3.5,0.3,3.6-3.8,4.7-6.3c7.6-19,2.8-37.4-2.8-55.8c0-2.1,0-4.2-0.1-6.3
			c0.1-29.2-0.4-58.4,4.3-87.4c4.2-26,15.5-45.3,42.7-52.5c13.5-3.6,26.7-8.1,40.1-12.2l0,0c1.4,0,2.9,0.1,4.3-0.1
			c30.3-6,60.5-12.4,91.2-15.9c10.1-1.2,20.8-1.8,30.4-6.6c5.5-2.8,10.5-8.8,17.3-1.5c1.3,1.4,7,1.1,8.2-0.4
			c4.9-6.2,11.1-3,16.8-3.6c4.2-0.4,8.8,1.1,12.4-2.3l0.9,0l0.9,0c18-0.9,33.3-11.1,51.5-13c26.5-2.8,50.4-16.6,76.4-22.6
			c9.4-2.2,11.4-7.5,7.4-16c-1.2-2.5-4.8-6.3-0.3-7.9c3.3-1.2,5,3.2,6.2,6.2c0.4,1,0.8,2,1.1,3.1c2.1,6.5,5.7,7,11.6,4.1
			c6.5-3.3,4.6-6.8,1.5-11.1c-2.5-3.5-4.7-7.2-7.1-10.8c-1.4-2.1-3.9-4.5-1.1-6.5c2.7-1.9,4.6,1.3,6,3.1c3.1,4,5.7,8.3,8.5,12.5
			c1.9,2.9,3,8.1,7.4,6.1c5.4-2.4,0.6-5.8-0.6-8.8c-0.7-1.7-1.4-3.3-1.9-5.1c-0.7-2.9-5.1-6.3-1.4-8.5c4.3-2.5,5.9,2.6,7.7,5.6
			c8.6,14.5,13.6,30.1,14,47c0.3,10.1,0.4,20.3-2.2,32.1c10.6-5.5,15.1-12.8,17.1-21.3c5.6-23.1,4-45.1-11.9-64.4
			c-1.8-2.2-4.7-4.7-1.5-7.3c3.1-2.4,5.1,0.6,6.9,2.9c13.7,17.2,20.5,36.2,16,58.4c-0.7,3.5-2.1,7.6,1.8,10.7
			c3.7-2.9,5.2-6.7,6.2-10.5c4.9-17.9,4.4-35.1-7.8-50.3c-2.1-2.7-4.5-5.7-1.7-8.6c3.3-3.5,5.8,0.3,8,2.4
			c13.2,12.8,23.9,27,25.4,46.2c0.5,6.7,0.5,13.5,3.4,20c14.2-16.6,12.9-42.8-2.6-60.2c-2.2-2.5-6.9-5.3-3.1-8.7
			c3.6-3.3,6.5,1.4,8.7,3.9c3.5,4.1,6.3,8.7,9.4,13.1c1.9,2.7,1.1,7.6,6.2,7.9c0,0.6-0.1,1.2-0.1,1.7c-3.3,12.5-3.3,24.9,0.1,37.4
			c0,1.3,0,2.6,0,3.9c-1.7,1.6-1.9,3.8-2,6c-0.4,38.2,7,75,19.3,110.9c5.6,16.4,14.5,31.4,28.1,42.9c3,2.5,6.5,6.3,9,0
			c3.1-8.1,7.9-7.6,14.6-4.6c7.3,3.3,15.3,9.7,21.6-2c0.8-1.5,3.7-2,5.8-2.6c11.7-3,12.3-5.5,3.8-15.9c0-1.2-0.1-2.5-0.1-3.7
			c2.8-7.9,1-16.1,4.8-24.6c7.1-16.1,8.2-34.3,8-52c-0.2-29-4.2-57.3-14.8-84.6c-19.2-49.5-47.7-88.3-106.8-88.8
			c-17.1-0.2-26.3-5-34.9-20.8c-14.2-25.8-41.2-35.8-68.3-44c-51.4-15.5-104-20.2-157.4-18.1c-10,0.4-17.3,4.1-21.8,13.2
			c-3.6-1.1-4-6.1-8.1-6.7c-5.4-3.6-11-2-16.7-0.7c-13.3,3.1-26.6,6.9-40.1,9.1c-38,6.4-74,18.9-108.8,35
			c-41.2,19.1-78.6,43.9-112.7,74c-27.2,24.1-50.7,50.9-61.8,85.8c-21.9,68.3-12.3,133.2,25.2,194c4.7,7.5,10.2,14.3,20.8,11.6
			c0,2.8,0,5.6,0.1,8.4C1612.1-2984.6,1611.8-2983.8,1613.4-2983z M2106.5-3232.8c-8.6-4.2-13.9,1.7-19.5,6.4
			c-1.5,0.1-2.9,0.1-4.4,0.2c-12.6,3.5-24.9,7.8-36.8,13c-2.2,0.3-4.7-0.2-6.3,2c-7.2,0.5-13.6,3-19.7,6.8c-2.7,0.2-5.4,0.3-8.1,0.5
			c-21.7,5.8-43.5,11.7-65.2,17.5c-2.3-0.3-4.7-1.3-6.8,0.6c-9.4,1.9-18.8,3.9-28.2,5.8c-3.7,0.2-7.6-1.4-11.1,1.2
			c-22.7,4.7-47.2,1.4-68.2,14.2c-0.5,0.3-1.4-0.3-2.1-0.2c-0.4,0.1-0.8,0.6-1.2,0.9c0.5-0.2,1.3-0.3,1.5-0.7
			c0.9-1.8,1.3-3.7-1.5-3.8c-2.5-0.1-5,0.5-7.5,0.8c-16.5,1.9-32,8.2-48.9,9.8c-16.3,1.5-32.2,8.3-48.3,12.1
			c-26.2,6.3-38.7,23.9-41.4,49.4c-4,37.5-7.1,74.8,1.5,112.4c5.7,25-4.7,51-22.4,61.7c-2,1.2-4.1,3.8-6.6,1.4
			c-1.8-1.8-0.5-4,0.3-6.1c1.8-4.7,4.9-9.2,3.6-15.8c-5.1,4.5-7.4,10.4-13.5,12.1c5-7,11.8-12.7,11.3-22.7c-5.4,1.3-7.8,5.8-11.9,8
			c-3.6,2-6.6,3.3-8.3-2.1c-3.4-10.6-12.1-16.7-19.9-23.7c-5.9-5.3-10.6-4.3-16.2-0.6c-25.9,16.8-42.7,39.9-38.8,71.3
			c4.1,33.1,23.4,57.7,55.2,69.5c34.2,12.7,61.7-9.9,58-46.2c-0.3-2.8-3.2-7.4,1.8-8c4.2-0.5,3.8,4.4,4.3,7.5
			c1.2,7.6-0.4,15.3,4.5,22.8c65.6,100.4,158.5,155.6,277.6,162.4c167.4,9.5,292.9-124.3,322.2-248.4c1.1-4.6,1-8.1-2.1-11.9
			c-5.1-6.2-8.3-13.5-9.9-21.5c-0.5-2.8-2.1-6.4,1.9-7.3c3.6-0.8,3.4,3,3.8,5.3c7.8,36.7,47.1,49.7,77.5,17.1
			c21.1-22.6,28.5-50.5,21-80.7c-6.7-26.8-24.7-43.6-52.2-49.3c-3-0.6-7.4-2.4-9.1,0.6c-2.1,3.6-2.1,8.4,2.1,11.6
			c-0.2,1.6-0.4,3.1-0.7,4.7c-2.4,7.1,5.2,12.6,3.3,19.7c-1.2,0.9-2.5,1.9-3.7,2.8c-2.2,0.1-4.4,0.2-6.6,0.3c-2.3-1-4.5-1-6.8,0.1
			c-4.8,0.8-5.3,4.6-5.2,8.2c0.2,11.5-4.7,8.6-10.7,4.1c-5.4-4-10.7-8.5-17.9-9.2c-1.3,12.5-4.9,14.4-15.9,8.5c-4.8-2.6-9-6-12.7-10
			c-12.3-13.2-20.8-28.7-26.1-45.8c-9.8-31.5-16.4-63.6-16.4-96.8c0-4.4,0-8.9,0-15.7c-5.1,6.1-8,10.2-11.5,13.6
			c-3,2.9-6.2,8.4-10.3,6.4c-5.4-2.6-0.5-7.8,0.3-11.5c3.6-16.8,1.4-34.9-6.1-43.7c-0.5,5.9-0.7,11.7-1.4,17.3
			c-2.7,19.5-34.6,51.7-53.5,54.1c-1.9,0.2-3.9,0.4-4.7-1.5c-1.1-2.3,1-4.1,2.1-5.8c11.3-18.3,10.7-37.8,5.2-57.6
			c-0.6-2.1-0.5-5.5-4.3-5.1c-4,0.4-6,2.3-4.5,6.6C2109-3233.1,2107.8-3233,2106.5-3232.8z"/>
		<path class="st4" d="M1553.4-3083.1c7.2,28.4,16.4,56,33.2,80.4c5.1,7.4,10.9,14.2,17,22c-24.9,13.1-40.9,33.3-47.6,60.7
			c-3.4,7.9-8.6,6.8-15.2,3.9c-26.1-11.8-47.6-29.6-60.7-54.5c-19.9-37.4-5.3-77.9,33.2-99c9.4-5.2,19.3-9.6,28.7-14.8
			C1546.5-3086.9,1549.9-3086.6,1553.4-3083.1z"/>
		<path class="st4" d="M2377.9-3058.1c-12.8-20.5-30.2-34.5-55-37.6c-3.3-0.4-5.5-0.7-4-5.1c9.9-29.1,7.3-58.9,5.4-88.8
			c2.4-5,5.7-8.3,11.7-5.8c23.8,9.9,49.3,17.1,67.9,36.2c9.6,9.8,16.1,21.8,12.6,36.9c-5.3,23-20.5,40-34.1,58.1
			C2380.9-3062.2,2379.4-3060.2,2377.9-3058.1z"/>
		<path class="st5" d="M1922.1-2689.5c2.8,0.4,5.6,0.7,8.4,1.1c6,9.4,11.2,19.5,18.1,28.1c8.6,10.8,18.6,19.4,33.9,21
			c24.5,2.5,48.9,3.2,73.4-0.3c19.6-2.8,38.1-8.6,53.6-21.3c16.4-13.5,28.7-30.6,37.9-49.4c11.6-23.8,30.5-41.2,51.9-53.8
			c35.1-20.6,74.2-31.1,115.1-34.3c12.8-1,26.7-1.5,35.1-13.5c7.1-10.1,11.4-21.2,11.8-34.1c0.9-35.1-2.1-70.1-2.6-105.1
			c1.3-1.3,2.6-2.5,3.9-3.8c2,1.3,2.9,3.2,2.8,5.5c-1.2,30.7,5,61.1,4.2,91.8c-0.3,11-2.2,22.3-5.3,32.9
			c-6.8,22.7-22.3,31.1-48.3,33.3c-54.2,4.5-105.1,18.3-144.1,59.8c-9.2,9.8-16.8,20.9-22.9,32.7c-23.3,44.9-60.1,67.4-110.5,68
			c-14.8,0.2-29.7-0.6-44.5,0.2c-23.8,1.2-40.4-9.7-53.3-28.6C1933.9-2669.2,1926.8-2678.6,1922.1-2689.5z"/>
		<path class="st5" d="M2172.4-3361.3c3.8,5.8,4.2,12.3,3.7,22.2c-7.3-14.6-16.6-23.7-26-32.9c5.1-8-2.3-13.3-4.3-19.7
			c8.8-4.7,2.1-10.4-0.2-13.9c-10-14.7-19.4-29.3-34.6-40.6c-26.4-19.6-55.4-29.6-87.2-29.5c-27.5,0.1-53.4,8.6-77.3,23.7
			c-19,12-33.7,29.3-52.8,40.8c-1.4,0.2-2.7,0.4-4.1,0.6c-4.9-9.3,5.7-11.4,8.9-13.8c21.3-16.5,41.2-35.6,66.5-46.1
			c40.7-16.9,81.7-17.6,122.6,0.6c21.5,9.6,39.8,23.1,53.6,42.2c13.6,18.7,21.4,40.2,28.5,61.9
			C2170.3-3363.9,2170.7-3362.2,2172.4-3361.3z"/>
		<path class="st5" d="M1564.5-3213.8c0,2.9-0.9,5.4-2.8,7.6c-10.3-17.7-13.7-37.7-17.4-57.3c-1.8-9.5-4.4-19-4.7-28.7
			c-1.5-50.6,24.3-94.3,69.7-115c24.5-11.2,50.3-11.5,76.3-0.9c23.4,9.5,45.3,21,65.3,36.4c-2.9,1.9-5.6,4.8-9.7,2.6
			c-4.1-0.3-7.7-1.6-10.3-5c-6.3-10-17.1-13.5-26.8-18.5c-17-8.8-35.1-16.1-54.4-16c-43.4,0.2-78.7,28.6-95.7,71.3
			c-9.3,23.1-7.3,47.5-3.2,71.4C1553.8-3248.3,1559.4-3231.1,1564.5-3213.8z"/>
		<path class="st5" d="M1676.9-2846.1c1.4-2.1,0.5-10.6,5.9-2.2c2.3,3.6,4.4,7.2,6.5,10.9c-6.7,8.5-3.4,18.9-5,28.3
			c-3.9,22.9-13.4,45-10,69c4,29,15.8,54.5,41.9,68.4c35.1,18.7,71.2,18.8,105.2-5.1c13.8-9.7,26.6-20.9,42.1-28.1
			c2.8,0.3,5.8,0.3,6.6,4c-17.5,10-33.6,22-50.1,33.4c-20.6,14.2-44.5,17.5-69,14.4c-25.9-3.3-49.2-13.6-63.6-36
			c-18.1-28.1-28.8-58.4-16.3-92.6C1678.6-2802.5,1681.7-2824,1676.9-2846.1z"/>
		<path class="st5" d="M1549.6-3101.7c0,0-0.2,0.1-0.2,0.1c-0.9,5-3.7,7.6-8.6,9.9c-24.8,11.6-50.2,22.1-69.3,43
			c-18.4,20.2-27.5,43.4-18.2,70.2c8.5,24.4,26.8,41.1,48.2,54.8c13.4,8.6,28,14.3,43.1,18.6c3.5,1,8.4,1.3,7.1,6
			c-1.4,5.2-7,3.6-10.2,2.3c-11.7-4.5-23.6-9.1-34.6-15.1c-23-12.6-42.9-28.5-56.3-52.1c-15.2-26.8-8.4-62.4,8.5-83.7
			c17-21.5,40.7-32.4,64.1-44.3c5.1-2.6,10.2-5.3,14.9-8.4C1542-3102.8,1545.6-3102.7,1549.6-3101.7z"/>
		<path class="st5" d="M2321.3-3207.2c-0.3-1.1-0.6-2.2-0.9-3.3c36.8,0.8,72.8,5.5,102.3,29.8c21.6,17.7,36.5,51.3,25,82.6
			c-1.8,5-5,8.8-8.8,12.2c-16.6,14.8-33.9,29-50.5,46.7c-2.3-8.1,1.4-12.5,5.4-16.9c11.3-12.3,24.3-22.6,37.2-33
			c11.3-9.1,16-30.9,12-44.7c-7-24.1-21.9-41.5-43.8-52.7c-16.4-8.3-34.3-12.2-52.6-14C2337.9-3201.3,2328.5-3200.5,2321.3-3207.2z"
			/>
		<path class="st6" d="M1911.5-3180.1c9.4-1.9,18.8-3.9,28.2-5.8c-0.8,4.7-7.8,5-7.7,11.3c7.8-0.9,11.2-6.3,14.5-11.9
			c21.7-5.8,43.5-11.7,65.2-17.5c-1.1,6.5-10.4,8.4-9.7,19.3c7.1-7.9,12.5-13.8,17.8-19.7c6-3.8,12.5-6.3,19.7-6.8
			c-1.6,5.9-8.2,9.6-8.8,18.7c8.3-6.5,12-13.4,15.1-20.8c12-5.2,24.3-9.5,36.8-13c1.3,14.2-4.9,27-8.3,40.4
			c9.3-12.1,14.3-25.3,12.6-40.6c5.7-4.7,11-10.6,19.5-6.4c4.1,17.7,3.5,34.7-9.1,49.9c14.8-5.5,19.6-27.2,12.8-50.3
			c-1.4-4.2,0.6-6.1,4.5-6.6c3.8-0.4,3.7,3,4.3,5.1c5.5,19.8,6.2,39.2-5.2,57.6c-1.1,1.8-3.2,3.5-2.1,5.8c0.9,1.8,2.9,1.7,4.7,1.5
			c18.9-2.4,50.8-34.6,53.5-54.1c0.8-5.7,1-11.4,1.4-17.3c7.5,8.8,9.7,26.8,6.1,43.7c-0.8,3.8-5.7,8.9-0.3,11.5
			c4.1,2,7.3-3.5,10.3-6.4c3.5-3.4,6.4-7.5,11.5-13.6c0,6.8,0,11.2,0,15.7c0,33.2,6.6,65.3,16.4,96.8c5.3,17,13.8,32.5,26.1,45.8
			c3.7,4,7.9,7.4,12.7,10c11,5.9,14.5,4.1,15.9-8.5c7.2,0.7,12.5,5.2,17.9,9.2c6.1,4.5,10.9,7.4,10.7-4.1c-0.1-3.6,0.5-7.4,5.2-8.2
			c2.3,1.2,4.5,1.5,6.8-0.1c2.2-0.1,4.4-0.2,6.6-0.3c-4,6.9-9.7,13.2-9.6,22.8c6.4-1.8,5.9-7.4,8.2-11c4-6.4,9.2-12.4,17.5-9.3
			c6.6,2.5,11,8.2,10.1,16.2c-0.6,5.3-3.7,9.2-7.2,12.9c-5.9,6.3-14,10.3-18.9,17.7c-2.6,3.9-6.4,7.8-3.7,12.7
			c2.6,4.7,7.8,6.3,13,6.6c3.5,0.2,8.8,0.9,8.9-3.5c0.1-4.6-5.1-2.1-7.9-2.5c-3.5-0.5-7.9,0.5-9.3-3.8c-1.2-3.7,2.5-5.7,4.7-7.9
			c6.3-6.5,13.1-12.4,19.2-19.1c9.3-10.4,8.4-23.9-1.5-31.5c-6.1-4.7-13.1-3.2-19.8-3.3c1.9-7.1-5.7-12.5-3.3-19.7
			c6.3,4.2,11.6,10.8,21,8.5c-6.8-4.4-13.6-8.8-20.4-13.2c-4.2-3.2-4.2-7.9-2.1-11.6c1.7-3,6.1-1.2,9.1-0.6
			c27.5,5.7,45.5,22.5,52.2,49.3c7.5,30.1,0.1,58.1-21,80.7c-30.4,32.6-69.7,19.6-77.5-17.1c-0.5-2.2-0.2-6.1-3.8-5.3
			c-4,0.9-2.4,4.5-1.9,7.3c1.6,8,4.8,15.2,9.9,21.5c3.1,3.8,3.2,7.3,2.1,11.9c-29.4,124.2-154.9,257.9-322.2,248.4
			c-119.1-6.8-212-61.9-277.6-162.4c-4.9-7.6-3.3-15.2-4.5-22.8c-0.5-3.1-0.1-8-4.3-7.5c-5,0.6-2.1,5.2-1.8,8
			c3.7,36.3-23.8,58.9-58,46.2c-31.8-11.8-51.1-36.4-55.2-69.5c-3.9-31.5,12.9-54.5,38.8-71.3c5.7-3.7,10.4-4.6,16.2,0.6
			c7.9,7,16.6,13.1,19.9,23.7c1.7,5.4,4.6,4.1,8.3,2.1c4-2.2,6.5-6.8,11.9-8c0.5,9.9-6.4,15.7-11.3,22.7c6.1-1.7,8.4-7.6,13.5-12.1
			c1.3,6.6-1.8,11.1-3.6,15.8c-0.8,2-2.1,4.3-0.3,6.1c2.5,2.5,4.6-0.2,6.6-1.4c17.6-10.7,28.1-36.6,22.4-61.7
			c-8.5-37.5-5.5-74.9-1.5-112.4c2.7-25.5,15.2-43.2,41.4-49.4c16.2-3.9,32-10.6,48.3-12.1c16.8-1.6,32.3-7.9,48.9-9.8
			c2.5-0.3,5-0.9,7.5-0.8c2.7,0.1,2.4,2.1,1.5,3.8c-0.2,0.4-1,0.5-1.5,0.7c0.4-0.3,0.8-0.8,1.2-0.9c0.7-0.1,1.6,0.5,2.1,0.2
			c21.1-12.8,45.5-9.5,68.2-14.2c-1.1,4.3-8.7,3.6-7.9,10.6C1900.2-3171,1906.5-3174.4,1911.5-3180.1z M1989.7-2961.5
			c-2.6,1.8-2.9-0.9-3.8-2.1c-2-2.6-3.2-8.5-7.4-5.7c-4.9,3.2,0.6,6.9,2.2,10c3.7,7,11.3,9.9,16.5,15.4c7.6,8.1,6.7,17.7-2.8,23.5
			c-3,1.8-6.8,2.5-10,4.1c-2.4,1.2-7.9-1-6.7,4.2c0.9,3.8,5.3,3,8.5,2.6c10.1-1.2,16.3-8.4,22.8-15.1c13.6,16.1,28.3,31.4,47.2,41.1
			c46.1,23.7,104.2,14.3,141.9-22.4c36.3-35.3,46-93.7,23.5-140.7c-22.7-47.3-69-72.5-123.7-64.5c-50.3,7.4-88.4,32.6-107.3,82
			c-2,5.2-3.2,10.7-4.8,16c-23.3-7.3-32.9-6.3-51.8,6.5c-3.6,2.5-5,2.3-7.4-1.1c-29.9-41.2-71.8-54-120.4-49.2
			c-57.5,5.6-98.8,45.3-106.9,101.6c-7.8,54.3,23.4,109.8,73.9,129.9c60.9,24.3,144.4,1.7,168.3-91.1c6-23.5,5.3-46.6-3.5-69.3
			c-5.8-15-4.3-18.2,11.1-24c9.5-3.6,19-3.9,28.7-0.5c4.9,1.7,7.9,4,7.3,10.1C1983.9-2987,1986.5-2974.2,1989.7-2961.5z
			 M1629.4-2914c-0.5-8.3-8.3-17.1-16.5-18.7c-8.4-1.7-15.8-0.3-20.3,8.3c-6.2,11.7-2.9,22.9,10,30.1c7.9,4.4,16.4,7.5,24.6,11.5
			c2.5,1.2,5.9,2.1,5.6,5.8c-0.3,3.6-3.1,5.6-6.3,6.7c-1.4,0.5-2.9,0.4-4.2,0.9c-1.7,0.6-3.8,1.2-3.3,3.5c0.7,2.9,3.4,2.5,5.3,1.9
			c6.3-2,12.9-4.3,14.6-11.5c1.7-7.4-4.9-9.7-9.8-12.5c-3.1-1.8-6.7-2.8-9.9-4.3c-5.9-2.8-12-5.2-17.4-8.7c-7.5-5-9.2-13.9-4.4-20.9
			c5.5-7.8,12.5-7.9,19.7-2.6C1621.3-2921.5,1625.1-2917.7,1629.4-2914z M1983.5-2826.3c0,0-2.2-0.4-4.3-0.3c-3,0.1-7.6-2.9-8.5,1.3
			c-1.1,5.1,4.5,4.6,7.7,5c20.4,2.7,39.5-0.9,56.7-12.7c2.2-1.5,6.2-2.9,4-6.4c-2.3-3.8-5.1-0.5-7.3,1
			C2017.7-2829.1,2002.4-2824.9,1983.5-2826.3z"/>
		<path class="st7" d="M1915.6-3395.9c4.5-9,11.8-12.8,21.8-13.2c53.4-2.1,106,2.6,157.4,18.1c27,8.1,54.1,18.2,68.3,44
			c8.6,15.7,17.9,20.6,34.9,20.8c59.1,0.6,87.6,39.3,106.8,88.8c10.6,27.3,14.6,55.7,14.8,84.6c0.1,17.7-0.9,35.9-8,52
			c-3.7,8.5-2,16.7-4.8,24.6c-4.7-5.3-6-12.3-9.1-21.2c-3.8,13.1,1.5,19.5,9.2,24.9c8.5,10.5,7.9,12.9-3.8,15.9
			c-2.1,0.5-5,1.1-5.8,2.6c-6.3,11.7-14.3,5.2-21.6,2c-6.7-3-11.4-3.5-14.6,4.6c-2.5,6.4-6.1,2.5-9,0
			c-13.7-11.5-22.5-26.5-28.1-42.9c-12.2-35.9-19.7-72.7-19.3-110.9c0-2.2,0.2-4.3,2-6c40.2,2.4,76.8,25.7,78.7,48.4
			c-21.1-14.1-44.7-16.6-68.7-19.7c0.1,4.6,2.7,5.2,4.6,5.5c23.9,3.6,48,6.5,67.5,23.1c1.1,1,3.8,1.4,5,0.8c2.6-1.4,0.8-3.8,0.2-5.7
			c-1.8-5.8-3.4-11.7-7.1-16.9c-19.8-27.3-47.1-39.2-80.1-39.4c-3.3-12.5-3.4-24.9-0.1-37.4c15.7-3,31.1-1.7,46,4.3
			c3.5,1.4,7.9,1.7,8.5,6.8c-11.3-0.5-21.5-8.9-33.7-4.2c16.7,4.5,32.6,11.1,49.1,16.1c5.3,2.6,9.3,6.1,10,14
			c-20.9-13.1-42.2-17.4-65.8-14c1.9,4.1,4.3,3.3,6.3,3.3c23.2,0.2,45.3,3.9,63.7,19.7c1.7,1.4,3.7,2.9,5.7,0.9
			c1.9-1.9,0.2-4.2-0.6-6c-5.2-12.6-13.4-23.4-24.5-31c-19.6-13.5-40.6-21.9-64.7-11.5c-5-0.3-4.2-5.2-6.2-7.9
			c-3.1-4.4-6-9-9.4-13.1c-2.1-2.5-5-7.2-8.7-3.9c-3.8,3.5,0.9,6.2,3.1,8.7c15.6,17.3,16.9,43.6,2.6,60.2c-2.8-6.5-2.9-13.2-3.4-20
			c-1.5-19.2-12.2-33.4-25.4-46.2c-2.2-2.1-4.7-5.9-8-2.4c-2.8,2.9-0.4,5.9,1.7,8.6c12.2,15.3,12.7,32.4,7.8,50.3
			c-1,3.8-2.4,7.6-6.2,10.5c-3.9-3.1-2.5-7.2-1.8-10.7c4.5-22.2-2.3-41.2-16-58.4c-1.8-2.3-3.9-5.3-6.9-2.9
			c-3.3,2.6-0.3,5.1,1.5,7.3c15.9,19.2,17.5,41.3,11.9,64.4c-2,8.5-6.6,15.8-17.1,21.3c2.6-11.8,2.4-21.9,2.2-32.1
			c-0.4-16.9-5.5-32.5-14-47c-1.7-2.9-3.4-8-7.7-5.6c-3.7,2.2,0.7,5.6,1.4,8.5c0.4,1.7,1.2,3.4,1.9,5.1c1.2,2.9,6,6.4,0.6,8.8
			c-4.4,2-5.5-3.2-7.4-6.1c-2.8-4.2-5.4-8.5-8.5-12.5c-1.4-1.8-3.3-5-6-3.1c-2.8,2-0.3,4.4,1.1,6.5c2.4,3.6,4.6,7.4,7.1,10.8
			c3.1,4.3,5,7.8-1.5,11.1c-5.8,3-9.5,2.5-11.6-4.1c-0.3-1-0.7-2.1-1.1-3.1c-1.2-3-3-7.4-6.2-6.2c-4.6,1.7-0.9,5.4,0.3,7.9
			c4,8.5,2,13.8-7.4,16c-26,6-50,19.7-76.4,22.6c-18.1,2-33.5,12.2-51.5,13c0.1-5.1-3.9-6.6-7.5-8.2c-14.7-6.1-29.2-12.6-44.1-18
			c-43.3-15.9-75.9-42.5-91.9-87.1c-6.6-18.4-4.9-35.5,4.3-52.5c1.4,0.7,1.9,0.8,1.9,1c0.2,2.1,0.6,4.3,0.5,6.4
			c-2.2,29.3,10,52.8,30.5,72.4c33,31.6,74.1,46.7,117.9,55.4c5.5,1.1,11.8,5.3,19.2-0.8c-38.4-6.4-73.5-17.3-105.9-36.5
			c-32-18.9-66.5-56.2-55.6-105.4c0.5-2,1.3-4.6-1.2-5.8c-2.5-1.2-4,1.2-5.4,2.7c-13.4,14.8-17.5,32.5-13.7,51.5
			c8.4,41.4,33.7,70.4,69.7,90.5c25.3,14.1,54,20.8,79.5,34.4c-3.7,3.4-8.2,1.9-12.4,2.3c-5.7,0.6-11.9-2.5-16.8,3.6
			c-1.2,1.5-6.9,1.8-8.2,0.4c-6.8-7.3-11.8-1.3-17.3,1.5c-9.6,4.8-20.3,5.4-30.4,6.6c-30.7,3.6-60.9,9.9-91.2,15.9
			c-1.4,0.3-2.9,0.1-4.3,0.1c0.4-4.5-1.9-6-6.2-7c-22.5-5.2-42.5-15.3-59.7-31.1c-26-23.9-40.4-52.2-35.8-88.3
			c0.3-2.6,3.3-6.1-0.7-7.5c-4.4-1.6-4.9,3.2-6.4,5.7c-20.9,37.5-8.6,87.4,17.2,115.8c10.1,11.1,22.1,19.6,37.9,20.8
			c1.8-0.1,4.1,0.3,4.7-1.7c0.8-2.6-1.6-3.7-3.6-4.6c-31.6-14.6-43.2-42.5-49.2-74.1c3.9,0.7,4.5,4.3,6.1,7
			c7.5,12.3,16.5,23.4,27.2,33.1c19.5,17.6,42.5,27.7,68.3,31.9c-13.3,4.1-26.6,8.6-40.1,12.2c-27.2,7.2-38.5,26.5-42.7,52.5
			c-4.7,29-4.1,58.2-4.3,87.4c-15,12.6-30.3,24.5-53.6,21.1c20.9-8.2,37.9-18.8,45.8-39.5c-14.2,16-29.3,30.5-50.9,35.9
			c-10.6,2.7-16.1-4.1-20.7-11.6c-37.6-60.9-47.1-125.7-25.2-194c11.2-34.9,34.6-61.7,61.8-85.8c34.1-30.1,71.5-55,112.7-74
			c34.8-16.1,70.8-28.5,108.8-35c13.5-2.3,26.7-6,40.1-9.1c5.6-1.3,11.3-2.9,16.7,0.7c-5,9.9-11.2,19.1-11.7,31
			c-1.4,34.3,18.1,56.8,42.5,76.1c36.2,28.6,80,38.7,123.5,49.3c1.6,0.4,3.6,0.6,4.7-2c-0.6-0.6-1.2-1.5-2-1.8
			c-2.7-0.9-5.5-1.8-8.3-2.4c-42.8-9.8-84.8-21.7-119.5-50.3c-20.6-17-36.7-36.9-36.3-65.7c0.1-9.8,4.7-20.6,10.1-25
			c-1.7,23.7,8.2,42,26.5,56.3c16.1,24.7,39.9,38.1,67.6,45.7c2.2,2.7,5.4,3.4,8.5,4.5c16.2,5.5,33,7.3,49.9,8.3
			c11.2,0.6,22.4,0.1,33.6,0.1c-3.3-5.4-7.3-4.1-10.9-4.3c-10.1-0.7-20.1-0.3-30.2-1.2c-17.3-1.6-33.8-6.7-50.7-9.8
			c-2.7-3.2-6.6-4.2-10.2-5.9c-20-9.3-39-19.8-50.7-39.7c-6-13.4-12.7-26.7-12.7-42.1c-4.2,10.9-2.3,21.2,1,31.7
			C1918.6-3362.5,1913.5-3377.9,1915.6-3395.9z M1606.9-3083c-0.3-3.2-1.7-5.7-5.1-6.1c-7.3-0.7-14.6-1.1-23.8-1.7
			C1586.9-3079.5,1597.7-3084.4,1606.9-3083c-0.9,8-8.1,8.3-13.4,10.4c-4.2,1.7-9.5-0.6-13.5,2.7c-2.3,0.2-4.6-3.3-6.9-0.5
			c-1.6,2,0.2,3.9,1.2,5.8c7.8,14.3,23.6,21.7,39.3,18c7.4-1.7,13.7-5.2,15.9-14.5c-13.7,11.6-27.5,15.3-43.2,2.9
			c25.8-2.9,30.5-5.6,34.2-19.8c-3.9,0.4-5,3.7-7.2,5.9c-6,5.9-12.4,10.9-21.5,6.4c6.2-3.2,13.5-4.3,18.4-9.8
			C1614.2-3080.1,1613.8-3083,1606.9-3083z M2215.5-3267.7c0.5,6.7,5.6,6,10.3,6.5c15.9,1.7,32.2,2.6,44.8,14.6
			c1.2,1.2,2.9,2.9,4.5,1.2c2.2-2.2,1.1-4.5-0.7-6.6c-0.5-4.6,0.2-9.3-1.5-13.9c-9.5-25-53.6-47.8-79.2-40.9
			c-1.8,0.5-3.7,1.1-3.6,3.2c0.1,2.1,1.9,2.9,3.8,3c5.8,0.1,11.6-0.5,17.3,0.3c11.8,1.8,24.5,1.4,32.7,12.7
			c-7.7-1.8-15.3-3.7-23-5.5c-2.3-0.5-4.6-0.4-4.8,2.5c-0.1,2.1,1.9,2.7,3.7,3c2.5,0.4,5,0.8,7.4,1.4c10.7,2.8,22.1,4.3,27.7,15.9
			c-17.4-4.6-34.9-8.3-53.8-5.3C2204.8-3268.9,2213.9-3276.1,2215.5-3267.7z M1613.4-3200.4c0.7,1.2,1.7,2.4,1.9,3.7
			c4.4,24.1,16.8,43.5,34.7,59.7c3.9,3.5,7.6,8.4,16.6,7.1c-30.1-24.8-51.4-52.3-46.4-92.4c7.1,2.9,4.4,10,6,15
			c9,28.4,24.1,50.8,54.2,59.9c4.8,1.5,9.9,3.1,15.9-1.8c-35.6-5.2-54.4-26.7-64.5-57.9c-5.5-16.8-5.5-34.1-5.3-51.4
			c0-2.7,1.6-6.7-1.8-7.7c-4.3-1.3-4.8,3.5-6.2,6c-11.1,20.2-15.4,41.6-11.5,64.6c5.7,33.9,21.7,60.9,52.4,77.9
			c2.1,1.2,5.1,3.5,6.8,0.9c2.4-3.8-2-4.7-4.2-5.8c-29.4-14.1-42.1-40.1-49.9-69.7C1611.3-3195.3,1610.7-3198.1,1613.4-3200.4z
			 M1641.6-3082c3.8-3.7,0.9-5.5-2-7.4c-28.5-19.4-46-45.9-51.7-80.1c-0.6-3.7-1-7.5-6.3-6.3c-1.9-11.3,1.6-21.4,6.3-31.4
			c3,16.9,5.9,33.5,11.9,49.3c9.2,24.2,24.6,42.1,50.2,49.8c4.2,1.3,8.5,3,13.4-1.7c-14-3.7-26.4-7.5-36.7-17.1
			c-18.5-17.3-26.5-39-30.5-62.9c-1.3-8.1-2.4-16.3-3.8-24.5c-0.3-1.6-0.4-3.9-2.6-4.4c-2.7-0.6-3.7,1.7-4.7,3.6
			c-4.1,8.4-7.8,17.1-8.6,26.6c-3.6,46.4,15.7,81.9,52.5,108.5c7.7,5.5,16.4,10.5,27.2,12.2
			C1653.8-3076.9,1641.9-3072.9,1641.6-3082z M1757.1-3265.8c4-0.3,4.6-2.5,3.4-6c-3.6-10.1-8.1-20-8.3-31.1c-0.1-3.9-3.3-4.1-6.4-4
			c-4.6-13.4,1.9-23.5,8.6-34.7c3.6,4.3,2.6,7.7,2.5,10.8c-0.9,30.2,13.5,53.9,34,73.5c29.2,27.9,65.3,44.6,103.3,57.3
			c3.2,1.1,6.4,3,10.7-0.8c-7.7-3-14.2-5.8-20.9-8.2c-37.7-13.9-72.6-32.4-99.8-63c-10.9-12.4-17.7-26.6-21.2-43.1
			c-3-14,0.4-27,2.7-42.9c-15.2,10.4-23.5,22.8-25.8,38.1c-3.7,24.7,3.3,47.3,18,67.3c23.1,31.3,55.3,50.3,89.8,66.1
			c2.8,1.3,5.8,2.6,8.9-1.4c-21.7-10.5-43.3-19.6-61.5-34.7C1780.1-3235,1764.1-3246.4,1757.1-3265.8z M2047.7-3246.6
			c-6.9-1.7-10.9-3-15-3.7c-36.7-6-71.6-17.3-104.3-35c-26.9-14.6-48.8-34.6-62.7-62.5c-5.2-10.5-5.5-20.7-0.6-31.2
			c1.2-2.5,6.8-4.5,2.5-7.7c-3.3-2.4-6.8,0.7-9.4,3.4c-12.2,13-17.6,28.3-13.1,45.7c7.7,30.1,26.2,52.6,51.4,70
			c32.5,22.4,69.7,32.8,107.1,42.9c6,1.6,12.3,7.7,21.3,1.7c-5.1-1.6-8.4-2.7-11.8-3.6c-33.4-9.3-66.9-18.3-97.7-34.9
			c-32.8-17.7-57.3-42.5-66-80.2c-2.5-11,0.2-21.1,7.2-33.2c0,12.5,0.9,22,5.6,30.7c15.5,28.9,38.6,50,67.4,65.4
			c31.8,17,66.8,24.7,101.2,34.3C2035-3243.1,2039.9-3243,2047.7-3246.6z M1701.1-3321.2c-23.5,21.9-30.5,51.6-15.3,77.8
			c19.9,34.2,51.6,55.7,86.3,73c1.2,0.6,2.9,0.3,3.3-2.5c-1.6-1.2-3.3-3.3-5.4-4.1c-16.5-6.2-30-17.4-43.5-28
			c-16.1-12.8-31.4-26.7-39.7-46.5c-6.9-16.5-5.2-35.5,4-45.6c2.9,34.2,25.8,55.5,50.3,75.7c22.6,18.7,73.3,39,84.6,33.2
			c-14.4-4.9-28.6-8.9-42.2-14.6c-35-14.6-63.7-36.7-81.7-70.9c-6.3-11.9-7.1-24-1.8-36.4
			C1701.3-3313.5,1703.8-3316.6,1701.1-3321.2z M2102.9-3338.7c0.2-1,0.5-2,0.7-3c-0.6-0.8-1.1-1.8-1.9-2.2
			c-30.4-15.1-61.5-10.5-92.7-2.8c-1.2,0.3-2.7,1.6-2.9,2.7c-0.5,2.3,1.7,3.2,3.3,3.5c6.3,1.3,12.8,2,19.1,3.3
			c27,5.6,53.1,13.5,75.4,30.7c2.4,1.8,5.3,6.2,7.9,2.5c2.3-3.2-2.4-5.2-4.9-7c-20.2-14.9-43.3-22.6-67.3-28.5
			c-5.1-1.2-11.2-0.7-15.8-5.6C2051.1-3350.2,2077.4-3350.6,2102.9-3338.7z M2136.2-3356.2c0.3-5.3-1.8-6.2-3.5-7.4
			c-24.8-17.5-52.7-24.5-82.8-23.6c-3.3,0.1-8.7-1.9-9.5,2.6c-0.9,5.2,4.8,5,8.4,6.1c32.4,9.8,63.8,21.4,86.3,48.7
			c1.2,1.5,2.7,3.7,5.9,1.3c-19.5-30-51.2-40.9-82.1-53.3C2087.1-3381.9,2112.2-3372.8,2136.2-3356.2z M2217.2-3152.7
			c9,1.9,18.1,3.1,27,5.1c9.2,2.1,18.2,4.7,26.3,9.6c7.5,4.5,16.7,7.2,20.6,19.2c-21.4-8-40.8-11.9-63.3-8.5
			c6,4.4,10.4,2.7,14.5,3.1c20.1,2,40.5,2.7,55.9,18.7c1.2,1.3,2.9,3,4.6,1.8c2.5-1.8,1.6-4.5,0.7-6.9
			c-4.6-10.9-11.7-19.5-21.5-26.4C2262.5-3150.9,2240.4-3154.2,2217.2-3152.7z M1653.9-3065.1c-6.4,1.3-6.8,4.2-7.9,6.3
			c-8.2,15.2-22.2,21.8-37.9,25.8c-3.2,0.8-8.5-1.7-9.1,3.2c-0.6,5.4,5,6.2,9,7.5c21.1,6.9,37.1-2.4,51.4-16.5
			c2.1-2.1,6.1-5.1,2.5-7.9c-3-2.3-4.3,2.4-5.9,4.5c-11.5,14-30.9,20.4-45.2,14.5C1629.3-3034.6,1646.1-3043,1653.9-3065.1z
			 M1967.7-3378.4c-4.2,6.6-1.3,11.9,1,16.2c16.3,30.8,41.6,50.8,75,60.7c2,0.6,4.6,1.9,5.4-1.1c0.7-2.6-1.9-3.4-4-4.1
			C2007.8-3317.5,1981.4-3340.1,1967.7-3378.4z M1773.5-3226.9c-12.6-9.4-22.8-16.4-30.4-26.9c-7.7-10.6-10.4-23.3-16.5-35.5
			C1720.9-3270.4,1750.7-3228.9,1773.5-3226.9z M1561-3115c11.7,5.8,22.4,11.7,32.6,18.6c1.6,1.1,4.1,3.3,5.6,0.9
			c1.9-2.9-1.4-4.5-3.3-5.7c-7.5-4.8-15.1-9.5-22.9-13.9C1569.8-3116.7,1566.3-3119.5,1561-3115z M2297.9-3060.7
			c-7.7-8.7-13.8-17.5-15.2-28.6c-0.3-2.3-0.9-4.6-3.8-3.9c-2.7,0.7-3,3.5-2.1,5.3c3.9,8.1,5.4,17.3,11.5,24.3
			C2290.3-3061.3,2292.4-3058.2,2297.9-3060.7z M2260.3-3072.5c0.7-0.5,1.5-1,2.2-1.5c-2.8-8-5.6-16-8.4-23.9
			c-0.5-1.4-1.6-2.4-3.3-2c-1.8,0.4-2.3,1.8-1.7,3.2C2252.5-3088.4,2253.7-3079,2260.3-3072.5z"/>
		<path class="st4" d="M1696.3-2827.1c30.4,38.8,66.3,71.3,109.7,95.2c14.5,8,29.6,14.8,44.5,22.2c-3.9,11.2-14.9,15-22.9,21.8
			c-10.1,8.7-21.5,15.2-35.1,17.9c-20.1,4-38.8,0-56.1-9.7c-18.6-10.5-34.6-23.2-43.5-44.6c-8.4-20.4-6.4-40.7-4.6-60.8
			C1689.7-2798.9,1688.6-2814.1,1696.3-2827.1z"/>
		<path class="st4" d="M1730.9-3374.2c2.6,3.4,6.2,4.8,10.3,5c-0.8,4.6-5.1,4.6-8.1,6.1c-53.2,25.9-100.3,59.8-139.5,104.4
			c-5.9,6.7-11,14.2-16.5,21.3c-5.1,0.1-5.5-4.3-6.3-7.5c-12.1-46.6-3.5-87.5,33-120.9c25.3-23.2,54.3-30.9,87.9-22.7
			C1705.3-3385.1,1717.1-3376.9,1730.9-3374.2z"/>
		<path class="st4" d="M2209.3-2789.6c29.2-33.3,53.7-69.6,70.1-111.1c5.3-13.4,9.1-27.2,13.3-41.8c18.2,12.1,36.1,8.6,53.9,0.5
			c4.7,0.3,5.8,3.3,5.8,7.4c0,30.6,1.1,61.1-8.6,90.9c-6.8,21.1-17.6,30-39.4,30.2c-28.8,0.2-56.5,5.4-81.8,20.2
			C2218.6-2790.9,2214.3-2789.1,2209.3-2789.6z"/>
		<path class="st4" d="M2145.9-3391.6c2,6.4,9.4,11.7,4.3,19.7c-34-25.3-74.6-31.8-114.7-39c-39.8-7.1-79.9-6.3-120-2.5
			c0.6-5.8,5.2-8.6,9-11.7c10.2-8.2,21.6-14.2,33.1-20.4c19.9-10.7,41.7-14.9,63.5-15.1c23.7-0.2,47.6,3.7,68.9,15.3
			C2113.3-3432.5,2134.6-3417.1,2145.9-3391.6z"/>
		<path class="st8" d="M2209.3-2789.6c4.9,0.5,9.3-1.3,13.4-3.7c25.3-14.8,53-20,81.8-20.2c21.8-0.2,32.5-9.1,39.4-30.2
			c9.7-29.8,8.6-60.4,8.6-90.9c0-4.1-1.1-7.1-5.8-7.4c4-3.1,8-6.2,12.1-9.2c0.5,35.1,3.5,70,2.6,105.1c-0.3,12.9-4.7,24.1-11.8,34.1
			c-8.4,12-22.3,12.5-35.1,13.5c-40.9,3.2-80,13.7-115.1,34.3c-21.5,12.6-40.3,30.1-51.9,53.8c-9.2,18.9-21.6,36-37.9,49.4
			c-15.5,12.7-34,18.5-53.6,21.3c-24.4,3.5-48.8,2.8-73.4,0.3c-15.2-1.5-25.3-10.2-33.9-21c-6.9-8.7-12.1-18.7-18.1-28.1
			c4.7,0.6,9.3,1.1,14,1.7c-0.8,12.9,10.5,27.2,25,33.8c19.1,8.7,38.8,10.8,59.6,9.2c35.3-2.7,63.9-17.8,87-43.7
			c11.7-13.1,19.5-29.3,31.7-42.2c2.5-2.7,2.7-5.8,2-9.1C2171-2754,2190.8-2771.1,2209.3-2789.6z"/>
		<path class="st4" d="M2149.7-2738.7c0.7,3.3,0.6,6.4-2,9.1c-12.2,12.9-20,29.1-31.7,42.2c-23.1,25.9-51.8,41-87,43.7
			c-20.8,1.6-40.5-0.5-59.6-9.2c-14.5-6.6-25.8-20.9-25-33.8c45.2,3.4,89.6-0.5,132.6-15.8
			C2102.8-2711.7,2126.6-2724.5,2149.7-2738.7z"/>
		<path class="st8" d="M1730.9-3374.2c-13.8-2.6-25.5-10.9-39.2-14.3c-33.5-8.2-62.5-0.5-87.9,22.7c-36.5,33.4-45.1,74.3-33,120.9
			c0.8,3.2,1.2,7.6,6.3,7.5c-4.2,7.9-8.4,15.7-12.6,23.6c-5.1-17.3-10.7-34.4-13.7-52.2c-4.1-24-6.1-48.3,3.2-71.4
			c17.1-42.6,52.3-71,95.7-71.3c19.4-0.1,37.4,7.2,54.4,16C1713.7-3387.7,1724.6-3384.2,1730.9-3374.2z"/>
		<path class="st8" d="M1696.3-2827.1c-7.7,13-6.6,28.1-7.9,42c-1.9,20-3.8,40.4,4.6,60.8c8.8,21.5,24.9,34.1,43.5,44.6
			c17.2,9.7,36,13.7,56.1,9.7c13.5-2.7,24.9-9.3,35.1-17.9c8-6.8,19-10.7,22.9-21.8c4.6,0.9,9,2.2,12.9,4.8
			c-15.5,7.2-28.3,18.4-42.1,28.1c-34,23.9-70.1,23.7-105.2,5.1c-26.1-13.9-37.9-39.4-41.9-68.4c-3.3-24,6.2-46.1,10-69
			c1.6-9.4-1.7-19.8,5-28.3C1691.6-2834,1694-2830.5,1696.3-2827.1z"/>
		<path class="st9" d="M2145.9-3391.6c-11.4-25.5-32.6-40.9-55.9-53.6c-21.3-11.6-45.2-15.5-68.9-15.3c-21.8,0.2-43.5,4.4-63.5,15.1
			c-11.5,6.1-23,12.2-33.1,20.4c-3.8,3.1-8.4,5.9-9,11.7c-7.1,1.9-14.4,2.6-21.8,2.3c19.2-11.5,33.9-28.8,52.8-40.8
			c23.8-15.1,49.8-23.7,77.3-23.7c31.8-0.1,60.8,9.9,87.2,29.5c15.2,11.3,24.6,26,34.6,40.6
			C2148-3402.1,2154.7-3396.3,2145.9-3391.6z"/>
		<path class="st10" d="M1939.7-3193.8c-25.6-13.7-54.2-20.3-79.5-34.4c-36.1-20.1-61.4-49.1-69.7-90.5c-3.8-19,0.3-36.7,13.7-51.5
			c1.4-1.5,2.9-3.8,5.4-2.7c2.5,1.2,1.7,3.7,1.2,5.8c-10.9,49.2,23.7,86.5,55.6,105.4c32.4,19.2,67.5,30.1,105.9,36.5
			c-7.4,6-13.6,1.9-19.2,0.8c-43.8-8.8-84.9-23.8-117.9-55.4c-20.5-19.6-32.7-43-30.5-72.4c0.2-2.1-0.2-4.3-0.5-6.4
			c0-0.2-0.5-0.3-1.9-1c-9.2,17-10.9,34.1-4.3,52.5c16.1,44.6,48.7,71.3,91.9,87.1c14.9,5.5,29.5,11.9,44.1,18
			c3.6,1.5,7.6,3,7.5,8.2c0,0-0.9,0-0.9,0L1939.7-3193.8z"/>
		<path class="st7" d="M1672.2-3005c5.6,18.4,10.4,36.8,2.8,55.8c-1,2.6-1.2,6.7-4.7,6.3c-4-0.4-2.1-4.6-2.6-7.1
			c-0.6-2.8-0.8-5.8-1.9-8.3c-3.1-6.5-6.6-11.5-12.9-2.3c-6.1,9-10.6,8.2-17.1-1c-5.8-8.3-14.8-14.4-22.3-21.4
			C1635.5-2983.5,1655.7-2989.4,1672.2-3005z"/>
		<path class="st10" d="M1915.6-3395.9c-2,18,3.1,33.4,16.5,46c-3.3-10.5-5.2-20.8-1-31.7c0,15.5,6.7,28.7,12.7,42.1
			c-1.7,2.5-4.3,2.1-6.8,2.2c-18.3-14.3-28.2-32.6-26.5-56.3c-5.4,4.4-10,15.2-10.1,25c-0.4,28.8,15.7,48.7,36.3,65.7
			c34.7,28.7,76.7,40.6,119.5,50.3c2.8,0.6,5.6,1.5,8.3,2.4c0.8,0.3,1.4,1.2,2,1.8c-1,2.7-3.1,2.4-4.7,2
			c-43.5-10.5-87.3-20.7-123.5-49.3c-24.5-19.3-43.9-41.8-42.5-76.1c0.5-11.9,6.7-21.1,11.7-31
			C1911.6-3402,1911.9-3397,1915.6-3395.9z"/>
		<path class="st10" d="M2206.7-3211c33.1,0.2,60.4,12.1,80.1,39.4c3.7,5.1,5.3,11,7.1,16.9c0.6,1.9,2.4,4.3-0.2,5.7
			c-1.2,0.7-3.9,0.2-5-0.8c-19.5-16.6-43.6-19.5-67.5-23.1c-1.8-0.3-4.4-0.9-4.6-5.5c24,3.1,47.5,5.6,68.7,19.7
			c-1.8-22.7-38.5-46-78.7-48.4C2206.7-3208.4,2206.7-3209.7,2206.7-3211z"/>
		<path class="st10" d="M2206.7-3250.2c24.1-10.3,45.1-1.9,64.7,11.5c11.1,7.6,19.2,18.4,24.5,31c0.8,1.8,2.5,4.1,0.6,6
			c-2,2-4.1,0.5-5.7-0.9c-18.4-15.8-40.5-19.5-63.7-19.7c-2,0-4.4,0.8-6.3-3.3c23.6-3.4,44.9,0.9,65.8,14c-0.8-7.9-4.8-11.4-10-14
			c-1.7-8.4-9.4-9-15.4-11.8c-0.6-5.1-4.9-5.4-8.5-6.8c-14.9-6.1-30.2-7.3-46-4.3C2206.7-3249,2206.7-3249.6,2206.7-3250.2z"/>
		<path class="st11" d="M2321.2-3052.6c6.8,0.1,13.7-1.5,19.8,3.3c9.9,7.7,10.9,21.1,1.5,31.5c-6,6.7-12.9,12.7-19.2,19.1
			c-2.2,2.2-5.9,4.2-4.7,7.9c1.4,4.3,5.8,3.3,9.3,3.8c2.8,0.4,8.1-2.2,7.9,2.5c-0.1,4.4-5.5,3.7-8.9,3.5c-5.2-0.4-10.3-1.9-13-6.6
			c-2.8-4.9,1.1-8.8,3.7-12.7c4.9-7.5,13-11.4,18.9-17.7c3.5-3.8,6.7-7.6,7.2-12.9c0.9-8-3.4-13.8-10.1-16.2
			c-8.2-3.1-13.4,2.9-17.5,9.3c-2.3,3.6-1.8,9.2-8.2,11c-0.2-9.6,5.5-15.8,9.6-22.8C2318.7-3050.7,2319.9-3051.6,2321.2-3052.6z"/>
		<path class="st10" d="M1672.2-3005c-16.5,15.6-36.6,21.5-58.8,22c0,0,0,0,0,0c0-0.8,0-1.6,0-2.4c0-2.8,0-5.6-0.1-8.4
			c21.6-5.4,36.7-19.9,50.9-35.9c-7.9,20.7-24.9,31.3-45.8,39.5c23.3,3.4,38.6-8.5,53.6-21.1
			C1672.1-3009.2,1672.1-3007.1,1672.2-3005z"/>
		<path class="st12" d="M2110.2-3233.2c6.8,23.1,2,44.8-12.8,50.3c12.6-15.2,13.2-32.2,9.1-49.9
			C2107.8-3233,2109-3233.1,2110.2-3233.2z"/>
		<path class="st12" d="M2087-3226.5c1.7,15.2-3.3,28.5-12.6,40.6c3.4-13.4,9.6-26.2,8.3-40.4
			C2084.1-3226.4,2085.5-3226.4,2087-3226.5z"/>
		<path class="st13" d="M2318.5-3076.9c6.8,4.4,13.6,8.8,20.4,13.2c-9.5,2.3-14.7-4.3-21-8.5
			C2318.1-3073.8,2318.3-3075.4,2318.5-3076.9z"/>
		<path class="st13" d="M2019.8-3204.5c-5.4,5.9-10.7,11.9-17.8,19.7c-0.7-10.9,8.6-12.8,9.7-19.3
			C2014.4-3204.2,2017.1-3204.3,2019.8-3204.5z"/>
		<path class="st13" d="M1911.5-3180.1c-5,5.7-11.4,9.1-18.9,11.9c-0.9-7,6.7-6.3,7.9-10.6
			C1903.9-3181.5,1907.8-3179.9,1911.5-3180.1z"/>
		<path class="st13" d="M2045.8-3213.3c-3,7.4-6.7,14.3-15.1,20.8c0.6-9.2,7.2-12.8,8.8-18.7
			C2041.1-3213.6,2043.6-3213,2045.8-3213.3z"/>
		<path class="st10" d="M2306.9-3072.5c-7.7-5.4-13-11.8-9.2-24.9c3.1,8.9,4.4,15.9,9.1,21.2
			C2306.8-3074.9,2306.9-3073.7,2306.9-3072.5z"/>
		<path class="st13" d="M1946.5-3186.5c-3.3,5.6-6.8,10.9-14.5,11.9c0-6.3,7-6.5,7.7-11.3
			C1941.8-3187.8,1944.2-3186.8,1946.5-3186.5z"/>
		<path class="st11" d="M2310.8-3049.5c-2.2,1.6-4.5,1.3-6.8,0.1C2306.3-3050.5,2308.6-3050.5,2310.8-3049.5z"/>
		<path class="st7" d="M1613.4-2985.4c0,0.8,0,1.6,0,2.4C1611.8-2983.8,1612.1-2984.6,1613.4-2985.4z"/>
		<path class="st12" d="M1989.7-2961.5c-3.3-12.7-5.8-25.5-4.5-38.6c0.6-6.1-2.4-8.4-7.3-10.1c-9.6-3.4-19.2-3.1-28.7,0.5
			c-15.4,5.8-16.9,9.1-11.1,24c8.8,22.7,9.6,45.8,3.5,69.3c-23.9,92.7-107.4,115.4-168.3,91.1c-50.5-20.1-81.7-75.5-73.9-129.9
			c8.1-56.3,49.4-96,106.9-101.6c48.6-4.8,90.4,8.1,120.4,49.2c2.5,3.4,3.8,3.6,7.4,1.1c18.9-12.7,28.5-13.8,51.8-6.5
			c1.6-5.3,2.8-10.8,4.8-16c18.8-49.4,57-74.6,107.3-82c54.7-8,100.9,17.1,123.7,64.5c22.6,47,12.8,105.4-23.5,140.7
			c-37.7,36.6-95.8,46.1-141.9,22.4c-18.9-9.7-33.6-25-47.2-41.1c0-2.5,0-5-0.1-7.5c13.7,15.9,27.7,31.6,46.1,42.2
			c52.6,30.5,125.6,11,156.9-41.8c32.8-55.3,15.9-127.9-37.5-160.4c-49.4-30.1-123.8-15.2-161.7,32.6
			c-13.6,17.2-21.9,36.4-22.3,58.7c-0.1,1.5-0.1,3-0.2,4.5c-0.8,2.3-0.9,4.6,0,6.8c0.3,2.2,0.6,4.3,0.9,6.5
			c-0.9,10.7,3.8,20.3,6.7,30.2C1992.4-2952.9,1992.2-2958.3,1989.7-2961.5z M1703.9-2937.8c0.1,1.7,0.2,3.4,0.3,5.1
			c-0.2,43.7,32,88.4,74.4,103.9c58.1,21.3,137.4-1.3,158.8-90.8c12.6-52.8-12.3-102.9-62-123.3c-37.8-15.5-75.8-14-112.4,4.3
			C1724.6-3019.6,1700.6-2977.6,1703.9-2937.8z"/>
		<path class="st11" d="M1629.4-2914c-4.3-3.8-8.1-7.5-12.3-10.6c-7.2-5.3-14.3-5.2-19.7,2.6c-4.8,7-3.1,15.9,4.4,20.9
			c5.4,3.6,11.5,6,17.4,8.7c3.3,1.6,6.8,2.5,9.9,4.3c4.9,2.8,11.4,5.1,9.8,12.5c-1.6,7.3-8.3,9.6-14.6,11.5
			c-1.9,0.6-4.6,1.1-5.3-1.9c-0.5-2.3,1.6-2.9,3.3-3.5c1.4-0.5,2.9-0.4,4.2-0.9c3.2-1.1,6-3.1,6.3-6.7c0.4-3.7-3.1-4.6-5.6-5.8
			c-8.1-3.9-16.7-7.1-24.6-11.5c-12.9-7.2-16.1-18.4-10-30.1c4.5-8.6,11.9-10,20.3-8.3C1621.1-2931,1628.8-2922.2,1629.4-2914z"/>
		<path class="st11" d="M1989.7-2961.5c2.5,3.2,2.6,8.6,8.3,8.8c5.6,5.8,12.4,11.1,11,20.7c0,2.5,0,5,0.1,7.5
			c-6.6,6.6-12.8,13.8-22.8,15.1c-3.2,0.4-7.6,1.2-8.5-2.6c-1.2-5.3,4.3-3.1,6.7-4.2c3.2-1.6,7-2.2,10-4.1
			c9.5-5.8,10.4-15.4,2.8-23.5c-5.2-5.5-12.8-8.5-16.5-15.4c-1.6-3.1-7.1-6.8-2.2-10c4.2-2.8,5.3,3.1,7.4,5.7
			C1986.9-2962.4,1987.1-2959.7,1989.7-2961.5z"/>
		<path class="st12" d="M1983.5-2826.3c19,1.4,34.3-2.8,48.3-12.2c2.2-1.4,4.9-4.7,7.3-1c2.2,3.5-1.8,4.9-4,6.4
			c-17.2,11.8-36.3,15.4-56.7,12.7c-3.2-0.4-8.7,0.2-7.7-5c0.9-4.2,5.5-1.2,8.5-1.3C1981.3-2826.7,1983.5-2826.3,1983.5-2826.3z"/>
		<path class="st10" d="M2047.7-3246.6c-7.8,3.6-12.6,3.4-17,2.2c-34.4-9.6-69.4-17.3-101.2-34.3c-28.7-15.3-51.8-36.4-67.4-65.4
			c-4.7-8.7-5.6-18.2-5.6-30.7c-6.9,12.2-9.7,22.3-7.2,33.2c8.7,37.6,33.2,62.5,66,80.2c30.8,16.6,64.3,25.6,97.7,34.9
			c3.4,0.9,6.7,2.1,11.8,3.6c-9,6-15.3-0.1-21.3-1.7c-37.3-10-74.6-20.5-107.1-42.9c-25.2-17.4-43.7-39.9-51.4-70
			c-4.5-17.4,0.9-32.7,13.1-45.7c2.6-2.7,6.1-5.8,9.4-3.4c4.3,3.2-1.3,5.2-2.5,7.7c-4.9,10.5-4.6,20.7,0.6,31.2
			c13.9,27.9,35.8,47.8,62.7,62.5c32.7,17.7,67.6,29,104.3,35C2036.7-3249.6,2040.7-3248.3,2047.7-3246.6z"/>
		<path class="st14" d="M1759.1-3163.4c-25.8-4.2-48.8-14.3-68.3-31.9c-10.7-9.7-19.7-20.8-27.2-33.1c-1.6-2.7-2.3-6.3-6.1-7
			c-1.3-4.6-2.7-9.2-4.1-14c-4.1,1.8-3.2,4.7-3,7c2.7,23.7,9.9,45.6,25.3,64.4c8.2,10,19.8,15.4,29.8,23
			c-15.8-1.1-27.8-9.7-37.9-20.8c-25.8-28.4-38.1-78.3-17.2-115.8c1.4-2.6,2-7.3,6.4-5.7c4,1.4,1,4.9,0.7,7.5
			c-4.6,36.1,9.8,64.4,35.8,88.3c17.2,15.8,37.2,25.9,59.7,31.1C1757.2-3169.4,1759.5-3167.9,1759.1-3163.4
			C1759.1-3163.4,1759.1-3163.4,1759.1-3163.4z"/>
		<path class="st10" d="M1757.1-3265.8c7,19.4,23,30.8,38,43.2c18.2,15,39.8,24.2,61.5,34.7c-3.1,4-6.1,2.7-8.9,1.4
			c-34.5-15.8-66.7-34.8-89.8-66.1c-14.8-20-21.7-42.6-18-67.3c2.3-15.3,10.5-27.7,25.8-38.1c-2.3,16-5.7,29-2.7,42.9
			c3.5,16.5,10.3,30.7,21.2,43.1c27.1,30.6,62,49.1,99.8,63c6.6,2.5,13.2,5.2,20.9,8.2c-4.3,3.9-7.6,1.9-10.7,0.8
			c-38-12.7-74.1-29.4-103.3-57.3c-20.5-19.6-34.9-43.3-34-73.5c0.1-3.1,1.1-6.5-2.5-10.8c-6.7,11.2-13.2,21.3-8.6,34.7
			c-0.4,2.7-0.8,5.4-1.2,8c-0.8,3.3-1.1,6.3,3.2,7.4C1748.4-3282,1752.6-3273.9,1757.1-3265.8z"/>
		<path class="st10" d="M1701.1-3321.2c2.7,4.7,0.2,7.8-1.2,11c-5.3,12.5-4.5,24.5,1.8,36.4c18,34.3,46.7,56.4,81.7,70.9
			c13.6,5.7,27.8,9.7,42.2,14.6c-11.3,5.8-61.9-14.5-84.6-33.2c-24.5-20.3-47.4-41.5-50.3-75.7c-9.3,10.1-11,29.1-4,45.6
			c8.3,19.8,23.7,33.7,39.7,46.5c13.4,10.7,26.9,21.9,43.5,28c2.2,0.8,3.9,2.9,5.4,4.1c-0.4,2.8-2.1,3.1-3.3,2.5
			c-34.7-17.3-66.4-38.8-86.3-73C1670.6-3269.6,1677.5-3299.4,1701.1-3321.2z"/>
		<path class="st10" d="M1641.6-3082c0.4,9.1,12.2,5.1,14.6,14.1c-10.8-1.7-19.5-6.7-27.2-12.2c-36.8-26.6-56.1-62.1-52.5-108.5
			c0.7-9.6,4.4-18.2,8.6-26.6c0.9-1.9,1.9-4.2,4.7-3.6c2.1,0.5,2.3,2.7,2.6,4.4c1.4,8.1,2.4,16.3,3.8,24.5c4,24,12,45.7,30.5,62.9
			c10.3,9.6,22.7,13.4,36.7,17.1c-4.8,4.7-9.1,3-13.4,1.7c-25.6-7.6-40.9-25.6-50.2-49.8c-6-15.8-9-32.4-11.9-49.3
			c-4.7,10-8.2,20.1-6.3,31.4c1.5,9.7,3,19.4,4.4,29.1c-0.8,3,0.3,4.6,3.3,5.2c1.5,3.6,3,7.2,4.5,10.7c-3,3.5-0.4,3.9,2.3,4.3
			c2.5,1.5,3.9,3.7,4.1,6.6c-2.9,3.5-0.3,3.9,2.4,4.3c0.7,0.8,1.3,1.6,2,2.3c-0.1,4.7,1.1,8.4,6.7,8.5c2.2,2.8,4.4,5.6,6.6,8.4
			c1.1,4.3,4.5,4.9,8.2,4.9C1631.3-3088.4,1636.5-3085.2,1641.6-3082z"/>
		<path class="st10" d="M1613.4-3200.4c-2.7,2.3-2.1,5.1-1.4,8c7.8,29.6,20.5,55.6,49.9,69.7c2.3,1.1,6.6,2,4.2,5.8
			c-1.6,2.6-4.7,0.3-6.8-0.9c-30.7-17-46.7-44-52.4-77.9c-3.9-22.9,0.4-44.4,11.5-64.6c1.4-2.6,1.9-7.3,6.2-6c3.3,1,1.8,5.1,1.8,7.7
			c-0.2,17.3-0.2,34.6,5.3,51.4c10.1,31.2,29,52.7,64.5,57.9c-6,4.9-11.1,3.3-15.9,1.8c-30.1-9.1-45.2-31.5-54.2-59.9
			c-1.6-5,1.1-12.1-6-15c-0.1-1.4-0.1-2.8-0.2-4.2c4.4-8.4,1.2-17.2,2-26.9c-7.6,10.4-9.8,17.8-8.3,26.9
			C1613.6-3217.7,1613.5-3209.1,1613.4-3200.4z"/>
		<path class="st10" d="M2243.8-3287.5c-8.1-11.3-20.9-10.9-32.7-12.7c-5.6-0.8-11.5-0.2-17.3-0.3c-1.9,0-3.7-0.9-3.8-3
			c-0.1-2.1,1.8-2.7,3.6-3.2c25.6-6.9,69.6,15.9,79.2,40.9c1.8,4.6,1,9.3,1.5,13.9c-12.4-6.6-24.5-13.7-39.1-14.3
			c-0.9-2.6-2-4.7-4.6-1.4c-5.1,0-10.1-0.1-15.2-0.1c-1.6-8.4-10.6-1.1-14.5-7.6c19-3,36.4,0.7,53.8,5.3c1.8,0.7,3.7,2.9,5.6,0.8
			c1.7-2,0.3-3.9-1-5.6C2255.1-3280.3,2249.1-3283.5,2243.8-3287.5z"/>
		<path class="st10" d="M2102.9-3338.7c-25.5-11.9-51.8-11.5-79.1-6.5c4.5,4.9,10.6,4.4,15.8,5.6c24,5.9,47.2,13.6,67.3,28.5
			c2.5,1.8,7.2,3.8,4.9,7c-2.6,3.7-5.5-0.6-7.9-2.5c-22.3-17.1-48.4-25.1-75.4-30.7c-6.3-1.3-12.8-2.1-19.1-3.3
			c-1.6-0.3-3.8-1.2-3.3-3.5c0.3-1.1,1.8-2.4,2.9-2.7c31.1-7.7,62.2-12.3,92.7,2.8c0.8,0.4,1.3,1.5,1.9,2.2
			C2103.4-3340.8,2103.1-3339.7,2102.9-3338.7z"/>
		<path class="st10" d="M2136.2-3356.2c-23.9-16.6-49.1-25.7-77.3-25.7c30.9,12.4,62.6,23.4,82.1,53.3c-3.2,2.5-4.7,0.2-5.9-1.3
			c-22.5-27.4-53.9-38.9-86.3-48.7c-3.6-1.1-9.3-0.9-8.4-6.1c0.8-4.5,6.1-2.5,9.5-2.6c30.1-0.8,58,6.1,82.8,23.6
			C2134.4-3362.3,2136.5-3361.4,2136.2-3356.2z"/>
		<path class="st10" d="M2217.2-3152.7c23.2-1.5,45.3,1.8,65,15.6c9.8,6.9,16.9,15.5,21.5,26.4c1,2.3,1.9,5.1-0.7,6.9
			c-1.8,1.2-3.4-0.5-4.6-1.8c-15.4-16-35.9-16.7-55.9-18.7c-4.1-0.4-8.6,1.3-14.5-3.1c22.5-3.4,41.9,0.5,63.3,8.5
			c-3.9-12-13.2-14.7-20.6-19.2c-8.1-4.9-17.2-7.5-26.3-9.6C2235.3-3149.6,2226.2-3150.8,2217.2-3152.7z"/>
		<path class="st10" d="M1653.9-3065.1c-7.8,22.1-24.6,30.5-43.2,37.3c14.3,5.9,33.7-0.5,45.2-14.5c1.7-2,2.9-6.8,5.9-4.5
			c3.7,2.8-0.3,5.7-2.5,7.9c-14.3,14.1-30.3,23.4-51.4,16.5c-4-1.3-9.6-2.1-9-7.5c0.5-4.9,5.9-2.4,9.1-3.2
			c15.8-4,29.7-10.6,37.9-25.8C1647.1-3060.9,1647.5-3063.8,1653.9-3065.1z"/>
		<path class="st13" d="M1600.2-3119.9c-0.2-2.9-1.6-5.1-4.1-6.6c0-1.8-0.5-3.4-2.3-4.3c-1.5-3.6-3-7.2-4.5-10.7
			c0.4-2.7-0.9-4.3-3.3-5.2c-1.5-9.7-3-19.4-4.4-29.1c5.4-1.2,5.7,2.6,6.3,6.3c5.7,34.1,23.2,60.7,51.7,80.1c2.8,1.9,5.8,3.8,2,7.4
			c-5.1-3.2-10.2-6.3-15.3-9.5c-1.4-3.9-4.5-4.8-8.2-4.9c-2.2-2.8-4.4-5.6-6.6-8.4c-0.5-4.2-3.1-6.8-6.7-8.5c-0.7-0.8-1.3-1.6-2-2.3
			C1602.6-3117.5,1602.1-3119.1,1600.2-3119.9z"/>
		<path class="st13" d="M1620-3226.4c0.1,1.4,0.1,2.8,0.2,4.2c-5,40.1,16.3,67.6,46.4,92.4c-8.9,1.2-12.7-3.6-16.6-7.1
			c-17.9-16.2-30.3-35.6-34.7-59.7c-0.2-1.3-1.3-2.5-1.9-3.7c0.1-8.7,0.2-17.3,0.3-26C1615.8-3226.4,1617.9-3226.4,1620-3226.4z"/>
		<path class="st13" d="M1705.5-3155c-9.9-7.6-21.5-13-29.8-23c-15.4-18.8-22.6-40.7-25.3-64.4c-0.3-2.2-1.2-5.1,3-7
			c1.4,4.8,2.7,9.4,4.1,14c6,31.6,17.6,59.5,49.2,74.1c2,0.9,4.3,2,3.6,4.6C1709.6-3154.6,1707.3-3155.1,1705.5-3155z"/>
		<path class="st10" d="M1591.7-3065.6c9.1,4.5,15.6-0.5,21.5-6.4c2.2-2.2,3.4-5.5,7.2-5.9c-3.6,14.2-8.3,16.9-34.2,19.8
			c15.7,12.4,29.5,8.7,43.2-2.9c-2.2,9.3-8.5,12.7-15.9,14.5c-15.7,3.7-31.5-3.7-39.3-18c-1-1.9-2.9-3.8-1.2-5.8
			c2.2-2.8,4.5,0.8,6.9,0.5C1582.3-3064,1587.4-3066.1,1591.7-3065.6z"/>
		<path class="st10" d="M1967.7-3378.4c13.7,38.3,40.1,60.9,77.4,71.8c2.1,0.6,4.7,1.4,4,4.1c-0.8,3-3.4,1.6-5.4,1.1
			c-33.4-9.9-58.7-29.9-75-60.7C1966.4-3366.5,1963.5-3371.8,1967.7-3378.4z"/>
		<path class="st3" d="M1937-3337.3c2.5-0.1,5.1,0.3,6.8-2.2c11.7,19.9,30.7,30.4,50.7,39.7c3.5,1.7,7.5,2.7,10.2,5.9
			c0,0.8,0,1.6,0,2.4C1976.9-3299.1,1953.1-3312.5,1937-3337.3z"/>
		<path class="st10" d="M2004.6-3291.5c0-0.8,0-1.6,0-2.4c16.9,3.1,33.4,8.2,50.7,9.8c10.1,0.9,20.2,0.5,30.2,1.2
			c3.7,0.3,7.7-1.1,10.9,4.3c-11.2,0-22.4,0.5-33.6-0.1c-16.9-1-33.7-2.8-49.9-8.3C2010-3288.1,2006.8-3288.8,2004.6-3291.5z"/>
		<path class="st10" d="M1773.5-3226.9c-22.8-1.9-52.6-43.5-46.9-62.3c6.1,12.1,8.8,24.8,16.5,35.5
			C1750.7-3243.3,1761-3236.3,1773.5-3226.9z"/>
		<path class="st13" d="M2215.5-3267.7c5.1,0,10.1,0.1,15.2,0.1c1.2,1.7,2.8,1.9,4.6,1.4c14.6,0.5,26.7,7.7,39.1,14.3
			c1.8,2,2.9,4.4,0.7,6.6c-1.7,1.6-3.3-0.1-4.5-1.2c-12.6-12-28.9-12.9-44.8-14.6C2221.1-3261.7,2216-3261,2215.5-3267.7z"/>
		<path class="st13" d="M2261.1-3237.3c6,2.8,13.7,3.5,15.4,11.8c-16.5-5-32.4-11.6-49.1-16.1
			C2239.5-3246.2,2249.8-3237.8,2261.1-3237.3z"/>
		<path class="st13" d="M2243.8-3287.5c5.3,4.1,11.3,7.2,15.6,12.6c1.4,1.7,2.8,3.7,1,5.6c-1.9,2.1-3.8-0.1-5.6-0.8
			c-5.6-11.6-17-13.1-27.7-15.9c-2.4-0.6-4.9-1-7.4-1.4c-1.9-0.3-3.9-0.9-3.7-3c0.2-2.9,2.6-3.1,4.8-2.5
			C2228.5-3291.2,2236.1-3289.4,2243.8-3287.5z"/>
		<path class="st13" d="M1757.1-3265.8c-4.5-8.1-8.6-16.2-9.3-25.7c0.6-3.2,0.4-6-3.2-7.4c0.4-2.7,0.8-5.3,1.2-8c3-0.1,6.3,0,6.4,4
			c0.2,11.1,4.7,21,8.3,31.1C1761.7-3268.3,1761.1-3266.2,1757.1-3265.8z"/>
		<path class="st13" d="M1561-3115c5.3-4.5,8.8-1.7,12,0c7.8,4.3,15.4,9.1,22.9,13.9c1.9,1.2,5.2,2.8,3.3,5.7
			c-1.5,2.4-4,0.1-5.6-0.9C1583.4-3103.3,1572.7-3109.3,1561-3115z"/>
		<path class="st10" d="M2297.9-3060.7c-5.5,2.5-7.6-0.6-9.6-2.9c-6.1-7-7.7-16.2-11.5-24.3c-0.9-1.8-0.6-4.6,2.1-5.3
			c2.9-0.7,3.5,1.6,3.8,3.9C2284.1-3078.1,2290.2-3069.4,2297.9-3060.7z"/>
		<path class="st13" d="M1591.7-3065.6c-4.2-0.5-9.4,1.7-11.8-4.2c4.1-3.3,9.3-1,13.5-2.7c5.4-2.1,12.6-2.5,13.5-10.5l0,0
			c6.9,0,7.3,2.9,3.2,7.5C1605.2-3069.9,1597.9-3068.8,1591.7-3065.6z"/>
		<path class="st13" d="M1606.9-3083c-9.2-1.4-20.1,3.5-28.9-7.7c9.2,0.6,16.5,1,23.8,1.7C1605.2-3088.7,1606.6-3086.2,1606.9-3083
			C1606.9-3083,1606.9-3083,1606.9-3083z"/>
		<path class="st10" d="M2260.3-3072.5c-6.5-6.6-7.8-15.9-11.1-24.2c-0.6-1.5-0.1-2.8,1.7-3.2c1.7-0.4,2.8,0.6,3.3,2
			c2.8,8,5.6,15.9,8.4,23.9C2261.8-3073.4,2261-3072.9,2260.3-3072.5z"/>
		<path class="st15" d="M2009-2932.1c1.4-9.6-5.3-14.8-11-20.7c-2.9-9.9-7.6-19.4-6.7-30.2c4.9-2.1,3.7,8.4,8.9,4.5
			c3.6-2.7,1.7-7.4,2-11.3c0.1-1.1,0-2.2,0-3.2c-0.8-23.6,7.1-43.8,23.8-60.6c1-1,2-2.1,3-3.1c1.3-1.4,2-3.3,0.9-4.9
			c-1.8-2.4-4-0.8-5.7,0.3c-2.1,1.4-4,3.1-5.6,5c-11.8,14.5-20.7,30.4-22.7,49.3c-0.4,3.5-0.6,6.7-5.4,6.2
			c0.5-22.2,8.7-41.5,22.3-58.7c37.9-47.7,112.3-62.7,161.7-32.6c53.3,32.5,70.3,105.1,37.5,160.4c-31.3,52.7-104.2,72.3-156.9,41.8
			C2036.8-2900.5,2022.7-2916.1,2009-2932.1z M2157.5-2985.2c-9.9-0.7-19.5,2-26.4,10.4c-6.4,7.7-7.2,16.2-1.5,24.9
			c6,9,21.7,13.6,36.4,9.8c9.9-2.6,19.8-6.3,21.1-18.6C2188.9-2974.9,2177.4-2985.2,2157.5-2985.2z M2094.3-2996.9
			c-0.4-6.7-4-10.8-10.7-10.9c-6.8-0.1-10.9,4.1-11,10.7c-0.1,6.7,4.1,11,10.7,11C2089.9-2986,2093.8-2990,2094.3-2996.9z
			 M2088.6-3035.2c3.6,0,7.2,0,10.8,0c2.2,0,4.7-0.3,4.7-3.1c0-2-1.9-3-3.8-3.1c-16.7-1-33.2-0.8-47.7,9.5c-2,1.4-4.9,3.3-3.4,5.9
			c1.7,3,4.3,0.9,6.5-0.4C2065.8-3032.8,2076.8-3035.8,2088.6-3035.2z"/>
		<path class="st15" d="M1703.9-2937.8c-3.3-39.8,20.7-81.8,59-100.8c36.6-18.2,74.6-19.8,112.4-4.3c49.7,20.4,74.6,70.5,62,123.3
			c-21.4,89.5-100.7,112.1-158.8,90.8c-42.3-15.5-74.5-60.2-74.4-103.9c6.7,0.1,4.1,5.4,4.8,8.8c0.4,2-0.2,4.9,2.9,4.8
			c2.5-0.1,3.3-2.4,3.5-4.7c0.2-1.8,0.2-3.6,0.1-5.4c-0.9-26.5,4.2-51,23.5-70.8c1.8-1.8,6.2-5,2.8-8c-3.2-2.8-5.8,1.3-7.9,3.5
			c-14.9,15.7-23.7,34.2-25.1,56.1C1708.6-2944.7,1712.1-2938.3,1703.9-2937.8z M1830.2-2924.4c-1.4,0-2.9,0-4.3,0
			c-14,0.5-26.8,11.4-29.1,24.8c-1.5,8.6,6.1,17.6,19.1,23.3c4.6,2,9.1,1.9,13.8,1.9c17.2-0.1,33.6-12.8,33.7-25.9
			C1863.4-2914.1,1849.2-2924.4,1830.2-2924.4z M1872.1-3004.6c-13.2,1.2-28.4,4.6-40.8,15.7c-2,1.8-5.8,3.7-3.6,6.8
			c2.4,3.2,5.1,0.1,7.3-1.6c13-10.3,28.1-13.7,44.2-14.4c2.5-0.1,6.8,1.4,6.8-2.8c0-3.5-3.9-3.5-6.8-3.7
			C1877.8-3004.6,1876.4-3004.6,1872.1-3004.6z M1874.4-2955.9c-0.7-6.7-4.2-11-10.9-11c-6.7,0-10.8,4.1-10.8,10.8
			c0,6.8,4.1,10.8,10.7,10.9C1870.2-2945.1,1873.7-2949.3,1874.4-2955.9z"/>
		<path class="st9" d="M1703.9-2937.8c8.2-0.5,4.7-6.8,5-10.7c1.4-21.9,10.1-40.3,25.1-56.1c2.1-2.2,4.8-6.3,7.9-3.5
			c3.4,3-1,6.2-2.8,8c-19.4,19.9-24.4,44.3-23.5,70.8c0.1,1.8,0,3.6-0.1,5.4c-0.2,2.3-1,4.6-3.5,4.7c-3.1,0.1-2.5-2.8-2.9-4.8
			c-0.7-3.4,1.9-8.7-4.8-8.8C1704-2934.4,1704-2936.1,1703.9-2937.8z"/>
		<path class="st9" d="M1990.6-3000.7c4.8,0.5,5-2.7,5.4-6.2c2.1-19,10.9-34.8,22.7-49.3c1.6-1.9,3.6-3.6,5.6-5
			c1.7-1.1,3.9-2.7,5.7-0.3c1.2,1.6,0.4,3.5-0.9,4.9c-1,1.1-2,2.1-3,3.1c-16.6,16.8-24.5,37-23.8,60.6c0,1.1,0.1,2.2,0,3.2
			c-0.4,3.8,1.6,8.5-2,11.3c-5.2,3.9-4-6.6-8.9-4.5c-0.3-2.2-0.6-4.3-0.9-6.5c4.4-2.3,4.3-4.6,0-6.8
			C1990.4-2997.7,1990.5-2999.2,1990.6-3000.7z"/>
		<path class="st15" d="M1990.4-2996.2c4.4,2.2,4.4,4.5,0,6.8C1989.5-2991.7,1989.6-2994,1990.4-2996.2z"/>
		<path class="st7" d="M1744.5-3298.8c3.6,1.4,3.8,4.2,3.2,7.4C1743.5-3292.5,1743.7-3295.6,1744.5-3298.8z"/>
		<path class="st7" d="M1604.7-3113.4c3.7,1.7,6.2,4.3,6.7,8.5C1605.8-3105,1604.6-3108.7,1604.7-3113.4z"/>
		<path class="st7" d="M1618-3096.5c3.7,0.1,6.8,1,8.2,4.9C1622.6-3091.6,1619.2-3092.1,1618-3096.5z"/>
		<path class="st7" d="M1593.8-3130.8c1.8,0.9,2.3,2.5,2.3,4.3C1593.4-3126.9,1590.8-3127.3,1593.8-3130.8z"/>
		<path class="st7" d="M1585.9-3146.7c2.4,0.9,3.7,2.5,3.3,5.2C1586.3-3142.1,1585.1-3143.8,1585.9-3146.7z"/>
		<path class="st7" d="M1600.2-3119.9c1.9,0.8,2.4,2.4,2.4,4.3C1599.9-3116,1597.3-3116.4,1600.2-3119.9z"/>
		<path class="st7" d="M1620-3226.4c-2.1,0-4.2,0-6.3,0.1c-1.5-9.1,0.7-16.6,8.3-26.9C1621.2-3243.6,1624.4-3234.9,1620-3226.4z"/>
		<path class="st7" d="M2235.3-3266.3c-1.8,0.5-3.5,0.4-4.6-1.4C2233.3-3270.9,2234.4-3268.8,2235.3-3266.3z"/>
		<path class="st16" d="M2157.5-2985.2c19.9,0,31.4,10.3,29.6,26.4c-1.3,12.3-11.2,16-21.1,18.6c-14.6,3.9-30.4-0.7-36.4-9.8
			c-5.7-8.7-4.9-17.2,1.5-24.9C2138.1-2983.2,2147.6-2986,2157.5-2985.2z"/>
		<path class="st3" d="M2094.3-2996.9c-0.5,6.9-4.4,10.9-11,10.9c-6.6-0.1-10.8-4.4-10.7-11c0.1-6.6,4.2-10.9,11-10.7
			C2090.3-3007.7,2093.9-3003.6,2094.3-2996.9z"/>
		<path class="st11" d="M2088.6-3035.2c-11.9-0.6-22.8,2.4-32.9,8.8c-2.1,1.4-4.7,3.5-6.5,0.4c-1.5-2.7,1.4-4.5,3.4-5.9
			c14.5-10.3,31-10.5,47.7-9.5c1.9,0.1,3.8,1.1,3.8,3.1c0,2.8-2.5,3.1-4.7,3.1C2095.9-3035.1,2092.3-3035.2,2088.6-3035.2z"/>
		<path class="st16" d="M1830.2-2924.4c19,0,33.2,10.3,33.1,24c-0.1,13.2-16.4,25.8-33.7,25.9c-4.7,0-9.3,0.1-13.8-1.9
			c-13-5.8-20.5-14.7-19.1-23.3c2.3-13.4,15.1-24.3,29.1-24.8C1827.3-2924.4,1828.7-2924.4,1830.2-2924.4z"/>
		<path class="st11" d="M1872.1-3004.6c4.3,0,5.7-0.1,7.1,0c2.9,0.2,6.8,0.2,6.8,3.7c0,4.2-4.3,2.7-6.8,2.8
			c-16.1,0.6-31.3,4-44.2,14.4c-2.1,1.7-4.9,4.8-7.3,1.6c-2.2-3,1.6-5,3.6-6.8C1843.7-3000,1858.9-3003.4,1872.1-3004.6z"/>
		<path class="st3" d="M1874.4-2955.9c-0.7,6.6-4.3,10.8-11,10.7c-6.7-0.1-10.8-4.1-10.7-10.9c0-6.7,4.2-10.8,10.8-10.8
			C1870.2-2966.9,1873.8-2962.6,1874.4-2955.9z"/>
	</g>
</g>
</svg>
