<?xml version="1.0" encoding="utf-8"?>
<!-- Generator: Adobe Illustrator 28.2.0, SVG Export Plug-In . SVG Version: 6.00 Build 0)  -->
<svg version="1.1" id="_Шар_2" xmlns="http://www.w3.org/2000/svg" xmlns:xlink="http://www.w3.org/1999/xlink" x="0px" y="0px"
	 viewBox="0 0 1087.1 924.3" style="enable-background:new 0 0 1087.1 924.3;" xml:space="preserve">
<style type="text/css">
	.st0{fill:#EAA028;}
</style>
<g>
	<path class="st0" d="M1036.9,504.6c-5.3,30.1-13.6,59.2-29.8,85.5c-37.6,60.8-91.4,97.1-162.4,107.4c-9.6,1.4-19.1,1.8-28.7,1.8
		c-180.9,0-361.8,0.2-542.7-0.1C169.5,699.1,78.7,628.1,58,526.3c-14.2-69.8-11.5-139.5,30.7-201.4c44-64.3,105.3-99.2,183.8-99.5
		c180.9-0.6,361.8,0.5,542.7-0.5c106.8-0.6,204.6,78.8,220.4,190.4c0.2,1.6,0.8,3.1,1.2,4.6C1036.9,448.2,1036.9,476.4,1036.9,504.6
		z M237.7,461.8c0,31-0.1,62.1,0,93.1c0.1,20.1,10.6,31.2,30.5,31.5c23,0.3,46.1,0.7,69.1-0.1c33.8-1.1,59.9-16.2,74.2-47.4
		c13.4-29.2,9.6-57.6-10-83c-5-6.5-5.6-11.1-2.2-18.6c20.7-46.5-13.4-98.9-64.1-99.3c-21.8-0.2-43.5-0.1-65.3,0
		c-21.7,0.1-32.1,10.7-32.2,32.6C237.6,401,237.7,431.4,237.7,461.8z M468,433.6c0,8.3-0.2,16.6,0,25c0.5,19.5-1.9,39.1,2.6,58.4
		c8.9,38.7,43.2,68.8,79.4,69.7c43.9,1.1,82.7-31,88.1-76.3c5.8-49,1.9-98.4,1.8-147.7c0-14-11.7-23.9-24.9-24.8
		c-17-1.3-29.6,10.5-29.7,28.7c-0.2,39,0,78.1-0.1,117.1c0,11.6-1.1,23-7.7,33.2c-12.4,19.2-34.7,19.3-47.1,0.1
		c-5.4-8.3-7.3-17.5-7.3-27.4c0.1-40.6,0.2-81.3,0-121.9c-0.1-18.1-11.5-29.9-28-29.8c-16,0.1-26.8,11.7-27,29.6
		C467.9,389.5,468.1,411.6,468,433.6z M737.8,506.7c0,22.1-0.4,37.2,0.1,52.2c0.6,19.8,16.5,32,35.2,27.7
		c12.9-3,20.6-14.3,20.8-31.8c0.3-21.8,1-43.6-0.2-65.2c-1-17.2,3.5-31.5,13.3-45.5c14.2-20.5,27.2-41.8,40.2-63.1
		c11.9-19.6,1.4-41.9-20.3-43.7c-12.2-1-20.8,4.9-27.1,14.8c-8.6,13.5-17.1,27-25.6,40.6c-7.9,12.6-8,12.6-15.7,0.5
		c-8.6-13.5-17-27.1-25.7-40.5c-10.2-15.7-26.5-20.1-40.2-11.2c-13.7,8.9-16.4,24.7-6.7,40.5c8.4,13.6,16.1,27.7,25.8,40.5
		C732.2,449.5,745.1,478.6,737.8,506.7z"/>
	<path class="st0" d="M320.9,480.9c6.4,0,12.8-0.3,19.2,0.1c13.5,0.8,23,11,22.9,24.6c0,13.6-9.4,24-23,24.5
		c-13.1,0.5-26.2,0-39.3,0.2c-5.7,0.1-8.1-2.4-8.1-8c0.1-11.2,0.1-22.3,0-33.5c-0.1-5.6,2.4-8.2,8.1-8c6.7,0.2,13.4,0,20.1,0
		C320.9,480.8,320.9,480.9,320.9,480.9z"/>
	<path class="st0" d="M318.3,424.5c-1.9,0-3.8,0-5.8,0c-20.3,0-23.7-4.5-19.7-25.1c0.9-4.5,3.5-5.9,7.3-6
		c11.8-0.1,23.7-0.4,35.5,0.4c9.2,0.6,14.3,7.5,13.8,16.3c-0.5,9-6,14.1-15.7,14.3C328.5,424.6,323.4,424.5,318.3,424.5z"/>
</g>
</svg>
