<?xml version="1.0" encoding="utf-8"?>
<!-- Generator: Adobe Illustrator 28.2.0, SVG Export Plug-In . SVG Version: 6.00 Build 0)  -->
<svg version="1.1" id="_Шар_2" xmlns="http://www.w3.org/2000/svg" xmlns:xlink="http://www.w3.org/1999/xlink" x="0px" y="0px"
	 viewBox="0 0 1087.1 924.3" style="enable-background:new 0 0 1087.1 924.3;" xml:space="preserve">
<style type="text/css">
	.st0{fill:#EAA028;}
</style>
<g>
	<path class="st0" d="M543.9,387.5c110.7,0,221.4,0,332.2,0c16.9,0,19.5,2.6,19.5,19.7c0,95.5,0.1,190.9-0.1,286.4
		c0,15.8,2.8,31.4,0.4,47.4c-8.5,55-61.1,95.1-116.3,87.6c-3.9-0.5-7.9-0.5-11.9-0.5c-149.5,0-298.9-0.2-448.4,0.2
		c-18.5,0-36.9,2.5-55.2-3.4c-49.6-16-79.4-62.1-73.1-113.9c0.5-3.9,0.4-7.9,0.4-11.9c0-97.3,0-194.6,0-291.9
		c0-17.1,2.6-19.7,19.5-19.7C321.8,387.5,432.8,387.5,543.9,387.5z M387.6,552.7c21.2,0.1,38.1-16.3,38.1-37.2
		c0.1-21.5-17.1-38.8-38.2-38.6c-20.8,0.2-37.7,17.3-37.7,38.2C349.8,536,366.5,552.6,387.6,552.7z M699.9,552.7
		c21.2,0.1,38.3-16.3,38.6-37c0.4-20.6-17.9-39.1-38.3-38.8c-21,0.3-37.5,17-37.6,38.1C662.6,536.5,678.4,552.6,699.9,552.7z
		 M388.1,633.7c-21.2-0.1-38.1,16.3-38.2,37.2c-0.1,21.2,17.4,38.9,38.2,38.6c20.9-0.3,37.6-17.2,37.7-38.2
		C425.8,650.4,409.3,633.8,388.1,633.7z M700,633.7c-21.5,0.1-37.4,16.1-37.4,37.6c0,21.1,16.5,37.8,37.5,38.2
		c20.4,0.4,38.7-18.1,38.4-38.7C738.3,650.1,721.2,633.7,700,633.7z M581.7,515c0-21-16.5-37.7-37.5-38.1
		c-19.9-0.4-38.3,17.7-38.4,37.9c-0.1,21.1,17.1,38.1,38.6,38C565.9,552.6,581.7,536.6,581.7,515z M544.4,633.7
		c-21.5-0.1-38.8,16.8-38.7,37.9c0.1,19.7,17.5,37.3,37.5,37.9c21,0.6,38.4-16.7,38.5-38.1C581.7,649.8,565.9,633.8,544.4,633.7z"/>
	<path class="st0" d="M543.2,330.3c-110.7,0-221.4,0-332.1,0c-17.2,0-19.1-2.6-20-19.4c-1.1-19.8-2.4-39.4,4.3-58.7
		c16.3-47.1,63-76,112.6-70.2c13.8,1.6,28,0.4,42,0.6c6.4,0.1,6.4-4.2,6.4-8.7c0-15.6-0.2-31.1,0.1-46.7c0.4-19,12.3-32,29.1-32.5
		c18-0.5,31.4,12,31.8,30.4c0.4,16.2,0.3,32.3,0,48.5c-0.1,6.7,2.1,9,9,9c78.1-0.2,156.2-0.2,234.2,0c7.2,0,8.8-3,8.6-9.3
		c-0.3-15.2-0.2-30.5-0.1-45.7c0.2-19.3,12.1-32.5,29.4-32.9c18.1-0.4,31,12.4,31.5,31.9c0.4,15.5,0.4,31.1,0,46.7
		c-0.2,7.2,2.5,9.8,9.6,9.4c15.2-0.8,30.4,0,45.7-1.3c64-5.6,119.3,53.4,110.6,117.1c-0.9,6.3-0.4,12.8-0.7,19.2
		c-0.4,8-4.7,12.3-12.7,12.6c-3,0.1-6.1,0.1-9.1,0.1C763.5,330.3,653.3,330.3,543.2,330.3z"/>
</g>
</svg>
