<?xml version="1.0" encoding="utf-8"?>
<!-- Generator: Adobe Illustrator 28.2.0, SVG Export Plug-In . SVG Version: 6.00 Build 0)  -->
<svg version="1.1" id="_Шар_2" xmlns="http://www.w3.org/2000/svg" xmlns:xlink="http://www.w3.org/1999/xlink" x="0px" y="0px"
	 viewBox="0 0 1087.1 924.3" style="enable-background:new 0 0 1087.1 924.3;" xml:space="preserve">
<style type="text/css">
	.st0{fill:#261A13;}
	.st1{fill:#EAA028;}
	.st2{fill:#F9E7C4;}
	.st3{fill:#FABDAD;}
	.st4{fill:#5E3C19;}
	.st5{fill:#FCF1D7;}
	.st6{fill:#FEF4DB;}
	.st7{fill:#3C240C;}
	.st8{fill:#D17F70;}
	.st9{fill:#39221D;}
	.st10{fill:#936841;}
	.st11{fill:#452A10;}
	.st12{fill:#FBBEAD;}
	.st13{fill:#FC9C86;}
</style>
<g>
	<path class="st0" d="M140.6,416.8c-0.2-12-0.6-24-0.4-36.1c0.3-24,5.5-47.2,12.6-69.9c1.9-2.2,2.9-4.8,2.9-7.7
		c4.3-8,8.5-16,12.8-23.9c5.6-7.2,10.8-14.8,16.8-21.6c39.7-45.2,87.5-79.6,141.4-105.8c3.1-1.5,7.5-1.5,8.3-6.2
		c4.1,2.2,6.8-0.6,9.8-2.6c45.2-19.1,93.2-28.6,140.7-39.3c1.4-0.2,2.8-0.4,4.1-0.6c7.5,0.2,14.9-0.4,22.1-2.4
		c40.7-3.8,81.4-4.6,121.7,2.6c40.7,7.3,81.8,13.8,116.3,39.5c9.4,9.3,19,18.5,26.3,33.3c0.5-10.1,0.1-16.6-3.8-22.5
		c1.9-5.6,3.9-4.5,5.8,0c3.1,7.2,3.1,14.9,3.2,23.4c7.5-0.6,13.1-7.4,20.7-4.9c-1.3,5.8-7.1,3.5-10,7.3c2.9,2.3,6.5,2.4,9.7,2.4
		c43.9-0.3,71.8,25.6,94.4,58.8c13.5,19.9,20,43,26.2,66.1c0.3,1.1,0.6,2.2,0.9,3.3c1,6,2.1,11.9,3.1,17.9c2,30.2,4.6,60.5-5.4,90
		c-1.5,4.4,0.7,4.7,4.1,5.1c25.1,3.1,42.7,17.3,55.7,38.1c16.5,38.1,8.8,72.6-15.6,104.6c-1.3,1.3-2.6,2.5-4,3.8
		c-4.1,3.1-8.2,6.2-12.2,9.4c-18.1,8.3-36.2,11.7-54.6-0.5c-4.3,14.9-8.1,28.9-13.5,42.4c-16.6,42-41.4,78.9-71.1,112.6
		c-18.8,18.8-38.8,36.1-60.5,51.6c-23.5,14.4-47.6,27.4-73.7,36.7c-43.7,15.5-88.6,19.4-134.5,16c-4.7-0.6-9.5-1.1-14.2-1.7
		c-2.8-0.4-5.7-0.7-8.5-1.1c-17.7-3.4-34.7-9.8-52.8-11.6c-0.8-3.7-3.8-3.7-6.7-4c-4-2.6-8.5-4-13.1-4.9
		c-15-7.5-30.4-14.4-45.1-22.5c-43.9-24.2-80.3-57.2-111.2-96.5c-2.4-3.5-4.8-7-7.2-10.5c-2.2-3.7-4.4-7.4-6.6-11
		c-5.4-8.6-4.5,0.1-6,2.2c-17.2,25.2-41.7,31.6-70.2,18.8c-27.5-12.3-60-53.3-52.4-93.7c6.8-27.8,23.1-48.3,48.3-61.6
		c-6.2-7.9-12.1-14.8-17.2-22.3c-17-24.8-26.4-52.7-33.7-81.5c-1.2-6.3-0.2-13.1-4-18.8C140.4,416.9,140.6,416.8,140.6,416.8z
		 M205.3,537.2C205.3,537.2,205.3,537.2,205.3,537.2c7.7,7.1,16.7,13.3,22.6,21.7c6.5,9.3,11.1,10.1,17.3,1c6.4-9.3,10-4.2,13.1,2.4
		c1.2,2.5,1.3,5.6,2,8.4c0.6,2.6-1.4,6.8,2.7,7.2c3.5,0.3,3.7-3.8,4.7-6.4c7.7-19.3,2.8-37.9-2.9-56.6c0-2.1,0-4.3-0.1-6.4
		c0.1-29.6-0.4-59.2,4.3-88.6c4.3-26.3,15.7-45.9,43.3-53.2c13.7-3.6,27.1-8.2,40.6-12.4l0,0c1.5,0,3,0.1,4.4-0.1
		c30.7-6.1,61.3-12.5,92.5-16.2c10.3-1.2,21.1-1.8,30.8-6.7c5.5-2.8,10.7-8.9,17.5-1.5c1.3,1.4,7.1,1.1,8.3-0.4
		c4.9-6.2,11.3-3.1,17-3.7c4.2-0.4,8.9,1.1,12.6-2.3l1,0l1,0c18.2-0.9,33.8-11.2,52.2-13.2c26.8-2.9,51.1-16.8,77.5-22.9
		c9.6-2.2,11.6-7.6,7.6-16.2c-1.2-2.5-4.9-6.4-0.3-8.1c3.3-1.2,5.1,3.2,6.3,6.3c0.4,1,0.8,2.1,1.1,3.1c2.1,6.6,5.8,7.1,11.7,4.1
		c6.6-3.4,4.7-6.9,1.5-11.3c-2.6-3.5-4.8-7.4-7.2-11c-1.4-2.1-4-4.5-1.1-6.6c2.7-1.9,4.7,1.3,6.1,3.2c3.1,4.1,5.8,8.4,8.6,12.7
		c1.9,2.9,3,8.2,7.5,6.2c5.4-2.4,0.6-5.9-0.6-8.9c-0.7-1.7-1.4-3.4-1.9-5.1c-0.7-2.9-5.2-6.4-1.4-8.6c4.3-2.5,6,2.6,7.8,5.6
		c8.7,14.7,13.8,30.5,14.2,47.6c0.3,10.3,0.4,20.6-2.2,32.5c10.7-5.6,15.3-13,17.4-21.6c5.6-23.4,4.1-45.8-12.1-65.3
		c-1.8-2.2-4.8-4.8-1.5-7.4c3.1-2.4,5.1,0.6,7,3c13.9,17.4,20.7,36.7,16.2,59.2c-0.7,3.6-2.2,7.7,1.8,10.8c3.8-2.9,5.2-6.8,6.3-10.6
		c4.9-18.1,4.5-35.5-7.9-51c-2.2-2.7-4.5-5.8-1.8-8.7c3.4-3.5,5.9,0.3,8.1,2.4c13.4,13,24.3,27.4,25.8,46.8
		c0.5,6.8,0.6,13.7,3.4,20.2c14.4-16.8,13.1-43.4-2.7-61c-2.3-2.5-7-5.4-3.2-8.9c3.7-3.4,6.6,1.4,8.8,3.9c3.5,4.1,6.4,8.9,9.6,13.3
		c2,2.8,1.2,7.7,6.3,8.1c0,0.6-0.1,1.2-0.1,1.7c-3.4,12.7-3.3,25.3,0.1,37.9c0,1.3,0,2.6,0,4c-1.7,1.7-2,3.8-2,6
		c-0.4,38.7,7.1,76.1,19.5,112.5c5.7,16.6,14.7,31.9,28.5,43.5c3,2.5,6.6,6.4,9.2,0c3.2-8.2,8-7.7,14.8-4.6c7.4,3.3,15.5,9.8,21.9-2
		c0.8-1.5,3.8-2.1,5.9-2.6c11.9-3,12.5-5.6,3.8-16.2c0-1.3-0.1-2.5-0.1-3.8c2.8-8,1-16.4,4.8-25c7.2-16.3,8.3-34.8,8.1-52.7
		c-0.2-29.4-4.2-58.2-15-85.8c-19.5-50.2-48.4-89.5-108.3-90.1c-17.3-0.2-26.7-5.1-35.4-21c-14.4-26.2-41.8-36.3-69.2-44.6
		C641.3,107.8,588,103,533.9,105.1c-10.1,0.4-17.6,4.2-22.1,13.3c-3.7-1.1-4.1-6.2-8.2-6.8c-5.5-3.7-11.2-2-16.9-0.7
		c-13.5,3.1-26.9,7-40.6,9.3c-38.5,6.5-75.1,19.1-110.4,35.5c-41.8,19.3-79.7,44.5-114.3,75.1c-27.6,24.4-51.4,51.6-62.7,87
		c-22.2,69.2-12.5,135,25.6,196.7c4.7,7.7,10.3,14.5,21,11.8c0,2.9,0,5.7,0.1,8.6C204,535.6,203.7,536.4,205.3,537.2z M705.4,283.8
		c-8.7-4.3-14.1,1.7-19.8,6.5c-1.5,0.1-3,0.1-4.4,0.2c-12.7,3.6-25.2,7.9-37.4,13.2c-2.2,0.4-4.8-0.2-6.4,2.1
		c-7.3,0.6-13.8,3.1-19.9,6.9c-2.8,0.2-5.5,0.3-8.2,0.5c-22,5.9-44.1,11.8-66.1,17.8c-2.3-0.3-4.7-1.3-6.9,0.6
		c-9.5,2-19,3.9-28.6,5.9c-3.8,0.2-7.7-1.4-11.2,1.2c-23.1,4.8-47.8,1.4-69.2,14.4c-0.5,0.3-1.4-0.3-2.1-0.2
		c-0.4,0.1-0.8,0.6-1.3,0.9c0.5-0.2,1.3-0.3,1.5-0.7c0.9-1.8,1.3-3.8-1.5-3.9c-2.5-0.1-5.1,0.5-7.6,0.8c-16.8,1.9-32.5,8.3-49.6,9.9
		c-16.6,1.5-32.6,8.4-49,12.3c-26.6,6.4-39.2,24.2-42,50.1c-4.1,38-7.1,75.9,1.5,113.9c5.8,25.4-4.8,51.7-22.7,62.5
		c-2,1.2-4.1,3.9-6.7,1.4c-1.8-1.8-0.5-4.1,0.3-6.1c1.9-4.8,5-9.3,3.7-16c-5.1,4.6-7.5,10.6-13.7,12.3c5-7,12-12.9,11.5-23
		c-5.5,1.3-7.9,5.9-12,8.2c-3.7,2-6.7,3.3-8.4-2.2c-3.4-10.8-12.2-16.9-20.2-24c-6-5.3-10.7-4.4-16.5-0.6
		c-26.2,17-43.3,40.4-39.3,72.3c4.1,33.6,23.7,58.5,56,70.5c34.7,12.9,62.5-10,58.8-46.8c-0.3-2.8-3.2-7.5,1.8-8.1
		c4.3-0.5,3.9,4.5,4.4,7.6c1.2,7.8-0.4,15.5,4.6,23.1C345.1,769,439.4,825,560.1,831.8c169.7,9.6,297-126,326.8-251.9
		c1.1-4.7,1-8.2-2.2-12.1c-5.2-6.3-8.5-13.7-10.1-21.8c-0.6-2.8-2.1-6.4,1.9-7.4c3.7-0.9,3.4,3,3.9,5.3
		c7.9,37.2,47.7,50.4,78.6,17.3c21.4-22.9,28.9-51.2,21.3-81.8c-6.8-27.2-25-44.2-52.9-50c-3.1-0.6-7.5-2.5-9.3,0.6
		c-2.1,3.7-2.1,8.5,2.2,11.7c-0.2,1.6-0.4,3.2-0.7,4.8c-2.5,7.2,5.2,12.8,3.4,19.9c-1.3,1-2.5,1.9-3.8,2.9c-2.2,0.1-4.5,0.2-6.7,0.3
		c-2.3-1-4.6-1-6.9,0.1c-4.8,0.8-5.4,4.7-5.3,8.3c0.2,11.7-4.7,8.7-10.9,4.2c-5.5-4-10.8-8.6-18.1-9.3c-1.4,12.7-5,14.6-16.1,8.6
		c-4.9-2.6-9.1-6.1-12.9-10.1c-12.4-13.4-21.1-29.1-26.5-46.4c-9.9-31.9-16.7-64.5-16.6-98.2c0-4.5,0-9,0-15.9
		c-5.2,6.2-8.1,10.3-11.7,13.8c-3,2.9-6.3,8.5-10.4,6.5c-5.4-2.6-0.5-7.9,0.3-11.7c3.7-17.1,1.4-35.4-6.2-44.3
		c-0.5,6-0.7,11.8-1.5,17.6c-2.7,19.8-35.1,52.4-54.2,54.9c-1.9,0.2-3.9,0.4-4.8-1.5c-1.1-2.4,1-4.1,2.1-5.9
		c11.5-18.6,10.8-38.3,5.2-58.4c-0.6-2.2-0.5-5.6-4.3-5.2c-4,0.4-6,2.4-4.6,6.6C707.9,283.6,706.6,283.7,705.4,283.8z"/>
	<path class="st1" d="M144.5,435.7c7.3,28.8,16.7,56.8,33.7,81.5c5.1,7.5,11.1,14.4,17.2,22.3c-25.2,13.2-41.5,33.8-48.3,61.6
		c-3.4,8.1-8.7,6.9-15.4,3.9c-26.4-11.9-48.2-30-61.6-55.2c-20.1-38-5.4-78.9,33.6-100.4c9.6-5.3,19.6-9.7,29.1-15
		C137.5,431.9,141,432.2,144.5,435.7z"/>
	<path class="st1" d="M980.5,461c-13-20.8-30.7-35-55.7-38.1c-3.4-0.4-5.6-0.7-4.1-5.1c10.1-29.5,7.4-59.8,5.4-90
		c2.4-5.1,5.8-8.4,11.9-5.9c24.1,10.1,49.9,17.4,68.9,36.7c9.8,10,16.3,22.1,12.8,37.4c-5.4,23.3-20.8,40.6-34.6,58.9
		C983.6,456.9,982.1,459,980.5,461z"/>
	<path class="st2" d="M518.3,834.8c2.8,0.4,5.7,0.7,8.5,1.1c6.1,9.6,11.3,19.7,18.4,28.5c8.7,10.9,18.9,19.7,34.3,21.3
		c24.9,2.5,49.6,3.2,74.4-0.3c19.8-2.8,38.6-8.8,54.3-21.6c16.6-13.6,29.1-31,38.5-50.1c11.8-24.1,30.9-41.8,52.7-54.6
		c35.6-20.9,75.2-31.5,116.7-34.7c13-1,27.1-1.5,35.6-13.7c7.2-10.2,11.6-21.5,11.9-34.6c0.9-35.6-2.1-71.1-2.6-106.6
		c1.3-1.3,2.6-2.5,4-3.8c2.1,1.3,2.9,3.3,2.8,5.6c-1.2,31.2,5.1,62,4.2,93.1c-0.3,11.2-2.2,22.7-5.4,33.4c-6.9,23-22.6,31.6-49,33.8
		C862.6,736,811,749.9,771.4,792c-9.3,9.9-17,21.2-23.2,33.1c-23.6,45.5-61,68.3-112,69c-15,0.2-30.1-0.6-45.1,0.2
		c-24.1,1.3-41-9.8-54-29C530.3,855.4,523.1,845.9,518.3,834.8z"/>
	<path class="st2" d="M772.2,153.6c3.9,5.9,4.3,12.4,3.8,22.5c-7.4-14.8-16.9-24-26.3-33.3c5.2-8.1-2.3-13.4-4.3-20
		c8.9-4.7,2.1-10.6-0.3-14.1c-10.2-14.9-19.6-29.7-35.1-41.2c-26.8-19.9-56.2-30-88.4-29.9c-27.9,0.1-54.2,8.7-78.4,24.1
		C524,73.9,509.1,91.4,489.6,103c-1.4,0.2-2.8,0.4-4.1,0.6c-5-9.5,5.8-11.5,9-14c21.6-16.7,41.8-36.1,67.4-46.7
		c41.3-17.2,82.9-17.8,124.3,0.6c21.8,9.7,40.4,23.4,54.4,42.8c13.8,19,21.7,40.8,28.9,62.8C770,150.9,770.4,152.6,772.2,153.6z"/>
	<path class="st2" d="M155.7,303.1c0,2.9-0.9,5.5-2.9,7.7c-10.4-18-13.9-38.2-17.6-58.1c-1.8-9.6-4.5-19.2-4.7-29.1
		C129,172.3,155.1,128,201.1,107c24.9-11.3,51-11.7,77.4-0.9c23.7,9.6,46,21.3,66.2,36.9c-3,2-5.7,4.8-9.8,2.6
		c-4.2-0.3-7.9-1.6-10.5-5.1c-6.3-10.2-17.4-13.7-27.2-18.8c-17.3-9-35.6-16.4-55.2-16.3c-44,0.2-79.8,29-97.1,72.3
		c-9.4,23.5-7.4,48.1-3.2,72.4C144.9,268.2,150.6,285.6,155.7,303.1z"/>
	<path class="st2" d="M269.7,676c1.5-2.1,0.5-10.8,6-2.2c2.3,3.6,4.4,7.3,6.6,11c-6.8,8.6-3.5,19.1-5.1,28.7
		c-3.9,23.2-13.6,45.6-10.2,70c4.1,29.4,16.1,55.2,42.5,69.3c35.6,18.9,72.2,19.1,106.6-5.1c14-9.8,27-21.2,42.7-28.5
		c2.9,0.3,5.9,0.3,6.7,4c-17.7,10.1-34.1,22.3-50.8,33.9c-20.9,14.4-45.1,17.8-70,14.6c-26.3-3.4-49.9-13.8-64.5-36.5
		c-18.4-28.5-29.2-59.2-16.5-93.9C271.4,720.2,274.6,698.4,269.7,676z"/>
	<path class="st2" d="M140.6,416.8c0,0-0.2,0.1-0.2,0.1c-0.9,5.1-3.8,7.7-8.7,10c-25.1,11.7-50.9,22.4-70.2,43.6
		c-18.7,20.5-27.9,44-18.4,71.2c8.6,24.7,27.2,41.7,48.9,55.6c13.6,8.7,28.3,14.5,43.7,18.9c3.6,1,8.5,1.3,7.2,6.1
		c-1.4,5.3-7.1,3.6-10.4,2.4c-11.9-4.6-23.9-9.2-35-15.3c-23.3-12.7-43.5-28.9-57.1-52.8c-15.4-27.2-8.5-63.2,8.6-84.9
		c17.3-21.8,41.3-32.9,65-44.9c5.2-2.6,10.3-5.3,15.1-8.5C132.9,415.7,136.6,415.8,140.6,416.8z"/>
	<path class="st2" d="M923.1,309.9c-0.3-1.1-0.6-2.2-0.9-3.3c37.3,0.8,73.8,5.6,103.8,30.2c21.9,18,37,52.1,25.3,83.8
		c-1.9,5-5.1,8.9-8.9,12.3c-16.9,15-34.3,29.4-51.2,47.4c-2.3-8.3,1.4-12.7,5.5-17.1c11.4-12.5,24.6-22.9,37.7-33.5
		c11.4-9.2,16.2-31.4,12.2-45.4c-7.1-24.4-22.2-42.1-44.4-53.4c-16.6-8.4-34.8-12.3-53.3-14.2C939.9,315.8,930.5,316.6,923.1,309.9z
		"/>
	<path class="st3" d="M507.6,337.3c9.5-2,19-3.9,28.6-5.9c-0.8,4.8-7.9,5-7.9,11.4c7.9-0.9,11.4-6.4,14.7-12
		c22-5.9,44.1-11.8,66.1-17.8c-1.1,6.6-10.5,8.5-9.8,19.5c7.2-8,12.6-14,18.1-20c6.1-3.9,12.7-6.4,19.9-6.9c-1.6,6-8.3,9.7-8.9,19
		c8.4-6.6,12.2-13.6,15.3-21.1c12.1-5.2,24.6-9.6,37.4-13.2c1.3,14.4-4.9,27.4-8.4,41c9.4-12.3,14.5-25.7,12.8-41.2
		c5.7-4.8,11.1-10.7,19.8-6.5c4.1,18,3.5,35.2-9.2,50.6c15-5.6,19.9-27.6,13-51c-1.4-4.3,0.6-6.2,4.6-6.6c3.8-0.4,3.7,3,4.3,5.2
		c5.6,20.1,6.3,39.8-5.2,58.4c-1.1,1.8-3.2,3.5-2.1,5.9c0.9,1.9,2.9,1.7,4.8,1.5c19.1-2.5,51.5-35.1,54.2-54.9
		c0.8-5.7,1-11.6,1.5-17.6c7.6,8.9,9.8,27.2,6.2,44.3c-0.8,3.8-5.7,9.1-0.3,11.7c4.1,2,7.4-3.6,10.4-6.5c3.6-3.4,6.5-7.6,11.7-13.8
		c0,6.9,0,11.4,0,15.9c0,33.7,6.7,66.3,16.6,98.2c5.4,17.3,14,33,26.5,46.4c3.8,4.1,8,7.5,12.9,10.1c11.1,6,14.7,4.1,16.1-8.6
		c7.3,0.7,12.7,5.3,18.1,9.3c6.2,4.5,11.1,7.5,10.9-4.2c-0.1-3.7,0.5-7.5,5.3-8.3c2.3,1.2,4.6,1.5,6.9-0.1c2.2-0.1,4.5-0.2,6.7-0.3
		c-4.1,7-9.9,13.3-9.7,23.1c6.5-1.8,6-7.5,8.3-11.1c4.1-6.5,9.4-12.5,17.7-9.4c6.7,2.5,11.1,8.3,10.2,16.5
		c-0.6,5.4-3.8,9.3-7.4,13.1c-6,6.4-14.2,10.4-19.1,18c-2.6,4-6.5,7.9-3.7,12.9c2.7,4.8,7.9,6.4,13.1,6.7c3.5,0.2,8.9,0.9,9.1-3.5
		c0.1-4.7-5.1-2.1-8-2.5c-3.5-0.5-8,0.5-9.4-3.9c-1.2-3.7,2.6-5.7,4.8-8c6.4-6.5,13.3-12.6,19.5-19.4c9.5-10.5,8.5-24.2-1.5-32
		c-6.2-4.8-13.2-3.2-20.1-3.3c1.9-7.2-5.8-12.7-3.4-19.9c6.4,4.3,11.7,10.9,21.3,8.6c-6.9-4.5-13.8-8.9-20.6-13.4
		c-4.3-3.3-4.2-8.1-2.2-11.7c1.7-3.1,6.2-1.2,9.3-0.6c27.9,5.8,46.1,22.8,52.9,50c7.6,30.5,0.1,58.9-21.3,81.8
		c-30.9,33-70.7,19.9-78.6-17.3c-0.5-2.3-0.2-6.2-3.9-5.3c-4,0.9-2.5,4.6-1.9,7.4c1.6,8.1,4.9,15.5,10.1,21.8
		c3.2,3.9,3.3,7.4,2.2,12.1c-29.8,125.9-157,261.5-326.8,251.9c-120.8-6.9-215-62.8-281.5-164.6c-5-7.7-3.4-15.4-4.6-23.1
		c-0.5-3.1-0.1-8.1-4.4-7.6c-5,0.6-2.1,5.2-1.8,8.1c3.7,36.8-24.1,59.7-58.8,46.8c-32.3-12-51.8-36.9-56-70.5
		c-3.9-31.9,13.1-55.3,39.3-72.3c5.7-3.7,10.5-4.7,16.5,0.6c8,7.1,16.8,13.3,20.2,24c1.7,5.5,4.7,4.2,8.4,2.2
		c4.1-2.3,6.5-6.9,12-8.2c0.5,10.1-6.5,15.9-11.5,23c6.1-1.8,8.5-7.7,13.7-12.3c1.4,6.7-1.8,11.2-3.7,16c-0.8,2.1-2.1,4.3-0.3,6.1
		c2.6,2.5,4.7-0.2,6.7-1.4c17.9-10.9,28.4-37.2,22.7-62.5c-8.6-38-5.6-75.9-1.5-113.9c2.8-25.9,15.4-43.8,42-50.1
		c16.4-3.9,32.4-10.8,49-12.3c17.1-1.6,32.8-8,49.6-9.9c2.6-0.3,5.1-0.9,7.6-0.8c2.8,0.1,2.4,2.1,1.5,3.9c-0.2,0.4-1,0.5-1.5,0.7
		c0.4-0.3,0.8-0.8,1.3-0.9c0.7-0.1,1.7,0.5,2.1,0.2c21.4-13,46.1-9.7,69.2-14.4c-1.1,4.4-8.9,3.7-8,10.8
		C496.1,346.6,502.5,343.1,507.6,337.3z M586.9,559c-2.7,1.8-2.9-0.9-3.8-2.1c-2.1-2.7-3.2-8.6-7.5-5.8c-5,3.3,0.6,7,2.2,10.1
		c3.7,7.1,11.5,10.1,16.7,15.7c7.7,8.2,6.8,18-2.8,23.8c-3.1,1.9-6.8,2.5-10.1,4.1c-2.5,1.2-8-1-6.8,4.3c0.9,3.8,5.4,3,8.6,2.6
		c10.2-1.2,16.5-8.6,23.2-15.3c13.8,16.3,28.7,31.8,47.9,41.7c46.7,24.1,105.7,14.5,143.8-22.7c36.8-35.8,46.7-95.1,23.8-142.7
		c-23.1-48-70-73.5-125.4-65.4c-51,7.5-89.7,33-108.8,83.2c-2,5.3-3.3,10.9-4.8,16.3c-23.6-7.4-33.4-6.4-52.5,6.6
		c-3.7,2.5-5,2.3-7.5-1.1c-30.4-41.8-72.8-54.8-122-49.9c-58.3,5.7-100.2,45.9-108.4,103c-7.9,55.1,23.8,111.3,75,131.7
		c61.7,24.6,146.4,1.7,170.6-92.4c6.1-23.8,5.4-47.2-3.6-70.3c-5.9-15.2-4.3-18.5,11.3-24.4c9.6-3.6,19.3-3.9,29.1-0.5
		c4.9,1.8,8,4.1,7.4,10.3C581,533.1,583.6,546.1,586.9,559z M221.5,607.2c-0.6-8.4-8.4-17.3-16.7-19c-8.5-1.7-16-0.3-20.6,8.5
		c-6.3,11.9-3,23.2,10.1,30.5c8,4.5,16.6,7.7,24.9,11.6c2.5,1.2,6,2.1,5.7,5.9c-0.4,3.7-3.2,5.6-6.4,6.8c-1.4,0.5-2.9,0.4-4.3,0.9
		c-1.7,0.6-3.9,1.3-3.4,3.6c0.7,3,3.5,2.5,5.4,1.9c6.4-2,13.1-4.4,14.8-11.7c1.7-7.5-5-9.8-9.9-12.7c-3.1-1.8-6.8-2.8-10.1-4.4
		c-5.9-2.8-12.2-5.3-17.6-8.9c-7.6-5-9.3-14.1-4.4-21.2c5.5-7.9,12.7-8,20-2.6C213.3,599.6,217.1,603.4,221.5,607.2z M580.6,696.1
		c0,0-2.2-0.4-4.4-0.4c-3,0.1-7.7-3-8.6,1.3c-1.1,5.2,4.6,4.6,7.8,5c20.7,2.8,40-0.9,57.5-12.8c2.2-1.5,6.2-2.9,4-6.5
		c-2.3-3.8-5.1-0.5-7.4,1C615.3,693.2,599.8,697.5,580.6,696.1z"/>
	<path class="st4" d="M511.7,118.5c4.5-9.1,12-12.9,22.1-13.3c54.2-2.1,107.5,2.7,159.6,18.4c27.4,8.3,54.8,18.4,69.2,44.6
		c8.7,15.9,18.1,20.9,35.4,21c59.9,0.6,88.8,39.9,108.3,90.1c10.8,27.7,14.8,56.5,15,85.8c0.1,17.9-0.9,36.4-8.1,52.7
		c-3.8,8.6-2,17-4.8,25c-4.7-5.4-6.1-12.5-9.2-21.5c-3.9,13.2,1.5,19.7,9.3,25.2c8.6,10.6,8,13.1-3.8,16.2c-2.1,0.5-5.1,1.1-5.9,2.6
		c-6.4,11.8-14.5,5.3-21.9,2c-6.8-3-11.6-3.5-14.8,4.6c-2.5,6.5-6.1,2.6-9.2,0c-13.9-11.6-22.9-26.9-28.5-43.5
		c-12.4-36.4-20-73.8-19.5-112.5c0-2.2,0.2-4.4,2-6c40.8,2.4,77.9,26.1,79.8,49.1c-21.4-14.3-45.3-16.9-69.6-20
		c0.1,4.7,2.7,5.3,4.6,5.6c24.2,3.6,48.7,6.6,68.4,23.4c1.1,1,3.8,1.4,5.1,0.8c2.6-1.4,0.8-3.9,0.2-5.8c-1.9-5.9-3.4-11.9-7.2-17.1
		c-20-27.7-47.7-39.7-81.3-40c-3.4-12.6-3.5-25.3-0.1-37.9c16-3,31.5-1.8,46.6,4.4c3.6,1.5,8,1.8,8.6,6.9
		c-11.5-0.5-21.8-9.1-34.2-4.3c17,4.5,33.1,11.3,49.8,16.3c5.3,2.6,9.4,6.2,10.2,14.2c-21.2-13.3-42.8-17.6-66.7-14.2
		c1.9,4.1,4.4,3.3,6.4,3.3c23.6,0.2,46,3.9,64.6,20c1.7,1.4,3.8,2.9,5.8,0.9c2-2,0.2-4.3-0.6-6.1c-5.3-12.8-13.6-23.7-24.8-31.5
		c-19.8-13.6-41.2-22.2-65.6-11.7c-5.1-0.3-4.3-5.3-6.3-8.1c-3.2-4.5-6-9.2-9.6-13.3c-2.2-2.5-5.1-7.3-8.8-3.9
		c-3.9,3.5,0.9,6.3,3.2,8.9c15.8,17.6,17.1,44.2,2.7,61c-2.9-6.6-2.9-13.4-3.4-20.2c-1.5-19.4-12.4-33.9-25.8-46.8
		c-2.2-2.1-4.7-6-8.1-2.4c-2.8,2.9-0.4,6,1.8,8.7c12.4,15.5,12.8,32.9,7.9,51c-1,3.8-2.5,7.7-6.3,10.6c-3.9-3.1-2.5-7.3-1.8-10.8
		c4.5-22.5-2.3-41.8-16.2-59.2c-1.9-2.3-3.9-5.4-7-3c-3.3,2.6-0.3,5.2,1.5,7.4c16.2,19.5,17.7,41.8,12.1,65.3
		c-2.1,8.6-6.7,16-17.4,21.6c2.6-11.9,2.5-22.2,2.2-32.5c-0.5-17.1-5.6-33-14.2-47.6c-1.8-3-3.4-8.1-7.8-5.6
		c-3.8,2.2,0.7,5.7,1.4,8.6c0.4,1.8,1.2,3.5,1.9,5.1c1.2,3,6,6.5,0.6,8.9c-4.5,2-5.6-3.3-7.5-6.2c-2.8-4.3-5.5-8.7-8.6-12.7
		c-1.4-1.8-3.4-5.1-6.1-3.2c-2.9,2-0.3,4.5,1.1,6.6c2.4,3.6,4.6,7.5,7.2,11c3.2,4.4,5.1,7.9-1.5,11.3c-5.9,3-9.6,2.5-11.7-4.1
		c-0.3-1-0.7-2.1-1.1-3.1c-1.2-3.1-3-7.5-6.3-6.3c-4.6,1.7-0.9,5.5,0.3,8.1c4,8.6,2,14-7.6,16.2c-26.4,6-50.7,20-77.5,22.9
		c-18.4,2-34,12.3-52.2,13.2c0.1-5.2-4-6.7-7.6-8.3c-14.9-6.2-29.6-12.7-44.8-18.3c-43.9-16.1-76.9-43.1-93.2-88.3
		c-6.7-18.7-5-36,4.3-53.3c1.4,0.7,1.9,0.8,2,1c0.2,2.2,0.6,4.4,0.5,6.5c-2.2,29.7,10.1,53.5,30.9,73.4
		c33.5,32.1,75.2,47.3,119.6,56.2c5.6,1.1,12,5.3,19.5-0.8c-38.9-6.5-74.5-17.5-107.4-37c-32.4-19.2-67.5-57-56.4-106.9
		c0.5-2.1,1.3-4.6-1.2-5.8c-2.5-1.2-4,1.2-5.4,2.7c-13.6,15-17.8,32.9-13.9,52.2c8.5,42,34.1,71.4,70.7,91.8
		c25.7,14.3,54.7,21.1,80.7,34.9c-3.7,3.4-8.3,1.9-12.6,2.3c-5.8,0.6-12.1-2.6-17,3.7c-1.2,1.5-7,1.8-8.3,0.4
		c-6.9-7.4-12-1.3-17.5,1.5c-9.7,4.9-20.6,5.5-30.8,6.7c-31.2,3.6-61.8,10-92.5,16.2c-1.4,0.3-2.9,0.1-4.4,0.1
		c0.4-4.6-2-6.1-6.3-7.1c-22.8-5.3-43.1-15.5-60.5-31.5c-26.4-24.2-41-52.9-36.3-89.5c0.3-2.7,3.3-6.1-0.7-7.6
		c-4.4-1.6-5,3.2-6.5,5.8c-21.2,38-8.7,88.6,17.5,117.4c10.2,11.2,22.4,19.9,38.4,21c1.8-0.1,4.2,0.3,4.8-1.7
		c0.8-2.7-1.6-3.7-3.6-4.7c-32-14.8-43.8-43.1-49.9-75.1c3.9,0.7,4.6,4.4,6.2,7.1c7.6,12.5,16.7,23.7,27.6,33.5
		c19.8,17.9,43.1,28.1,69.2,32.3c-13.5,4.2-27,8.7-40.6,12.4c-27.5,7.3-39,26.9-43.3,53.2c-4.8,29.4-4.2,59-4.3,88.6
		c-15.2,12.8-30.7,24.8-54.4,21.4c21.2-8.3,38.4-19,46.4-40.1c-14.4,16.3-29.7,31-51.6,36.4c-10.7,2.7-16.3-4.1-21-11.8
		c-38.1-61.7-47.8-127.5-25.6-196.7c11.3-35.3,35.1-62.6,62.7-87c34.6-30.6,72.5-55.7,114.3-75.1c35.3-16.3,71.8-28.9,110.4-35.5
		c13.7-2.3,27.1-6.1,40.6-9.3c5.7-1.3,11.4-3,16.9,0.7c-5.1,10-11.4,19.3-11.9,31.4c-1.4,34.8,18.3,57.6,43.1,77.1
		c36.7,29,81.1,39.3,125.3,49.9c1.6,0.4,3.7,0.6,4.7-2.1c-0.6-0.6-1.2-1.5-2-1.8c-2.8-1-5.6-1.8-8.4-2.5c-43.4-9.9-86-22-121.2-51
		c-20.9-17.2-37.2-37.4-36.9-66.6c0.1-9.9,4.8-20.9,10.3-25.3c-1.7,24.1,8.3,42.6,26.9,57.1c16.4,25.1,40.5,38.7,68.6,46.4
		c2.2,2.7,5.5,3.5,8.6,4.5c16.4,5.6,33.5,7.4,50.6,8.4c11.3,0.7,22.7,0.1,34.1,0.1c-3.3-5.5-7.4-4.1-11.1-4.4
		c-10.2-0.7-20.4-0.3-30.6-1.2c-17.6-1.6-34.3-6.7-51.4-9.9c-2.7-3.2-6.7-4.3-10.3-6c-20.3-9.4-39.6-20.1-51.4-40.3
		c-6.1-13.6-12.9-27.1-12.9-42.7c-4.3,11-2.3,21.5,1,32.1C514.8,152.4,509.7,136.7,511.7,118.5z M198.7,435.8
		c-0.3-3.2-1.7-5.8-5.2-6.1c-7.4-0.7-14.8-1.1-24.1-1.7C178.4,439.4,189.4,434.3,198.7,435.8c-0.9,8.1-8.2,8.4-13.6,10.6
		c-4.3,1.7-9.6-0.6-13.7,2.7c-2.4,0.2-4.7-3.4-7-0.5c-1.7,2.1,0.2,4,1.3,5.9c7.9,14.5,24,22,39.9,18.2c7.5-1.8,13.9-5.3,16.1-14.7
		c-13.9,11.8-27.9,15.5-43.8,2.9c26.2-2.9,31-5.7,34.6-20.1c-3.9,0.4-5.1,3.8-7.3,6c-6,6-12.6,11-21.8,6.5c6.3-3.2,13.7-4.3,18.7-10
		C206.1,438.7,205.7,435.8,198.7,435.8z M815.8,248.5c0.6,6.8,5.7,6.1,10.4,6.6c16.2,1.7,32.6,2.6,45.4,14.8
		c1.3,1.2,2.9,2.9,4.6,1.3c2.3-2.2,1.1-4.6-0.7-6.7c-0.5-4.7,0.2-9.4-1.6-14.1c-9.7-25.3-54.4-48.4-80.3-41.4
		c-1.9,0.5-3.7,1.1-3.7,3.2c0.1,2.1,1.9,3,3.9,3c5.8,0.1,11.8-0.5,17.5,0.3c11.9,1.8,24.9,1.4,33.1,12.9c-7.8-1.9-15.6-3.7-23.4-5.5
		c-2.3-0.5-4.7-0.4-4.9,2.6c-0.1,2.2,1.9,2.8,3.8,3.1c2.5,0.4,5,0.8,7.5,1.4c10.8,2.8,22.4,4.3,28.1,16.1
		c-17.6-4.6-35.4-8.4-54.6-5.4C805,247.3,814.2,239.9,815.8,248.5z M205.3,316.8c0.7,1.2,1.7,2.4,2,3.8c4.4,24.4,17,44.1,35.1,60.5
		c4,3.6,7.8,8.5,16.8,7.2c-30.5-25.2-52.1-53.1-47-93.7c7.2,2.9,4.5,10.1,6.1,15.2c9.1,28.8,24.4,51.5,54.9,60.7
		c4.9,1.5,10,3.1,16.1-1.8c-36-5.3-55.1-27.1-65.4-58.7c-5.6-17.1-5.6-34.5-5.4-52.1c0-2.7,1.6-6.8-1.8-7.9
		c-4.3-1.3-4.9,3.5-6.3,6.1c-11.2,20.5-15.6,42.2-11.7,65.5c5.8,34.4,22,61.7,53.2,79c2.1,1.2,5.2,3.5,6.9,0.9
		c2.4-3.8-2-4.8-4.3-5.9c-29.8-14.3-42.7-40.7-50.6-70.7C203.2,321.9,202.6,319.1,205.3,316.8z M233.9,436.8c3.9-3.7,0.9-5.6-2-7.5
		c-28.9-19.7-46.7-46.6-52.4-81.2c-0.6-3.8-1-7.6-6.4-6.4c-1.9-11.5,1.6-21.7,6.4-31.9c3,17.1,6,33.9,12.1,50
		c9.4,24.5,24.9,42.7,50.9,50.5c4.3,1.3,8.6,3,13.5-1.7c-14.2-3.8-26.8-7.6-37.2-17.3c-18.7-17.5-26.9-39.5-30.9-63.8
		c-1.4-8.3-2.4-16.6-3.8-24.8c-0.3-1.7-0.4-3.9-2.6-4.4c-2.8-0.6-3.8,1.7-4.7,3.6c-4.2,8.6-7.9,17.3-8.7,27
		c-3.7,47,15.9,83,53.2,110c7.8,5.6,16.7,10.7,27.6,12.4C246.3,442,234.2,446,233.9,436.8z M351,250.4c4.1-0.3,4.7-2.5,3.4-6
		c-3.6-10.3-8.2-20.3-8.4-31.6c-0.1-4-3.4-4.2-6.4-4c-4.7-13.5,1.9-23.8,8.7-35.2c3.6,4.3,2.6,7.8,2.5,10.9
		c-0.9,30.6,13.7,54.7,34.5,74.5c29.6,28.3,66.2,45.2,104.7,58.1c3.2,1.1,6.5,3.1,10.9-0.8c-7.8-3.1-14.4-5.8-21.2-8.3
		c-38.3-14.1-73.6-32.8-101.1-63.9c-11.1-12.5-18-27-21.5-43.7c-3-14.1,0.4-27.3,2.7-43.5c-15.5,10.5-23.8,23.1-26.1,38.6
		c-3.7,25.1,3.3,47.9,18.3,68.2c23.4,31.7,56,51,91,67c2.9,1.3,5.9,2.6,9-1.4c-22-10.6-43.9-19.9-62.4-35.1
		C374.3,281.7,358.1,270.1,351,250.4z M645.7,269.9c-7-1.8-11.1-3.1-15.2-3.8c-37.2-6.1-72.6-17.5-105.7-35.5
		c-27.3-14.8-49.5-35-63.6-63.3c-5.3-10.6-5.6-21-0.6-31.6c1.2-2.5,6.9-4.6,2.5-7.8c-3.3-2.4-6.9,0.7-9.5,3.5
		c-12.4,13.2-17.8,28.7-13.3,46.4c7.8,30.5,26.6,53.3,52.1,70.9c32.9,22.7,70.7,33.3,108.6,43.5c6.1,1.6,12.5,7.8,21.6,1.8
		c-5.1-1.6-8.5-2.7-11.9-3.7c-33.9-9.5-67.9-18.6-99.1-35.4c-33.3-17.9-58.2-43.1-67-81.3c-2.6-11.1,0.2-21.4,7.3-33.7
		c0,12.7,0.9,22.3,5.7,31.1c15.8,29.4,39.2,50.7,68.3,66.3c32.3,17.3,67.8,25.1,102.6,34.8C632.9,273.4,637.8,273.6,645.7,269.9z
		 M294.2,194.2c-23.9,22.2-30.9,52.4-15.5,78.8c20.1,34.7,52.3,56.5,87.5,74c1.2,0.6,2.9,0.3,3.4-2.5c-1.6-1.2-3.3-3.4-5.5-4.2
		c-16.8-6.3-30.5-17.6-44.1-28.4c-16.3-12.9-31.9-27.1-40.3-47.2c-7-16.7-5.3-36,4.1-46.2c2.9,34.7,26.1,56.2,51,76.8
		c22.9,19,74.3,39.5,85.7,33.6c-14.6-5-29-9-42.8-14.8c-35.5-14.8-64.6-37.2-82.9-71.9c-6.3-12.1-7.2-24.3-1.8-36.9
		C294.4,202.1,297,199,294.2,194.2z M701.6,176.5c0.3-1,0.5-2.1,0.8-3.1c-0.6-0.8-1.1-1.9-1.9-2.3c-30.9-15.3-62.4-10.6-94-2.9
		c-1.2,0.3-2.7,1.6-3,2.8c-0.6,2.3,1.7,3.2,3.3,3.5c6.4,1.3,13,2.1,19.4,3.4c27.4,5.7,53.8,13.7,76.5,31.1c2.4,1.9,5.3,6.3,8,2.5
		c2.3-3.3-2.5-5.3-5-7.1c-20.4-15.1-43.9-22.9-68.3-28.9c-5.2-1.3-11.4-0.7-16-5.7C649.1,164.8,675.8,164.4,701.6,176.5z
		 M735.4,158.8c0.3-5.4-1.8-6.3-3.6-7.5c-25.2-17.8-53.5-24.8-84-24c-3.4,0.1-8.8-1.9-9.6,2.6c-0.9,5.3,4.8,5.1,8.5,6.2
		c32.9,9.9,64.7,21.7,87.5,49.4c1.2,1.5,2.8,3.8,6,1.3c-19.8-30.4-52-41.5-83.3-54.1C685.6,132.8,711.1,142,735.4,158.8z
		 M817.6,365.1c9.1,2,18.4,3.1,27.4,5.1c9.3,2.1,18.4,4.8,26.7,9.7c7.6,4.5,16.9,7.3,20.9,19.4c-21.7-8.1-41.4-12.1-64.2-8.7
		c6.1,4.5,10.6,2.7,14.8,3.2c20.3,2.1,41.1,2.8,56.7,19c1.2,1.3,2.9,3,4.7,1.8c2.6-1.8,1.7-4.6,0.7-7c-4.6-11.1-11.9-19.8-21.8-26.8
		C863.5,366.9,841.1,363.6,817.6,365.1z M246.4,453.9c-6.5,1.3-6.9,4.2-8,6.3c-8.3,15.4-22.5,22.1-38.5,26.1
		c-3.2,0.8-8.6-1.8-9.2,3.2c-0.6,5.5,5.1,6.3,9.1,7.6c21.4,7,37.6-2.4,52.1-16.8c2.2-2.1,6.2-5.2,2.5-8c-3.1-2.3-4.3,2.5-6,4.5
		c-11.7,14.2-31.3,20.7-45.8,14.7C221.5,484.9,238.5,476.4,246.4,453.9z M564.5,136.2c-4.3,6.7-1.3,12.1,1,16.4
		c16.6,31.2,42.2,51.5,76.1,61.6c2,0.6,4.6,1.9,5.4-1.1c0.7-2.7-1.9-3.5-4.1-4.1C605.2,198,578.4,175.1,564.5,136.2z M367.7,289.8
		c-12.7-9.5-23.1-16.6-30.8-27.2c-7.8-10.8-10.5-23.7-16.7-36C314.3,245.7,344.6,287.9,367.7,289.8z M152.2,403.3
		c11.9,5.8,22.7,11.9,33,18.9c1.6,1.1,4.1,3.3,5.7,0.9c1.9-2.9-1.4-4.5-3.3-5.7c-7.6-4.9-15.3-9.7-23.2-14.1
		C161.1,401.6,157.5,398.8,152.2,403.3z M899.4,458.4c-7.8-8.8-14-17.7-15.4-29c-0.3-2.3-0.9-4.7-3.9-3.9c-2.8,0.7-3,3.5-2.1,5.4
		c3.9,8.2,5.5,17.6,11.7,24.6C891.7,457.8,893.8,461,899.4,458.4z M861.2,446.5c0.8-0.5,1.5-1,2.3-1.5c-2.8-8.1-5.6-16.2-8.5-24.2
		c-0.5-1.4-1.6-2.4-3.3-2c-1.8,0.4-2.3,1.8-1.7,3.3C853.3,430.3,854.6,439.8,861.2,446.5z"/>
	<path class="st1" d="M289.4,695.3c30.9,39.3,67.3,72.3,111.2,96.5c14.7,8.1,30,15,45.1,22.5c-3.9,11.3-15.1,15.2-23.2,22.1
		c-10.3,8.8-21.8,15.4-35.5,18.2c-20.4,4-39.4,0-56.8-9.8c-18.8-10.6-35.1-23.5-44.1-45.2c-8.5-20.7-6.5-41.3-4.6-61.6
		C282.7,723.9,281.6,708.5,289.4,695.3z"/>
	<path class="st1" d="M324.4,140.5c2.6,3.5,6.3,4.8,10.5,5.1c-0.8,4.7-5.2,4.7-8.3,6.2c-53.9,26.2-101.8,60.6-141.4,105.8
		c-6,6.8-11.2,14.4-16.8,21.6c-5.2,0.1-5.5-4.3-6.4-7.6c-12.3-47.2-3.5-88.7,33.5-122.6c25.7-23.5,55.1-31.4,89.1-23
		C298.5,129.4,310.4,137.8,324.4,140.5z"/>
	<path class="st1" d="M809.6,733.3c29.6-33.8,54.5-70.6,71.1-112.6c5.4-13.5,9.2-27.5,13.5-42.4c18.5,12.2,36.6,8.8,54.6,0.5
		c4.8,0.3,5.9,3.3,5.9,7.5c0,31,1.1,62-8.7,92.2c-6.9,21.4-17.8,30.4-39.9,30.6c-29.2,0.2-57.3,5.5-82.9,20.5
		C819,732,814.6,733.9,809.6,733.3z"/>
	<path class="st1" d="M745.3,122.8c2,6.5,9.5,11.9,4.3,20c-34.5-25.7-75.6-32.3-116.3-39.5c-40.3-7.2-81-6.4-121.7-2.6
		c0.6-5.8,5.3-8.7,9.1-11.8c10.3-8.3,21.9-14.4,33.6-20.7c20.2-10.8,42.2-15.1,64.4-15.3c24-0.2,48.3,3.7,69.8,15.5
		C712.2,81.4,733.8,97,745.3,122.8z"/>
	<path class="st5" d="M809.6,733.3c5,0.6,9.4-1.3,13.5-3.7c25.6-15,53.7-20.2,82.9-20.5c22.1-0.2,33-9.2,39.9-30.6
		c9.8-30.2,8.7-61.2,8.7-92.2c0-4.2-1.1-7.2-5.9-7.5c4.1-3.1,8.2-6.2,12.2-9.4c0.5,35.5,3.5,71,2.6,106.6
		c-0.3,13.1-4.8,24.4-11.9,34.6c-8.5,12.2-22.6,12.7-35.6,13.7c-41.5,3.2-81.1,13.9-116.7,34.7c-21.8,12.8-40.9,30.5-52.7,54.6
		c-9.4,19.1-21.9,36.5-38.5,50.1c-15.7,12.9-34.5,18.8-54.3,21.6c-24.8,3.5-49.5,2.8-74.4,0.3c-15.4-1.6-25.6-10.4-34.3-21.3
		c-7-8.8-12.3-19-18.4-28.5c4.7,0.6,9.5,1.1,14.2,1.7c-0.8,13.1,10.6,27.6,25.3,34.3c19.4,8.8,39.3,11,60.4,9.3
		c35.7-2.8,64.8-18.1,88.2-44.3c11.9-13.3,19.8-29.7,32.1-42.8c2.6-2.7,2.7-5.8,2-9.2C770.8,769.4,790.8,752.1,809.6,733.3z"/>
	<path class="st1" d="M749.1,784.9c0.7,3.4,0.6,6.5-2,9.2c-12.3,13.1-20.3,29.5-32.1,42.8c-23.5,26.2-52.5,41.6-88.2,44.3
		c-21.1,1.6-41-0.5-60.4-9.3c-14.7-6.7-26.1-21.2-25.3-34.3c45.9,3.4,90.8-0.5,134.5-16C701.5,812.3,725.7,799.3,749.1,784.9z"/>
	<path class="st5" d="M324.4,140.5c-14-2.7-25.9-11.1-39.8-14.5c-34-8.3-63.4-0.5-89.1,23c-37,33.9-45.7,75.4-33.5,122.6
		c0.8,3.3,1.2,7.7,6.4,7.6c-4.3,8-8.5,15.9-12.8,23.9c-5.1-17.5-10.8-34.9-13.9-52.9c-4.2-24.3-6.2-49,3.2-72.4
		c17.3-43.2,53.1-72,97.1-72.3c19.6-0.1,37.9,7.3,55.2,16.3C307.1,126.8,318.1,130.3,324.4,140.5z"/>
	<path class="st5" d="M289.4,695.3c-7.8,13.2-6.7,28.5-8,42.6c-1.9,20.3-3.9,41,4.6,61.6c9,21.8,25.2,34.6,44.1,45.2
		c17.5,9.8,36.5,13.9,56.8,9.8c13.7-2.7,25.3-9.4,35.5-18.2c8.1-6.9,19.3-10.8,23.2-22.1c4.6,0.9,9.1,2.3,13.1,4.9
		c-15.7,7.3-28.7,18.6-42.7,28.5c-34.5,24.2-71.1,24.1-106.6,5.1c-26.4-14.1-38.4-39.9-42.5-69.3c-3.4-24.4,6.3-46.8,10.2-70
		c1.6-9.6-1.7-20,5.1-28.7C284.6,688.3,287,691.8,289.4,695.3z"/>
	<path class="st6" d="M745.3,122.8c-11.5-25.8-33.1-41.4-56.7-54.4c-21.6-11.8-45.8-15.7-69.8-15.5c-22.1,0.2-44.1,4.5-64.4,15.3
		c-11.6,6.2-23.3,12.4-33.6,20.7c-3.9,3.1-8.6,6-9.1,11.8c-7.2,2-14.6,2.6-22.1,2.4c19.5-11.7,34.3-29.2,53.6-41.4
		c24.2-15.3,50.5-24,78.4-24.1c32.2-0.1,61.6,10,88.4,29.9c15.5,11.5,24.9,26.3,35.1,41.2C747.4,112.2,754.2,118.1,745.3,122.8z"/>
	<path class="st7" d="M536.1,323.4c-25.9-13.8-55-20.6-80.7-34.9c-36.6-20.3-62.2-49.8-70.7-91.8c-3.9-19.3,0.3-37.2,13.9-52.2
		c1.4-1.5,2.9-3.9,5.4-2.7c2.5,1.2,1.7,3.8,1.2,5.8c-11.1,49.9,24,87.7,56.4,106.9c32.9,19.5,68.5,30.5,107.4,37
		c-7.5,6.1-13.8,1.9-19.5,0.8c-44.4-8.9-86.1-24.1-119.6-56.2c-20.8-19.9-33.1-43.6-30.9-73.4c0.2-2.2-0.2-4.4-0.5-6.5
		c0-0.2-0.5-0.3-2-1c-9.3,17.2-11,34.6-4.3,53.3c16.3,45.2,49.4,72.3,93.2,88.3c15.1,5.5,29.9,12,44.8,18.3c3.7,1.5,7.7,3.1,7.6,8.3
		c0,0-1,0-1,0L536.1,323.4z"/>
	<path class="st4" d="M264.9,514.9c5.7,18.6,10.6,37.3,2.9,56.6c-1,2.6-1.2,6.8-4.7,6.4c-4.1-0.4-2.1-4.6-2.7-7.2
		c-0.6-2.8-0.8-5.9-2-8.4c-3.1-6.5-6.7-11.7-13.1-2.4c-6.2,9.1-10.8,8.3-17.3-1c-5.9-8.4-15-14.6-22.7-21.7
		C227.8,536.7,248.2,530.8,264.9,514.9z"/>
	<path class="st7" d="M511.7,118.5c-2.1,18.2,3.1,33.9,16.7,46.6c-3.3-10.6-5.3-21.1-1-32.1c0,15.7,6.8,29.1,12.9,42.7
		c-1.7,2.5-4.4,2.1-6.9,2.2c-18.6-14.5-28.6-33.1-26.9-57.1c-5.5,4.4-10.2,15.4-10.3,25.3c-0.4,29.2,16,49.3,36.9,66.6
		c35.2,29.1,77.8,41.1,121.2,51c2.8,0.6,5.7,1.5,8.4,2.5c0.8,0.3,1.4,1.3,2,1.8c-1,2.7-3.1,2.5-4.7,2.1
		c-44.1-10.7-88.6-21-125.3-49.9c-24.8-19.6-44.5-42.4-43.1-77.1c0.5-12.1,6.8-21.4,11.9-31.4C507.6,112.3,508,117.4,511.7,118.5z"
		/>
	<path class="st7" d="M806.9,306c33.5,0.2,61.2,12.2,81.3,40c3.8,5.2,5.3,11.2,7.2,17.1c0.6,2,2.4,4.4-0.2,5.8
		c-1.2,0.7-3.9,0.2-5.1-0.8c-19.7-16.9-44.2-19.8-68.4-23.4c-1.9-0.3-4.5-0.9-4.6-5.6c24.3,3.1,48.2,5.6,69.6,20
		c-1.9-23.1-39-46.7-79.8-49.1C806.9,308.6,806.9,307.3,806.9,306z"/>
	<path class="st7" d="M806.9,266.3c24.4-10.5,45.7-1.9,65.6,11.7c11.3,7.7,19.5,18.7,24.8,31.5c0.8,1.8,2.6,4.1,0.6,6.1
		c-2,2-4.1,0.6-5.8-0.9c-18.7-16-41.1-19.8-64.6-20c-2,0-4.5,0.8-6.4-3.3c23.9-3.4,45.5,0.9,66.7,14.2c-0.8-8-4.8-11.6-10.2-14.2
		c-1.7-8.5-9.5-9.2-15.6-12c-0.6-5.2-5-5.5-8.6-6.9c-15.1-6.2-30.6-7.4-46.6-4.4C806.9,267.4,806.9,266.9,806.9,266.3z"/>
	<path class="st8" d="M923,466.6c6.9,0.1,13.9-1.5,20.1,3.3c10,7.8,11,21.4,1.5,32c-6.1,6.8-13.1,12.8-19.5,19.4
		c-2.2,2.2-6,4.2-4.8,8c1.4,4.3,5.8,3.4,9.4,3.9c2.9,0.4,8.2-2.2,8,2.5c-0.1,4.5-5.6,3.8-9.1,3.5c-5.2-0.4-10.5-2-13.1-6.7
		c-2.8-5,1.1-8.9,3.7-12.9c4.9-7.6,13.1-11.6,19.1-18c3.6-3.8,6.8-7.7,7.4-13.1c0.9-8.1-3.5-13.9-10.2-16.5
		c-8.3-3.1-13.6,3-17.7,9.4c-2.3,3.7-1.8,9.3-8.3,11.1c-0.2-9.7,5.6-16.1,9.7-23.1C920.5,468.6,921.8,467.6,923,466.6z"/>
	<path class="st7" d="M264.9,514.9c-16.7,15.8-37.1,21.8-59.6,22.3c0,0,0,0,0,0c0-0.8,0-1.6,0-2.4c0-2.9,0-5.7-0.1-8.6
		c21.9-5.5,37.2-20.2,51.6-36.4c-8,21-25.2,31.7-46.4,40.1c23.7,3.5,39.2-8.6,54.4-21.4C264.9,510.6,264.9,512.8,264.9,514.9z"/>
	<path class="st9" d="M709.1,283.4c6.9,23.4,2,45.4-13,51c12.8-15.4,13.4-32.6,9.2-50.6C706.6,283.7,707.9,283.6,709.1,283.4z"/>
	<path class="st9" d="M685.6,290.3c1.7,15.5-3.4,28.9-12.8,41.2c3.4-13.6,9.7-26.6,8.4-41C682.6,290.4,684.1,290.4,685.6,290.3z"/>
	<path class="st10" d="M920.3,441.9c6.9,4.5,13.8,8.9,20.6,13.4c-9.6,2.3-14.9-4.3-21.3-8.6C919.9,445.1,920.1,443.5,920.3,441.9z"
		/>
	<path class="st10" d="M617.5,312.6c-5.4,6-10.9,12-18.1,20c-0.7-11,8.7-12.9,9.8-19.5C612,312.9,614.7,312.8,617.5,312.6z"/>
	<path class="st10" d="M507.6,337.3c-5.1,5.7-11.5,9.2-19.2,12c-0.9-7.1,6.8-6.4,8-10.8C499.9,335.9,503.9,337.5,507.6,337.3z"/>
	<path class="st10" d="M643.8,303.6c-3.1,7.5-6.8,14.5-15.3,21.1c0.6-9.3,7.3-13,8.9-19C639,303.4,641.5,304,643.8,303.6z"/>
	<path class="st7" d="M908.5,446.5c-7.8-5.5-13.2-12-9.3-25.2c3.1,9,4.5,16.1,9.2,21.5C908.4,444,908.5,445.2,908.5,446.5z"/>
	<path class="st10" d="M543.1,330.9c-3.3,5.7-6.9,11.1-14.7,12c0-6.4,7.1-6.6,7.9-11.4C538.3,329.6,540.7,330.6,543.1,330.9z"/>
	<path class="st8" d="M912.5,469.8c-2.3,1.6-4.6,1.3-6.9,0.1C907.9,468.8,910.2,468.8,912.5,469.8z"/>
	<path class="st4" d="M205.4,534.8c0,0.8,0,1.6,0,2.4C203.7,536.4,204,535.6,205.4,534.8z"/>
	<path class="st9" d="M586.9,559c-3.3-12.9-5.9-25.9-4.6-39.2c0.6-6.2-2.4-8.5-7.4-10.3c-9.8-3.5-19.4-3.2-29.1,0.5
		c-15.6,5.9-17.2,9.2-11.3,24.4c9,23,9.7,46.5,3.6,70.3c-24.2,94-108.9,117-170.6,92.4c-51.2-20.4-82.8-76.6-75-131.7
		c8.2-57.1,50-97.3,108.4-103c49.3-4.8,91.7,8.2,122,49.9c2.5,3.5,3.8,3.6,7.5,1.1c19.1-12.9,28.9-14,52.5-6.6
		c1.6-5.4,2.8-11,4.8-16.3c19.1-50.1,57.8-75.7,108.8-83.2c55.4-8.1,102.3,17.4,125.4,65.4c22.9,47.6,13,106.9-23.8,142.7
		c-38.2,37.1-97.1,46.8-143.8,22.7c-19.2-9.9-34-25.3-47.9-41.7c0-2.5,0-5.1-0.1-7.6c13.9,16.2,28.1,32,46.8,42.8
		c53.4,30.9,127.4,11.1,159.1-42.3c33.3-56.1,16.1-129.6-38-162.6c-50.1-30.6-125.6-15.4-164,33c-13.8,17.4-22.2,37-22.6,59.5
		c-0.1,1.5-0.1,3-0.2,4.6c-0.8,2.3-0.9,4.6,0,6.9c0.3,2.2,0.6,4.4,0.9,6.6c-0.9,10.9,3.8,20.5,6.8,30.6
		C589.6,567.7,589.4,562.3,586.9,559z M297,583c0.1,1.7,0.2,3.5,0.3,5.2c-0.2,44.4,32.5,89.7,75.4,105.4
		c58.9,21.6,139.4-1.3,161-92.1c12.8-53.6-12.5-104.3-62.9-125c-38.4-15.7-76.9-14.2-114,4.3C318,500.1,293.7,542.7,297,583z"/>
	<path class="st8" d="M221.5,607.2c-4.4-3.8-8.2-7.6-12.5-10.8c-7.3-5.3-14.5-5.3-20,2.6c-4.9,7-3.2,16.1,4.4,21.2
		c5.4,3.6,11.7,6,17.6,8.9c3.3,1.6,6.9,2.5,10.1,4.4c4.9,2.9,11.6,5.2,9.9,12.7c-1.7,7.4-8.4,9.7-14.8,11.7
		c-1.9,0.6-4.7,1.1-5.4-1.9c-0.5-2.3,1.7-3,3.4-3.6c1.4-0.5,2.9-0.4,4.3-0.9c3.3-1.2,6.1-3.1,6.4-6.8c0.4-3.7-3.2-4.7-5.7-5.9
		c-8.3-4-16.9-7.2-24.9-11.6c-13.1-7.3-16.4-18.7-10.1-30.5c4.6-8.7,12.1-10.1,20.6-8.5C213.1,589.9,221,598.8,221.5,607.2z"/>
	<path class="st8" d="M586.9,559c2.5,3.3,2.7,8.8,8.5,8.9c5.7,5.9,12.6,11.2,11.1,20.9c0,2.5,0,5.1,0.1,7.6
		c-6.6,6.7-12.9,14-23.2,15.3c-3.2,0.4-7.7,1.2-8.6-2.6c-1.2-5.3,4.3-3.1,6.8-4.3c3.3-1.6,7.1-2.2,10.1-4.1
		c9.6-5.9,10.6-15.7,2.8-23.8c-5.3-5.6-13-8.6-16.7-15.7c-1.7-3.2-7.2-6.9-2.2-10.1c4.3-2.8,5.4,3.1,7.5,5.8
		C584,558.1,584.2,560.8,586.9,559z"/>
	<path class="st9" d="M580.6,696.1c19.2,1.4,34.7-2.9,48.9-12.3c2.2-1.5,5-4.8,7.4-1c2.2,3.6-1.8,5-4,6.5
		c-17.4,11.9-36.8,15.6-57.5,12.8c-3.2-0.4-8.9,0.2-7.8-5c0.9-4.3,5.6-1.2,8.6-1.3C578.4,695.7,580.6,696.1,580.6,696.1z"/>
	<path class="st7" d="M645.7,269.9c-7.9,3.6-12.8,3.5-17.2,2.3c-34.8-9.7-70.3-17.6-102.6-34.8c-29.1-15.6-52.5-36.9-68.3-66.3
		c-4.8-8.9-5.7-18.4-5.7-31.1c-7,12.3-9.8,22.6-7.3,33.7c8.8,38.2,33.7,63.3,67,81.3c31.2,16.8,65.2,25.9,99.1,35.4
		c3.4,1,6.8,2.1,11.9,3.7c-9.1,6.1-15.5-0.1-21.6-1.8c-37.9-10.2-75.7-20.8-108.6-43.5c-25.6-17.6-44.3-40.5-52.1-70.9
		c-4.5-17.7,0.9-33.2,13.3-46.4c2.6-2.8,6.2-5.9,9.5-3.5c4.4,3.2-1.3,5.2-2.5,7.8c-5,10.7-4.7,21,0.6,31.6
		c14.1,28.3,36.3,48.5,63.6,63.3c33.1,18,68.5,29.4,105.7,35.5C634.6,266.9,638.6,268.2,645.7,269.9z"/>
	<path class="st11" d="M353.1,354.3c-26.2-4.2-49.5-14.5-69.2-32.3c-10.9-9.8-20-21.1-27.6-33.5c-1.7-2.7-2.3-6.4-6.2-7.1
		c-1.4-4.7-2.7-9.4-4.1-14.2c-4.2,1.8-3.3,4.8-3,7c2.8,24,10,46.2,25.7,65.3c8.3,10.2,20.1,15.6,30.2,23.4c-16-1.1-28.2-9.8-38.4-21
		c-26.2-28.8-38.6-79.4-17.5-117.4c1.5-2.6,2-7.4,6.5-5.8c4,1.5,1,5,0.7,7.6c-4.7,36.6,9.9,65.3,36.3,89.5
		c17.4,16,37.7,26.2,60.5,31.5C351.1,348.2,353.5,349.7,353.1,354.3C353,354.3,353.1,354.3,353.1,354.3z"/>
	<path class="st7" d="M351,250.4c7.1,19.7,23.3,31.3,38.5,43.8c18.5,15.2,40.4,24.5,62.4,35.1c-3.1,4-6.2,2.7-9,1.4
		c-35-16-67.6-35.3-91-67c-15-20.3-22-43.2-18.3-68.2c2.3-15.5,10.7-28.1,26.1-38.6c-2.4,16.2-5.7,29.4-2.7,43.5
		c3.6,16.7,10.4,31.2,21.5,43.7c27.5,31.1,62.9,49.8,101.1,63.9c6.7,2.5,13.4,5.2,21.2,8.3c-4.4,3.9-7.7,1.9-10.9,0.8
		c-38.5-12.9-75.1-29.8-104.7-58.1c-20.7-19.8-35.4-43.9-34.5-74.5c0.1-3.1,1.1-6.6-2.5-10.9c-6.8,11.4-13.4,21.6-8.7,35.2
		c-0.4,2.7-0.8,5.4-1.3,8.1c-0.9,3.3-1.1,6.4,3.2,7.5C342.2,234,346.4,242.3,351,250.4z"/>
	<path class="st7" d="M294.2,194.2c2.8,4.7,0.2,7.9-1.2,11.2c-5.4,12.6-4.5,24.9,1.8,36.9c18.3,34.8,47.4,57.2,82.9,71.9
		c13.8,5.7,28.2,9.8,42.8,14.8c-11.4,5.9-62.8-14.7-85.7-33.6c-24.9-20.6-48.1-42.1-51-76.8c-9.4,10.2-11.1,29.5-4.1,46.2
		c8.4,20.1,24,34.2,40.3,47.2c13.6,10.8,27.3,22.2,44.1,28.4c2.2,0.8,3.9,2.9,5.5,4.2c-0.4,2.9-2.2,3.1-3.4,2.5
		c-35.2-17.6-67.3-39.4-87.5-74C263.3,246.6,270.3,216.4,294.2,194.2z"/>
	<path class="st7" d="M233.9,436.8c0.4,9.2,12.4,5.2,14.8,14.3c-10.9-1.7-19.8-6.8-27.6-12.4c-37.3-27-56.9-63-53.2-110
		c0.8-9.7,4.5-18.4,8.7-27c0.9-1.9,2-4.2,4.7-3.6c2.2,0.5,2.3,2.7,2.6,4.4c1.4,8.3,2.5,16.6,3.8,24.8c4,24.3,12.2,46.3,30.9,63.8
		c10.5,9.8,23,13.6,37.2,17.3c-4.9,4.7-9.3,3-13.5,1.7c-26-7.7-41.5-26-50.9-50.5c-6.1-16-9.1-32.8-12.1-50
		c-4.8,10.1-8.3,20.4-6.4,31.8c1.5,9.8,3,19.7,4.5,29.5c-0.9,3,0.3,4.7,3.3,5.2c1.5,3.6,3.1,7.3,4.6,10.9c-3,3.5-0.4,4,2.4,4.3
		c2.6,1.5,4,3.7,4.2,6.7c-3,3.6-0.3,4,2.5,4.3c0.7,0.8,1.4,1.6,2,2.4c-0.1,4.7,1.1,8.5,6.8,8.6c2.2,2.8,4.5,5.7,6.7,8.5
		c1.1,4.4,4.6,4.9,8.3,5C223.5,430.3,228.7,433.6,233.9,436.8z"/>
	<path class="st7" d="M205.3,316.8c-2.8,2.3-2.1,5.1-1.4,8.1c7.9,30,20.8,56.3,50.6,70.7c2.3,1.1,6.7,2.1,4.3,5.9
		c-1.7,2.7-4.8,0.3-6.9-0.9c-31.2-17.3-47.4-44.6-53.2-79c-3.9-23.2,0.4-45,11.7-65.5c1.4-2.6,2-7.5,6.3-6.1c3.4,1,1.8,5.1,1.8,7.9
		c-0.2,17.6-0.2,35.1,5.4,52.1c10.3,31.6,29.4,53.5,65.4,58.7c-6.1,4.9-11.2,3.3-16.1,1.8c-30.5-9.2-45.8-31.9-54.9-60.7
		c-1.6-5.1,1.1-12.3-6.1-15.2c-0.1-1.4-0.1-2.8-0.2-4.3c4.5-8.5,1.2-17.4,2-27.2c-7.7,10.5-9.9,18-8.4,27.3
		C205.5,299.2,205.4,308,205.3,316.8z"/>
	<path class="st7" d="M844.6,228.4c-8.2-11.4-21.2-11.1-33.1-12.9c-5.7-0.9-11.7-0.2-17.5-0.3c-1.9,0-3.8-0.9-3.9-3
		c-0.1-2.2,1.8-2.7,3.7-3.2c25.9-7,70.6,16.1,80.3,41.4c1.8,4.7,1,9.4,1.6,14.1c-12.5-6.7-24.9-13.9-39.6-14.5
		c-0.9-2.6-2-4.8-4.7-1.4c-5.1,0-10.3-0.1-15.4-0.1c-1.6-8.5-10.8-1.1-14.7-7.7c19.2-3,36.9,0.7,54.6,5.4c1.9,0.7,3.8,2.9,5.7,0.8
		c1.8-2,0.3-4-1.1-5.7C856,235.7,849.9,232.5,844.6,228.4z"/>
	<path class="st7" d="M701.6,176.5c-25.9-12.1-52.5-11.7-80.2-6.6c4.6,5,10.8,4.4,16,5.7c24.4,5.9,47.8,13.8,68.3,28.9
		c2.5,1.9,7.3,3.8,5,7.1c-2.7,3.8-5.6-0.6-8-2.5c-22.6-17.4-49.1-25.4-76.5-31.1c-6.4-1.3-12.9-2.1-19.4-3.4
		c-1.6-0.3-3.9-1.2-3.3-3.5c0.3-1.1,1.8-2.5,3-2.8c31.6-7.8,63.1-12.4,94,2.9c0.8,0.4,1.3,1.5,1.9,2.3
		C702.1,174.4,701.9,175.5,701.6,176.5z"/>
	<path class="st7" d="M735.4,158.8c-24.3-16.8-49.8-26.1-78.4-26c31.3,12.6,63.5,23.7,83.3,54.1c-3.3,2.5-4.8,0.2-6-1.3
		c-22.8-27.8-54.7-39.5-87.5-49.4c-3.7-1.1-9.4-0.9-8.5-6.2c0.8-4.5,6.2-2.5,9.6-2.6c30.5-0.8,58.8,6.2,84,24
		C733.6,152.6,735.7,153.5,735.4,158.8z"/>
	<path class="st7" d="M817.6,365.1c23.5-1.5,45.9,1.8,65.9,15.9c9.9,7,17.2,15.7,21.8,26.8c1,2.4,1.9,5.2-0.7,7
		c-1.8,1.2-3.4-0.5-4.7-1.8c-15.6-16.2-36.4-16.9-56.7-19c-4.2-0.4-8.7,1.3-14.8-3.2c22.8-3.4,42.4,0.6,64.2,8.7
		c-4-12.2-13.4-14.9-20.9-19.4c-8.3-5-17.4-7.6-26.7-9.7C835.9,368.2,826.7,367.1,817.6,365.1z"/>
	<path class="st7" d="M246.4,453.9c-7.9,22.4-24.9,31-43.8,37.8c14.5,6,34.1-0.5,45.8-14.7c1.7-2.1,2.9-6.9,6-4.5
		c3.7,2.8-0.3,5.8-2.5,8c-14.5,14.3-30.7,23.7-52.1,16.8c-4.1-1.3-9.8-2.1-9.1-7.6c0.6-5,5.9-2.4,9.2-3.2c16-4,30.2-10.7,38.5-26.1
		C239.5,458.2,239.9,455.3,246.4,453.9z"/>
	<path class="st10" d="M192,398.3c-0.2-3-1.6-5.2-4.2-6.7c0-1.9-0.5-3.5-2.4-4.3c-1.5-3.6-3.1-7.3-4.6-10.9c0.4-2.7-0.9-4.3-3.3-5.2
		c-1.5-9.8-3-19.7-4.5-29.5c5.5-1.2,5.8,2.6,6.4,6.4c5.8,34.6,23.5,61.5,52.4,81.2c2.9,2,5.9,3.8,2,7.5c-5.2-3.2-10.3-6.4-15.5-9.7
		c-1.4-4-4.6-4.9-8.3-5c-2.2-2.8-4.5-5.7-6.7-8.5c-0.5-4.2-3.1-6.9-6.8-8.6c-0.7-0.8-1.4-1.6-2.1-2.4
		C194.4,400.8,193.9,399.2,192,398.3z"/>
	<path class="st10" d="M212,290.3c0.1,1.4,0.1,2.8,0.2,4.3c-5.1,40.6,16.5,68.5,47,93.7c-9,1.3-12.8-3.6-16.8-7.2
		c-18.1-16.4-30.7-36.1-35.1-60.5c-0.2-1.3-1.3-2.5-2-3.8c0.1-8.8,0.2-17.6,0.3-26.4C207.7,290.4,209.9,290.4,212,290.3z"/>
	<path class="st10" d="M298.7,362.8c-10.1-7.7-21.8-13.2-30.2-23.4c-15.6-19.1-22.9-41.3-25.7-65.3c-0.3-2.2-1.2-5.2,3-7
		c1.4,4.9,2.8,9.5,4.1,14.2c6.1,32,17.8,60.3,49.9,75.1c2,0.9,4.4,2,3.6,4.7C302.9,363.2,300.5,362.7,298.7,362.8z"/>
	<path class="st7" d="M183.3,453.4c9.3,4.5,15.8-0.5,21.8-6.5c2.2-2.2,3.4-5.5,7.3-6c-3.7,14.4-8.5,17.2-34.6,20.1
		c15.9,12.6,29.9,8.9,43.8-2.9c-2.3,9.4-8.6,12.9-16.1,14.7c-15.9,3.7-31.9-3.8-39.9-18.2c-1.1-1.9-2.9-3.9-1.3-5.9
		c2.3-2.8,4.6,0.8,7,0.5C173.7,455.1,179,452.9,183.3,453.4z"/>
	<path class="st7" d="M564.5,136.2c13.9,38.9,40.7,61.8,78.4,72.8c2.2,0.6,4.8,1.4,4.1,4.1c-0.8,3-3.4,1.7-5.4,1.1
		c-33.9-10-59.5-30.3-76.1-61.6C563.2,148.3,560.3,142.9,564.5,136.2z"/>
	<path class="st0" d="M533.5,178c2.5-0.1,5.2,0.3,6.9-2.2c11.8,20.2,31.2,30.8,51.4,40.3c3.6,1.7,7.6,2.7,10.3,6c0,0.8,0,1.6,0,2.4
		C573.9,216.6,549.8,203,533.5,178z"/>
	<path class="st7" d="M602,224.3c0-0.8,0-1.6,0-2.4c17.2,3.2,33.8,8.3,51.4,9.9c10.3,0.9,20.5,0.5,30.6,1.2
		c3.7,0.3,7.8-1.1,11.1,4.4c-11.4,0-22.7,0.5-34.1-0.1c-17.1-1-34.2-2.8-50.6-8.4C607.5,227.8,604.2,227.1,602,224.3z"/>
	<path class="st7" d="M367.7,289.8c-23.1-2-53.4-44.1-47.5-63.2c6.2,12.3,8.9,25.2,16.7,36C344.6,273.2,354.9,280.3,367.7,289.8z"/>
	<path class="st10" d="M815.8,248.5c5.1,0,10.3,0.1,15.4,0.1c1.2,1.8,2.8,1.9,4.7,1.4c14.8,0.5,27.1,7.8,39.6,14.5
		c1.8,2.1,3,4.5,0.7,6.7c-1.7,1.7-3.3-0.1-4.6-1.3c-12.8-12.2-29.3-13.1-45.4-14.8C821.5,254.5,816.4,255.3,815.8,248.5z"/>
	<path class="st10" d="M862.1,279.4c6.1,2.9,13.9,3.5,15.6,12c-16.7-5-32.8-11.8-49.8-16.3C840.2,270.3,850.6,278.9,862.1,279.4z"/>
	<path class="st10" d="M844.6,228.4c5.4,4.1,11.5,7.3,15.8,12.8c1.4,1.7,2.8,3.7,1.1,5.7c-1.9,2.2-3.9-0.1-5.7-0.8
		c-5.7-11.8-17.3-13.3-28.1-16.1c-2.5-0.6-5-1-7.5-1.4c-1.9-0.3-3.9-0.9-3.8-3.1c0.2-2.9,2.6-3.1,4.9-2.6
		C829,224.7,836.8,226.5,844.6,228.4z"/>
	<path class="st10" d="M351,250.4c-4.6-8.2-8.8-16.5-9.4-26c0.6-3.2,0.4-6.1-3.3-7.5c0.4-2.7,0.8-5.4,1.3-8.1c3.1-0.1,6.4,0,6.4,4
		c0.2,11.3,4.8,21.3,8.4,31.6C355.7,247.9,355.1,250.1,351,250.4z"/>
	<path class="st10" d="M152.2,403.3c5.4-4.6,9-1.7,12.1,0c7.9,4.4,15.6,9.2,23.2,14.1c1.9,1.2,5.2,2.8,3.3,5.7
		c-1.5,2.4-4.1,0.1-5.7-0.9C174.9,415.2,164,409.2,152.2,403.3z"/>
	<path class="st7" d="M899.4,458.4c-5.6,2.5-7.7-0.6-9.7-2.9c-6.2-7.1-7.8-16.4-11.7-24.6c-0.9-1.9-0.6-4.7,2.1-5.4
		c3-0.7,3.6,1.6,3.9,3.9C885.4,440.7,891.6,449.6,899.4,458.4z"/>
	<path class="st10" d="M183.3,453.4c-4.3-0.5-9.6,1.7-11.9-4.3c4.1-3.3,9.4-1.1,13.7-2.7c5.5-2.1,12.7-2.5,13.7-10.6l0,0
		c7,0,7.4,2.9,3.3,7.6C197,449.1,189.6,450.1,183.3,453.4z"/>
	<path class="st10" d="M198.8,435.8c-9.4-1.4-20.3,3.6-29.3-7.8c9.3,0.6,16.7,1,24.1,1.7C197,430,198.4,432.6,198.8,435.8
		C198.7,435.8,198.8,435.8,198.8,435.8z"/>
	<path class="st7" d="M861.2,446.5c-6.6-6.7-7.9-16.1-11.3-24.5c-0.6-1.5-0.1-2.9,1.7-3.3c1.7-0.4,2.8,0.6,3.3,2
		c2.9,8.1,5.7,16.2,8.5,24.2C862.8,445.5,862,446,861.2,446.5z"/>
	<path class="st12" d="M606.5,588.8c1.4-9.7-5.4-15-11.1-20.9c-3-10-7.7-19.7-6.8-30.6c5-2.2,3.8,8.5,9,4.6
		c3.7-2.8,1.7-7.5,2.1-11.4c0.1-1.1,0-2.2,0-3.3c-0.8-23.9,7.2-44.4,24.1-61.4c1-1,2-2.1,3-3.2c1.3-1.5,2.1-3.4,0.9-5
		c-1.8-2.5-4.1-0.9-5.7,0.3c-2.1,1.4-4.1,3.1-5.7,5c-12,14.7-21,30.8-23.1,50c-0.4,3.5-0.6,6.8-5.4,6.3c0.5-22.5,8.8-42.1,22.6-59.5
		c38.4-48.4,113.9-63.6,164-33c54.1,33,71.3,106.6,38,162.6c-31.7,53.5-105.7,73.3-159.1,42.3C634.6,620.9,620.4,605,606.5,588.8z
		 M757.1,534.9c-10.1-0.8-19.7,2.1-26.8,10.6c-6.4,7.8-7.3,16.4-1.5,25.2c6.1,9.2,22.1,13.8,36.9,9.9c10-2.7,20.1-6.4,21.4-18.9
		C788.9,545.4,777.2,535,757.1,534.9z M693,523.1c-0.4-6.8-4.1-11-10.9-11.1c-6.8-0.1-11,4.2-11.1,10.9c-0.1,6.8,4.1,11.1,10.9,11.2
		C688.5,534.2,692.5,530.1,693,523.1z M687.2,484.3c3.7,0,7.3,0,11,0c2.3,0,4.7-0.4,4.8-3.2c0-2-1.9-3.1-3.8-3.2
		c-17-1-33.7-0.8-48.4,9.7c-2,1.4-5,3.3-3.4,6c1.7,3.1,4.4,0.9,6.6-0.5C664.1,486.7,675.2,483.7,687.2,484.3z"/>
	<path class="st12" d="M297,583c-3.3-40.3,21-82.9,59.8-102.2c37.1-18.5,75.7-20.1,114-4.3c50.4,20.7,75.7,71.5,62.9,125
		c-21.7,90.8-102.1,113.6-161,92.1c-42.9-15.7-75.6-61-75.4-105.4c6.8,0.1,4.2,5.5,4.9,8.9c0.4,2-0.2,5,2.9,4.9
		c2.6-0.1,3.4-2.5,3.5-4.8c0.2-1.8,0.2-3.7,0.1-5.5c-0.9-26.9,4.2-51.7,23.9-71.8c1.8-1.8,6.3-5,2.8-8.1c-3.2-2.9-5.9,1.3-8,3.5
		c-15.1,16-24,34.7-25.4,56.9C301.8,576.1,305.3,582.5,297,583z M425.1,596.6c-1.5,0-2.9,0-4.4,0c-14.2,0.5-27.2,11.6-29.5,25.1
		c-1.5,8.7,6.2,17.8,19.3,23.7c4.6,2,9.3,2,14,1.9c17.5-0.1,34.1-13,34.1-26.3C458.8,607.1,444.4,596.6,425.1,596.6z M467.6,515.3
		c-13.4,1.2-28.8,4.7-41.4,15.9c-2,1.8-5.9,3.8-3.6,6.9c2.4,3.3,5.2,0.1,7.4-1.7c13.1-10.5,28.5-13.9,44.8-14.6
		c2.6-0.1,6.9,1.4,6.9-2.9c0-3.5-3.9-3.6-6.9-3.7C473.4,515.2,472,515.3,467.6,515.3z M470,564.7c-0.7-6.8-4.3-11.2-11.1-11.2
		c-6.7,0-10.9,4.1-11,11c0,6.9,4.1,11,10.9,11.1C465.7,575.6,469.3,571.3,470,564.7z"/>
	<path class="st6" d="M297,583c8.3-0.5,4.8-6.9,5-10.8c1.4-22.2,10.3-40.9,25.4-56.9c2.1-2.2,4.8-6.4,8-3.5c3.4,3.1-1,6.2-2.8,8.1
		c-19.6,20.2-24.7,45-23.9,71.8c0.1,1.8,0,3.7-0.1,5.5c-0.2,2.3-1,4.7-3.5,4.8c-3.1,0.1-2.5-2.8-2.9-4.9c-0.7-3.5,1.9-8.8-4.9-8.9
		C297.2,586.5,297.1,584.7,297,583z"/>
	<path class="st6" d="M587.8,519.2c4.8,0.5,5.1-2.8,5.4-6.3c2.1-19.2,11.1-35.3,23.1-50c1.6-1.9,3.6-3.6,5.7-5
		c1.7-1.1,4-2.8,5.7-0.3c1.2,1.6,0.4,3.5-0.9,5c-1,1.1-2,2.1-3,3.2c-16.9,17-24.9,37.5-24.1,61.4c0,1.1,0.1,2.2,0,3.3
		c-0.4,3.9,1.6,8.6-2.1,11.4c-5.3,4-4.1-6.7-9-4.6c-0.3-2.2-0.6-4.4-0.9-6.6c4.4-2.3,4.4-4.7,0-6.9
		C587.6,522.2,587.7,520.7,587.8,519.2z"/>
	<path class="st12" d="M587.6,523.8c4.4,2.3,4.5,4.6,0,6.9C586.7,528.4,586.7,526.1,587.6,523.8z"/>
	<path class="st4" d="M338.3,216.9c3.6,1.4,3.9,4.2,3.3,7.5C337.2,223.3,337.4,220.3,338.3,216.9z"/>
	<path class="st4" d="M196.5,405c3.7,1.7,6.3,4.4,6.8,8.6C197.6,413.5,196.4,409.8,196.5,405z"/>
	<path class="st4" d="M210,422.1c3.7,0.1,6.9,1,8.3,5C214.6,427.1,211.2,426.5,210,422.1z"/>
	<path class="st4" d="M185.4,387.3c1.9,0.9,2.3,2.5,2.4,4.3C185,391.3,182.4,390.8,185.4,387.3z"/>
	<path class="st4" d="M177.5,371.2c2.4,0.9,3.7,2.5,3.3,5.2C177.8,375.9,176.6,374.2,177.5,371.2z"/>
	<path class="st4" d="M192,398.3c1.9,0.8,2.4,2.4,2.5,4.3C191.6,402.3,189,401.9,192,398.3z"/>
	<path class="st4" d="M212,290.3c-2.1,0-4.3,0-6.4,0.1c-1.5-9.3,0.7-16.8,8.4-27.3C213.2,272.9,216.5,281.8,212,290.3z"/>
	<path class="st4" d="M835.9,250c-1.9,0.6-3.5,0.4-4.7-1.4C833.9,245.2,835,247.3,835.9,250z"/>
	<path class="st13" d="M757.1,534.9c20.1,0,31.8,10.5,30,26.8c-1.4,12.5-11.4,16.2-21.4,18.9c-14.9,3.9-30.8-0.7-36.9-9.9
		c-5.8-8.8-5-17.4,1.5-25.2C737.3,537,747,534.2,757.1,534.9z"/>
	<path class="st0" d="M693,523.1c-0.5,7-4.4,11.1-11.1,11c-6.7-0.1-11-4.5-10.9-11.2c0.1-6.7,4.3-11,11.1-10.9
		C688.9,512.1,692.6,516.3,693,523.1z"/>
	<path class="st8" d="M687.2,484.3c-12-0.6-23.2,2.4-33.3,8.9c-2.2,1.4-4.8,3.5-6.6,0.5c-1.6-2.7,1.4-4.6,3.4-6
		c14.7-10.4,31.4-10.7,48.4-9.7c1.9,0.1,3.9,1.2,3.8,3.2c0,2.8-2.5,3.2-4.8,3.2C694.5,484.3,690.9,484.3,687.2,484.3z"/>
	<path class="st13" d="M425.1,596.6c19.3,0,33.7,10.4,33.6,24.4c-0.1,13.3-16.7,26.2-34.1,26.3c-4.7,0-9.4,0.1-14-1.9
		c-13.2-5.8-20.8-14.9-19.3-23.7c2.3-13.5,15.3-24.6,29.5-25.1C422.2,596.6,423.7,596.6,425.1,596.6z"/>
	<path class="st8" d="M467.6,515.3c4.3,0,5.8-0.1,7.2,0c2.9,0.2,6.9,0.2,6.9,3.7c0,4.3-4.3,2.8-6.9,2.9
		c-16.3,0.6-31.7,4.1-44.8,14.6c-2.2,1.7-5,4.9-7.4,1.7c-2.3-3.1,1.6-5.1,3.6-6.9C438.8,520,454.3,516.5,467.6,515.3z"/>
	<path class="st0" d="M470,564.7c-0.7,6.7-4.3,10.9-11.2,10.9c-6.8-0.1-10.9-4.2-10.9-11.1c0-6.8,4.2-11,11-11
		C465.7,553.5,469.3,557.9,470,564.7z"/>
</g>
</svg>
