<?xml version="1.0" encoding="utf-8"?>
<!-- Generator: Adobe Illustrator 28.2.0, SVG Export Plug-In . SVG Version: 6.00 Build 0)  -->
<svg version="1.1" id="Шар_1" xmlns="http://www.w3.org/2000/svg" xmlns:xlink="http://www.w3.org/1999/xlink" x="0px" y="0px"
	 viewBox="0 0 1080 1080" style="enable-background:new 0 0 1080 1080;" xml:space="preserve">
<style type="text/css">
	.st0{display:none;}
	.st1{display:inline;fill:#00A43C;}
	.st2{fill:#FFFFFF;}
</style>
<g class="st0">
	<path class="st1" d="M749.3,40.3c28.4,7,52.9,20.1,70.8,44.1c28.4,38.2,29.9,89.4,3.7,129c-25.9,39.2-73.6,58.3-119.1,47.7
		c-46.1-10.7-80.5-49.1-86.1-96.2c-6.7-55.8,28.2-107.1,82.7-121.8c3.1-0.8,6.1-1.9,9.2-2.9C723.5,40.3,736.4,40.3,749.3,40.3z"/>
	<path class="st1" d="M625.3,460.2C609,482,594.4,504.3,581,527.4c-10.7,18.5-20,37.7-28.4,57.3c-6.3,14.6-15.4,26.1-31.4,30.6
		c-5.7,1.6-7.5,6.8-10,11.2C471,697,430.9,767.5,390.7,838c-22.4,39.3-44.7,78.7-67.3,117.9c-3.2,5.5-3.9,9.8-0.9,16
		c9,18.5,4.8,38.5-9.7,51.3c-14.7,12.9-35.9,14.8-52.3,4.6c-16.6-10.4-23.9-29.6-18-49.9c1.9-6.6-0.2-9.2-5.5-12.1
		c-14-7.5-27.7-15.3-41.5-23.2c-17.7-10.1-20.2-18.8-10.2-36.5c31.3-55.5,62.7-110.8,94.1-166.2c13.5-23.9,27-47.8,40.5-71.8
		c9.7-17.2,19.5-19.9,36.6-10.3c20,11.2,40.1,22.3,59.9,33.8c5.8,3.4,8.9,2.9,12.2-3c14.7-26.6,29.6-53.1,44.5-79.5
		c2.3-4,2.7-7.5-0.1-11.7c-9.9-14.8-9.4-30.3-2.7-46.2C494.7,493.3,528,440.8,566,391c24-31.4,49.6-61.3,77.5-89.2
		c42.7-42.7,100.5-46.4,148.4-9.2c24.2,18.8,46.8,39.8,70.8,58.9c36.2,28.6,74.5,53.7,119.9,65.7c10.9,2.9,22.3,3.9,33.2,6.8
		c20.3,5.4,34.5,26.6,32,46.3c-3,23.2-21.1,39.8-43.9,39.9c-12.6,0-25.1-2.5-37.4-4.6c-45.8-8-88.6-23.5-126.3-51.4
		c-1.7-1.3-3.7-3.9-5.7-1.9c-1.2,1.2-1.1,4.3-0.9,6.4c2.1,24.8,4.6,49.5,6.5,74.3c1.7,21.9,4.7,43.7,5.1,65.7
		c0.3,15.4-3.5,29.5-12,42.2c-3.9,5.8-3.4,10.3,0,15.9c57.3,94.4,105.6,193.4,150.7,294c16.2,36.1,0.8,71.8-35.4,81.8
		c-25.9,7.1-52.3-5.4-64.9-31.6c-12.5-25.9-23.9-52.3-36.2-78.3c-30.4-63.8-62.1-126.7-98-187.4c-5.4-9.2-6-9.2-11.3,0.3
		c-36.4,65.6-70,132.6-104.8,199c-12,22.9-24,45.8-36.7,68.3c-14.5,25.7-41,36.9-66.3,29.2c-33.4-10.2-50-47.2-33.7-78.9
		c17.1-33.3,36.1-65.7,54.2-98.6c34.4-62.6,68.7-125.2,103.3-187.7c3.9-7,4.7-12.1-0.8-18.9c-10.2-12.8-13.4-28.5-14.8-44.4
		c-4.1-47-8-93.9-12.1-140.9C626.4,462.1,626,461.6,625.3,460.2z M296.7,991.9c-0.2-7.8-6.8-14.1-14.5-13.8
		c-7.8,0.3-13.7,6.9-13.4,14.9c0.3,7.5,6.3,13,14,13C290.9,1006,296.9,999.8,296.7,991.9z"/>
</g>
<g>
	<path class="st2" d="M940,507.7c0,21.9,0,43.7,0,65.6c-1.9,13.6-3,27.4-6,40.8c-35.1,159.5-130.8,263.6-286.5,312.3
		c-24.1,7.5-49.1,10.7-74.2,13.6c-21.8,0-43.7,0-65.5,0c-12.8-1.8-25.7-3.3-38.5-5.6C251,895.7,105.1,682.9,147.3,465
		c41.8-215.9,248.5-359.4,465-317.8C774,178.3,878.1,277.6,926.7,434.9C934,458.6,937.1,483.1,940,507.7z M311.6,540.4
		c1.4,36.5-0.1,73.5,3.4,110.3c3.6,38,18.8,70,50.6,92.8c24.7,17.7,53.1,23.2,82.6,24.2c58.7,1.9,117.5,2.1,176.2,0.3
		c12.8-0.4,25.5-1,38-3.3c51-9.4,84.8-38.2,99.3-88.6c3.7-12.8,5.6-26,5.9-39.2c1.7-68.9,3.8-137.8-1.5-206.6
		c-3.1-40.8-20.8-74.2-56.3-96.7c-22.2-14-47.2-19.3-72.8-20.1c-68.6-2-137.2-3.3-205.8,1.2c-64.4,4.2-111.8,51.8-116.4,116.2
		C312.2,467.2,312.9,503.6,311.6,540.4z"/>
	<path class="st2" d="M351.5,542.1c-0.2-33.5-0.3-65,1.5-96.4c1.6-26.2,7.2-51,27.7-69.8c18.4-16.9,41-21.8,64.7-23
		c53-2.8,106-1.9,159.1-1.2c17.9,0.2,35.8,0.4,53.6,3.9c39.5,7.9,64.4,35,68.6,75.3c2.9,27.7,3,55.5,3,83.3
		c0,39.8,0.6,79.6-1.4,119.3c-0.5,9.6-1.6,19.2-3.8,28.5c-9,37.4-35.9,60.7-74.8,64.5c-46.1,4.6-92.4,2.7-138.7,3
		c-26.5,0.2-53-0.2-79.4-2.9c-43.5-4.4-72.8-33.8-77.1-77.5c-0.4-4.1-1.1-8.3-1.3-12.4C351.4,604.5,351.2,572.3,351.5,542.1z
		 M657.2,540.8c0.1-64.9-51.3-116.8-115.8-117C476,423.6,424.1,475.1,424,540.1c-0.1,64.9,51.4,116.8,115.8,117
		C605.1,657.2,657.1,605.7,657.2,540.8z M689.7,418.2c0.2-13.9-11.9-26.5-26-27c-14.3-0.5-27,11.8-27.3,26.4
		c-0.3,14.1,11.7,26.4,26,26.9C676.7,445,689.5,432.7,689.7,418.2z"/>
	<path class="st2" d="M540.5,463.4c43.2,0,77.1,33.9,77.1,77.2c0,43.1-34.1,77-77.3,77c-43-0.1-76.8-34.2-76.7-77.6
		C463.6,497.3,497.7,463.4,540.5,463.4z"/>
</g>
</svg>
