<?xml version="1.0" encoding="utf-8"?>
<!-- Generator: Adobe Illustrator 28.2.0, SVG Export Plug-In . SVG Version: 6.00 Build 0)  -->
<svg version="1.1" id="Шар_1" xmlns="http://www.w3.org/2000/svg" xmlns:xlink="http://www.w3.org/1999/xlink" x="0px" y="0px"
	 viewBox="0 0 1080 1080" style="enable-background:new 0 0 1080 1080;" xml:space="preserve">
<style type="text/css">
	.st0{display:none;}
	.st1{display:inline;fill:#00A43C;}
	.st2{fill:#FFFFFF;}
</style>
<g class="st0">
	<path class="st1" d="M749.3,40.3c28.4,7,52.9,20.1,70.8,44.1c28.4,38.2,29.9,89.4,3.7,129c-25.9,39.2-73.6,58.3-119.1,47.7
		c-46.1-10.7-80.5-49.1-86.1-96.2c-6.7-55.8,28.2-107.1,82.7-121.8c3.1-0.8,6.1-1.9,9.2-2.9C723.5,40.3,736.4,40.3,749.3,40.3z"/>
	<path class="st1" d="M625.3,460.2C609,482,594.4,504.3,581,527.4c-10.7,18.5-20,37.7-28.4,57.3c-6.3,14.6-15.4,26.1-31.4,30.6
		c-5.7,1.6-7.5,6.8-10,11.2C471,697,430.9,767.5,390.7,838c-22.4,39.3-44.7,78.7-67.3,117.9c-3.2,5.5-3.9,9.8-0.9,16
		c9,18.5,4.8,38.5-9.7,51.3c-14.7,12.9-35.9,14.8-52.3,4.6c-16.6-10.4-23.9-29.6-18-49.9c1.9-6.6-0.2-9.2-5.5-12.1
		c-14-7.5-27.7-15.3-41.5-23.2c-17.7-10.1-20.2-18.8-10.2-36.5c31.3-55.5,62.7-110.8,94.1-166.2c13.5-23.9,27-47.8,40.5-71.8
		c9.7-17.2,19.5-19.9,36.6-10.3c20,11.2,40.1,22.3,59.9,33.8c5.8,3.4,8.9,2.9,12.2-3c14.7-26.6,29.6-53.1,44.5-79.5
		c2.3-4,2.7-7.5-0.1-11.7c-9.9-14.8-9.4-30.3-2.7-46.2C494.7,493.3,528,440.8,566,391c24-31.4,49.6-61.3,77.5-89.2
		c42.7-42.7,100.5-46.4,148.4-9.2c24.2,18.8,46.8,39.8,70.8,58.9c36.2,28.6,74.5,53.7,119.9,65.7c10.9,2.9,22.3,3.9,33.2,6.8
		c20.3,5.4,34.5,26.6,32,46.3c-3,23.2-21.1,39.8-43.9,39.9c-12.6,0-25.1-2.5-37.4-4.6c-45.8-8-88.6-23.5-126.3-51.4
		c-1.7-1.3-3.7-3.9-5.7-1.9c-1.2,1.2-1.1,4.3-0.9,6.4c2.1,24.8,4.6,49.5,6.5,74.3c1.7,21.9,4.7,43.7,5.1,65.7
		c0.3,15.4-3.5,29.5-12,42.2c-3.9,5.8-3.4,10.3,0,15.9c57.3,94.4,105.6,193.4,150.7,294c16.2,36.1,0.8,71.8-35.4,81.8
		c-25.9,7.1-52.3-5.4-64.9-31.6c-12.5-25.9-23.9-52.3-36.2-78.3c-30.4-63.8-62.1-126.7-98-187.4c-5.4-9.2-6-9.2-11.3,0.3
		c-36.4,65.6-70,132.6-104.8,199c-12,22.9-24,45.8-36.7,68.3c-14.5,25.7-41,36.9-66.3,29.2c-33.4-10.2-50-47.2-33.7-78.9
		c17.1-33.3,36.1-65.7,54.2-98.6c34.4-62.6,68.7-125.2,103.3-187.7c3.9-7,4.7-12.1-0.8-18.9c-10.2-12.8-13.4-28.5-14.8-44.4
		c-4.1-47-8-93.9-12.1-140.9C626.4,462.1,626,461.6,625.3,460.2z M296.7,991.9c-0.2-7.8-6.8-14.1-14.5-13.8
		c-7.8,0.3-13.7,6.9-13.4,14.9c0.3,7.5,6.3,13,14,13C290.9,1006,296.9,999.8,296.7,991.9z"/>
</g>
<g>
	<path class="st2" d="M509.5,140c20.8,0,41.6,0,62.4,0c13.3,1.9,26.9,3,40,5.7c158.5,33.5,262.6,127.8,312.9,281.7
		c8.4,25.8,12,52.6,15.2,79.4c0,21.9,0,43.7,0,65.6c-0.3,1.8-0.8,3.6-1,5.4c-3.2,35.4-11.1,69.8-23.8,103
		c-75.1,196.4-283.5,300.9-485.6,243.6c-202.5-57.4-328.4-267.6-279-472.5c38.3-159.1,140.1-259.3,298.1-302
		C468.7,144.5,489.1,142.5,509.5,140z M685.3,538.5C685.3,538.5,685.3,538.5,685.3,538.5c0-32,0-64-0.1-96c0-10-5-17.5-12.9-20.3
		c-8.8-3.1-18.3-0.5-24.1,7.7c-3.4,4.9-5.6,3.6-9,0.4c-28.1-26.3-61.6-38.6-99.9-38.8c-45.8-0.1-84.6,16-113.7,51.7
		C396.8,478.4,387,519.4,393,564c7.5,56.2,35.9,98.3,89.6,118.7c55.5,21.1,107.8,12.9,154.1-25.8c8.5-7.1,8.3-7.4,11.4,2.8
		c13.7,44.2,61.2,59.6,98.2,31.7c19.1-14.4,30.3-34.4,36.8-56.6c21.7-73.6,17.6-145.8-16.5-214.8c-28.8-58.3-75-98.4-136.7-119.6
		c-60.7-20.8-121.6-20-181.8,2c-70.5,25.7-119.2,74.5-145.6,144.7c-20.5,54.6-23.2,110.7-8.2,167.1
		c16.2,60.7,50.7,108.5,104.3,141.4c49,30.1,102.7,41.9,159.8,35.9c29-3,57.2-10.7,83.3-24.4c10.1-5.3,13.8-16.6,9.5-26.7
		c-4-9.3-14.2-13.9-24.8-11c-2.2,0.6-4.4,1.6-6.5,2.5c-46.7,21.5-95,25.9-144.4,12.2c-64.9-18-110.9-57.9-135.2-121.1
		c-17.4-45.3-18.6-91.9-6.4-138.8c15.9-61,51.6-106.7,108.3-134.7c44.3-21.9,91.3-27.4,139.7-19.2c48,8.1,88.7,30.3,120.7,67.5
		c29.6,34.4,45.5,74.8,50.4,119.6c4.1,37.4,2,74.3-10.9,110c-4.3,12-10,23.6-21,31.2c-14.3,10-29.3,4.6-34.1-12.2
		c-1.6-5.5-2-11.2-1.9-17C685.4,599.4,685.3,568.9,685.3,538.5z"/>
	<path class="st2" d="M538.7,432.8c61.6,0.2,105.7,46.5,105.4,110.9c-0.3,63.8-44.7,109.2-106.5,108.8c-61.7-0.4-105.2-46-105-110.3
		C432.7,478.4,477.2,432.6,538.7,432.8z"/>
</g>
</svg>
