<?xml version="1.0" encoding="utf-8"?>
<!-- Generator: Adobe Illustrator 28.2.0, SVG Export Plug-In . SVG Version: 6.00 Build 0)  -->
<svg version="1.1" id="_Шар_2" xmlns="http://www.w3.org/2000/svg" xmlns:xlink="http://www.w3.org/1999/xlink" x="0px" y="0px"
	 viewBox="0 0 1087.1 924.3" style="enable-background:new 0 0 1087.1 924.3;" xml:space="preserve">
<style type="text/css">
	.st0{fill:#EAA028;}
</style>
<g>
	<path class="st0" d="M697.3,124.8c59.1,0,118.2,0,177.3,0c53.6,0.1,90.4,36.6,90.7,90.2c0.2,38.4,0.1,76.8,0,115.2
		c-0.1,32.7-15.1,48-47.9,49.5c-44.2,2-78.2,38.1-78,82.8c0.1,44.1,34.2,80,77.9,82c33.3,1.5,48,16.8,48.1,50.4
		c0.1,37.8,0.1,75.5,0,113.3c-0.2,54.8-36.8,91.3-91.6,91.3c-119.8,0-239.7,0-359.5,0c-14.1,0-14.2-0.1-14.2-14.3
		c0-37.1,0.1-74.2-0.1-111.3c-0.1-28.5-15.5-43-43.7-42c-23.2,0.8-37.7,16.7-38,42.6c-0.3,37.1-0.1,74.2-0.1,111.3
		c0,13.7,0,13.7-13.6,13.7c-64.7,0-129.4,0.1-194,0c-51-0.1-88.2-36.9-88.7-88.2c-0.4-39.4-0.2-78.8,0-118.2
		c0.2-31.5,15.3-46.9,46.9-48.5c34.6-1.7,63-22.6,74.7-54.8c11.3-31.2,2.5-66.1-22.8-89c-14.3-13-31.2-20.2-50.7-21
		c-33.3-1.3-48-16.8-48.1-50.3c-0.1-37.8-0.1-75.5,0-113.3c0.2-54.9,36.6-91.3,91.6-91.3c64,0,128,0.2,192.1-0.2
		c9.8-0.1,13.1,2.7,13,12.8c-0.6,36.1-0.2,72.2-0.3,108.3c0,7.3,0.7,14.5,2.9,21.4c6.2,19.1,24.5,28.5,47.8,25
		c17.3-2.6,30.6-17.3,30.9-35.6c0.5-39.1,0.2-78.1,0.3-117.2c0-14.4,0.1-14.4,14.1-14.4C575.2,124.8,636.3,124.8,697.3,124.8z
		 M499.9,462.4C499.9,462.4,499.9,462.4,499.9,462.4c0-14.8,0.3-29.5,0-44.3c-0.4-21.2-14.1-36.5-33.6-38.1
		c-26.1-2.2-43.5,8.5-46.4,31.5c-4.1,31.9-1.3,64.2-1.3,96.3c0,1.9,0.7,3.9,1.1,5.8c4.5,22.2,20.6,32.9,46.3,30.9
		c19.2-1.5,33.3-16.6,33.9-36.8C500.2,492.6,499.9,477.5,499.9,462.4z"/>
</g>
</svg>
