<?xml version="1.0" encoding="utf-8"?>
<!-- Generator: Adobe Illustrator 28.2.0, SVG Export Plug-In . SVG Version: 6.00 Build 0)  -->
<svg version="1.1" id="_Шар_2" xmlns="http://www.w3.org/2000/svg" xmlns:xlink="http://www.w3.org/1999/xlink" x="0px" y="0px"
	 viewBox="0 0 1087.1 924.3" style="enable-background:new 0 0 1087.1 924.3;" xml:space="preserve">
<style type="text/css">
	.st0{fill:#EAA028;}
</style>
<g>
	<path class="st0" d="M542.8,88.5c200.1-0.5,364.1,156.7,373.9,354c10.7,214.6-155.9,384.3-355.6,392.9
		c-213.5,9.2-380.7-156.3-390.7-353.2C159.5,265.5,331.5,89,542.8,88.5z M543.5,186.1c-150.9-1.3-276.7,124.1-276.2,275.8
		c0.4,153,123.5,276.7,276.4,276.6c152.6,0,275.6-123.5,276.3-276C820.5,310.7,695.2,184.7,543.5,186.1z"/>
	<path class="st0" d="M543.8,696c-120.5,1.7-234.2-96-234.4-233.7c-0.2-130.6,104.3-234.3,234-234.3
		c130.7-0.1,234.9,104.4,234.3,234.7C777.1,601.6,662.5,697.7,543.8,696z M522.4,382.8c0,25.1,0,50.2,0,75.3
		c0,16.8,8.3,25.3,25.2,25.5c11.6,0.2,23.3,0,34.9,0c38.3,0,76.6,0,114.9,0c9.2,0,17.6-2,22.7-10.7c8.7-14.7-1.5-31.6-19.5-31.7
		c-41.1-0.2-82.3-0.1-123.4-0.1c-12.3,0-12.3,0-12.3-12.4c0-40.6,0-81.3,0-121.9c0-8.9-2.6-16.4-10.5-21.1
		c-14.5-8.7-31.7,1.7-31.9,19.4C522.2,331,522.4,356.9,522.4,382.8z"/>
</g>
</svg>
